<?xml version="1.0" encoding="UTF-8"?><svg id="uuid-f567a45b-707d-4e1e-b64e-521c5748270a" xmlns="http://www.w3.org/2000/svg" width="15.94" height="18.22" viewBox="0 0 15.94 18.22"><path d="m15.44,5.66v2.23c0,.1-.07.17-.17.18l-5.11.33,2.36,9.1c.03.11-.06.23-.18.23h-2.54c-.08,0-.15-.05-.17-.13l-1.18-4.09h-.97.97s-.97,0-.97,0l-1.18,4.09c-.02.08-.09.13-.17.13h-2.54c-.12,0-.21-.11-.18-.23l2.36-9.1-5.11-.33c-.1,0-.17-.09-.17-.18v-2.23c0-.11.09-.19.19-.18l6.01.41c.84.06,1.69.06,2.54,0l6.01-.41c.1,0,.19.08.19.18Z" fill="none" stroke="#000" stroke-miterlimit="10"/><circle cx="7.97" cy="2.14" r="1.64" fill="none" stroke="#000" stroke-miterlimit="10"/></svg>