<?xml version="1.0" encoding="UTF-8"?>
<svg id="Layer_1" data-name="Layer 1" xmlns="http://www.w3.org/2000/svg" viewBox="0 0 16.11 15.3">
  <defs>
    <style>
      .cls-1 {
        fill: none;
        stroke: #000;
      }
    </style>
  </defs>
  <path class="cls-1" d="m3.52,7.3h-1.63c-.77,0-1.39-.62-1.39-1.39V1.89c0-.77.62-1.39,1.39-1.39h12.33c.77,0,1.39.62,1.39,1.39v4.03c0,.77-.62,1.39-1.39,1.39h-1.63"/>
  <path class="cls-1" d="m2.78,4.28h10.55"/>
  <path class="cls-1" d="m12.75,14.27c-.63.6-1.59.7-2.33.22-.51-.34-.83-.9-.86-1.51v-5.69"/>
  <path class="cls-1" d="m3.97,10.86c-.6.58-.61,1.54-.02,2.14.58.6,1.54.61,2.14.02.3-.29.46-.69.45-1.1v-4.62"/>
</svg>