<?xml version="1.0" encoding="UTF-8"?>
<svg id="Layer_1" data-name="Layer 1" xmlns="http://www.w3.org/2000/svg" viewBox="0 0 16 13.96">
  <defs>
    <style>
      .cls-1 {
        fill: none;
        stroke: #000;
        stroke-miterlimit: 10;
      }
    </style>
  </defs>
  <path class="cls-1" d="m3.16,2.07l-1.12-.4c-.18-.07-.39.03-.45.21l-.8,2.23c-.36,1,.16,2.11,1.16,2.47l10.84,3.91c.8.29,1.67-.13,1.96-.92h0c.29-.8-.13-1.67-.92-1.96l-3.42-1.23-.39-4.97c0-.11-.08-.21-.19-.25l-1.79-.64c-.15-.05-.32.02-.37.17l-1.5,4.16-2.83-1.02.06-1.41c0-.15-.09-.3-.23-.35Z"/>
  <line class="cls-1" y1="13.46" x2="16" y2="13.46"/>
</svg>