<?xml version="1.0" encoding="UTF-8"?>
<svg id="Layer_1" data-name="Layer 1" xmlns="http://www.w3.org/2000/svg" viewBox="0 0 16.16 13.19">
  <defs>
    <style>
      .cls-1 {
        fill: none;
        stroke: #000;
        stroke-miterlimit: 10;
      }
    </style>
  </defs>
  <path class="cls-1" d="m2.04,5.91l-1.07.52c-.18.08-.25.3-.17.47l1.02,2.14c.46.96,1.62,1.37,2.58.91l10.39-4.98c.76-.37,1.08-1.28.72-2.04h0c-.37-.76-1.28-1.08-2.04-.72l-3.28,1.57L6.37.57c-.09-.07-.21-.09-.31-.04l-1.71.82c-.14.07-.2.24-.14.38l1.91,3.99-2.71,1.3-.96-1.03c-.11-.11-.27-.15-.41-.08Z"/>
  <line class="cls-1" y1="12.69" x2="16" y2="12.69"/>
</svg>