<?xml version="1.0" encoding="UTF-8"?>
<svg id="Layer_1" data-name="Layer 1" xmlns="http://www.w3.org/2000/svg" viewBox="0 0 14.21 16.86">
  <defs>
    <style>
      .cls-1 {
        fill: none;
        stroke: #000;
        stroke-miterlimit: 10;
      }
    </style>
  </defs>
  <path class="cls-1" d="m11.41,8.51c0-1.39.66-2.61,1.66-3.41-.63-.69-1.51-1.12-2.64-1.12-1.19,0-2.26.45-3.06,1.2-.8-.75-1.87-1.2-3.06-1.2C1.81,3.98.5,6.01.5,8.51c0,4.1,2.26,7.85,4.5,7.85,1.64,0,1.55-.83,2.37-.84.82.01.73.84,2.37.84,1.51,0,3.02-1.71,3.85-4.08-1.3-.76-2.19-2.16-2.19-3.78Z"/>
  <path class="cls-1" d="m7.37,3.09c.02-.24.1-1.02.73-1.7.73-.79,1.66-.88,1.87-.89"/>
</svg>