<?xml version="1.0" encoding="UTF-8"?>
<svg id="Layer_1" data-name="Layer 1" xmlns="http://www.w3.org/2000/svg" viewBox="0 0 17.19 17.52">
  <defs>
    <style>
      .cls-1 {
        fill: none;
        stroke: #000;
        stroke-miterlimit: 10;
      }
    </style>
  </defs>
  <path class="cls-1" d="m5.1,8.75c0-2,1.29-3.63,3.3-3.63,2.64,0,3.63,1.63,3.63,3.63s-.99,3.63-3.63,3.63c-2,0-3.3-1.63-3.3-3.63Z"/>
  <path class="cls-1" d="m12.01,4.4v6c0,.14.01.28.03.41.4,2.39,3.78,2.35,4.39,0,.25-.99.33-2.05.19-3.14-.47-3.72-3.55-6.73-7.28-7.12C4.37.03.5,3.9.5,8.76c0,4.56,3.37,8.26,7.93,8.26"/>
  <path class="cls-1" d="m8.43,17.02c1.89,0,3.63-.63,5.02-1.7"/>
</svg>