<?xml version="1.0" encoding="UTF-8"?>
<svg id="Layer_1" data-name="Layer 1" xmlns="http://www.w3.org/2000/svg" viewBox="0 0 16.7 16.7">
  <defs>
    <style>
      .cls-1 {
        fill: none;
        stroke: #000;
        stroke-miterlimit: 10;
      }
    </style>
  </defs>
  <circle class="cls-1" cx="5.9" cy="8.59" r=".04"/>
  <path class="cls-1" d="m8.5,11.24s.02-.04.04-.04.04.02.04.04-.02.04-.04.04-.04-.02-.04-.04Z"/>
  <path class="cls-1" d="m5.87,11.22s.02-.04.04-.04.04.02.04.04-.02.04-.04.04-.04-.02-.04-.04Z"/>
  <circle class="cls-1" cx="8.53" cy="8.6" r=".04"/>
  <path class="cls-1" d="m8.47,5.97s.02-.04.04-.04.04.02.04.04-.02.04-.04.04-.04-.02-.04-.04Z"/>
  <circle class="cls-1" cx="11.16" cy="8.62" r=".04"/>
  <circle class="cls-1" cx="11.15" cy="5.98" r=".04"/>
  <path class="cls-1" d="m10.74.87l-1.93,1.55c-.27.22-.66.22-.93,0l-1.93-1.55c-.67-.54-1.64-.49-2.25.12L.99,3.7c-.61.61-.66,1.58-.12,2.25l1.55,1.93c.22.27.22.66,0,.93l-1.55,1.93c-.54.67-.49,1.64.12,2.25l2.71,2.71c.61.61,1.58.66,2.25.12l1.93-1.55c.27-.22.66-.22.93,0l1.93,1.55c.67.54,1.64.49,2.25-.12l2.71-2.71c.61-.61.66-1.58.12-2.25l-1.55-1.93c-.22-.27-.22-.66,0-.93l1.55-1.93c.54-.67.49-1.64-.12-2.25l-2.71-2.71c-.61-.61-1.58-.66-2.25-.12Z"/>
</svg>