<?xml version="1.0" encoding="UTF-8"?>
<svg id="Layer_1" data-name="Layer 1" xmlns="http://www.w3.org/2000/svg" viewBox="0 0 38.51 16.3">
  <defs>
    <style>
      .cls-1 {
        fill: none;
        stroke: #000;
        stroke-miterlimit: 10;
      }
    </style>
  </defs>
  <circle class="cls-1" cx="24.37" cy="9.27" r="1.47"/>
  <path class="cls-1" d="m21.83,15.89c1.04-.72,4-2.54,8.19-2.54,4.2,0,7.15,1.82,8.19,2.54"/>
  <path class="cls-1" d="m33.48,4.06c-.41.19-2.75,1.31-3.71,4.07-.9,2.58.04,4.76.25,5.22"/>
  <path class="cls-1" d="m33.48,4.06c.15-1.01.85-1.85,1.82-2.16.92-.3,1.94-.06,2.65.6"/>
  <path class="cls-1" d="m27.77,1.15c.2-.13,1.51-.97,3.06-.52,1.44.42,2.51,1.78,2.65,3.43.18,0,2.64.08,3.89,2.13.81,1.33.64,2.69.57,3.09"/>
  <path class="cls-1" d="m27.62,6.65c0-.34.03-1.63.99-2.54,1.16-1.1,3.2-1.19,4.88-.05.19.16,1.48,1.28,1.45,3.06-.02,1.07-.5,1.84-.73,2.15"/>
</svg>