<?xml version="1.0" encoding="UTF-8"?>
<svg id="Layer_1" data-name="Layer 1" xmlns="http://www.w3.org/2000/svg" viewBox="0 0 17.98 19.49">
  <defs>
    <style>
      .cls-1 {
        fill: none;
        stroke: #000;
        stroke-miterlimit: 10;
      }
    </style>
  </defs>
  <g>
    <path class="cls-1" d="m6.54,17.46v1.14c0,.2.17.37.37.37h4.15c.2,0,.37-.17.37-.37v-1.14"/>
    <path class="cls-1" d="m1.99,3.52c.93-1.34,2.32-2.48,4.26-3.04"/>
    <path class="cls-1" d="m11.73.48c2.3.67,3.83,2.16,4.74,3.82"/>
  </g>
  <path class="cls-1" d="m3.65,5.58c.74-1.44,2.26-2.98,5.34-2.98,5.83,0,6.04,5.49,6.04,5.49l.57,5.33,1.85,2.27c.06.04.03.13-.04.13"/>
  <path class="cls-1" d="m11.43,15.81H.57c-.07,0-.1-.09-.04-.13l1.85-2.27.56-5.33"/>
  <line class="cls-1" x1=".63" y1="2.17" x2="17.6" y2="19.14"/>
  <line class="cls-1" x1="17.41" y1="15.82" x2="14.27" y2="15.81"/>
</svg>