<?xml version="1.0" encoding="UTF-8"?>
<svg id="Layer_1" data-name="Layer 1" xmlns="http://www.w3.org/2000/svg" viewBox="0 0 17.01 19.4">
  <defs>
    <style>
      .cls-1 {
        fill: none;
        stroke: #000;
        stroke-miterlimit: 10;
      }
    </style>
  </defs>
  <path class="cls-1" d="m10.42,15.73H.57c-.07,0-.09-.08-.04-.12l1.74-2.14.52-4.91v-.12"/>
  <path class="cls-1" d="m3.56,5.93c.73-1.31,2.15-2.65,4.95-2.65,5.5,0,5.69,5.18,5.69,5.18l.54,5.02,1.74,2.14c.06.04.03.12-.04.12h0s-3.11,0-3.11,0"/>
  <path class="cls-1" d="m6.06,17.37v1.14c0,.2.17.37.37.37h4.15c.2,0,.37-.17.37-.37v-1.14"/>
  <line class="cls-1" x1=".49" y1="2.9" x2="16.64" y2="19.05"/>
  <line class="cls-1" x1="11.26" y1=".39" x2="16" y2="4.21"/>
  <line class="cls-1" x1="1.46" y1="3.91" x2="5.78" y2=".39"/>
</svg>