<?xml version="1.0" encoding="UTF-8"?>
<svg id="Layer_1" data-name="Layer 1" xmlns="http://www.w3.org/2000/svg" viewBox="0 0 16.91 15.62">
  <defs>
    <style>
      .cls-1 {
        fill: none;
        stroke: #000;
        stroke-miterlimit: 10;
      }
    </style>
  </defs>
  <circle class="cls-1" cx="8.47" cy="8.61" r="4.32"/>
  <path class="cls-1" d="m9.71.47c1.58.52,2.73,2.02,2.73,3.78,0,2.2-1.78,3.98-3.98,3.98s-3.98-1.78-3.98-3.98c0-1.76,1.14-3.25,2.73-3.78"/>
  <path class="cls-1" d="m15.14,14.05c-1.22,1.14-3.08,1.43-4.62.58-1.93-1.05-2.64-3.47-1.58-5.4s3.47-2.64,5.4-1.58c1.54.84,2.31,2.56,2.01,4.2"/>
  <path class="cls-1" d="m1.76,14.05c1.22,1.14,3.08,1.43,4.62.58,1.93-1.05,2.64-3.47,1.58-5.4s-3.47-2.64-5.4-1.58c-1.54.84-2.31,2.56-2.01,4.2"/>
</svg>