<?xml version="1.0" encoding="UTF-8"?>
<svg id="Layer_1" data-name="Layer 1" xmlns="http://www.w3.org/2000/svg" viewBox="0 0 22.88 13.85">
  <defs>
    <style>
      .cls-1 {
        fill: none;
        stroke: #000;
        stroke-miterlimit: 10;
      }
    </style>
  </defs>
  <path class="cls-1" d="m14.85,10.47s2.28,4.77,5,2.04c2.72-2.72-2.01-4.03-2.01-4.03.44.08,1.49.22,2.48-.34,1.41-.79,1.71-2.39,1.89-3.34.23-1.21.37-3.72-.63-4.22-.76-.37-2.46.28-6.74,5.53C10.56.87,8.86.21,8.1.59c-1,.49-.86,3.01-.63,4.22.18.95.49,2.55,1.89,3.34,1,.56,2.04.42,2.48.34,0,0-4.73,1.31-2.01,4.03,2.72,2.72,5-2.04,5-2.04Z"/>
</svg>