<?xml version="1.0" encoding="UTF-8"?>
<svg id="Layer_1" data-name="Layer 1" xmlns="http://www.w3.org/2000/svg" viewBox="0 0 13.71 16.59">
  <defs>
    <style>
      .cls-1 {
        fill: none;
        stroke: #000;
        stroke-miterlimit: 10;
      }
    </style>
  </defs>
  <path class="cls-1" d="m5.22,8.39l-3.71,3.72"/>
  <path class="cls-1" d="m7.75,13.69l-2.15,2.33c-.13.14-.38.05-.38-.15v-7.48"/>
  <path class="cls-1" d="m5.22,5.23V1.19c0-.2.24-.3.38-.15l3.19,3.46c.07.09.07.22,0,.3l-1.76,1.77"/>
  <path class="cls-1" d="m5.22,8.66l3.57,3.59c.07.08.07.21,0,.3l-3.19,3.46c-.14.15-.38.05-.38-.15v-7.2"/>
  <path class="cls-1" d="m.35.35l13,13.04"/>
  <line class="cls-1" x1="6.15" y1="9.6" x2="1.29" y2="4.72"/>
</svg>