<?xml version="1.0" encoding="UTF-8"?>
<svg id="Layer_1" data-name="Layer 1" xmlns="http://www.w3.org/2000/svg" viewBox="0 0 16 16.12">
  <defs>
    <style>
      .cls-1 {
        fill: none;
        stroke: #000;
        stroke-miterlimit: 10;
      }
    </style>
  </defs>
  <path class="cls-1" d="m3.96,14.49c-1.32-2.31-1.91-5.4-2.14-6.96-.08-.56.28-1.08.82-1.21l5.36-1.31,5.36,1.31c.55.13.9.66.82,1.21-.23,1.56-.82,4.66-2.14,6.96"/>
  <path class="cls-1" d="m11.15,5.83V1.29c0-.44-.35-.79-.79-.79h-4.72c-.44,0-.79.35-.79.79v4.54"/>
  <path class="cls-1" d="m16,15.62h-1.99c-.26,0-.52-.08-.73-.24l-1.87-1.34c-.46-.33-1.08-.31-1.52.04l-1.1.89c-.46.37-1.12.37-1.58,0l-1.1-.89c-.44-.36-1.06-.37-1.52-.04l-1.87,1.34c-.21.15-.47.24-.73.24H0"/>
</svg>