<?xml version="1.0" encoding="UTF-8"?>
<svg id="Layer_1" data-name="Layer 1" xmlns="http://www.w3.org/2000/svg" viewBox="0 0 13.35 13.35">
  <defs>
    <style>
      .cls-1 {
        fill: none;
        stroke: #000;
        stroke-miterlimit: 10;
      }
    </style>
  </defs>
  <path class="cls-1" d="m8.88,6.92l-3.19,3.19c-.19.19-.3.46-.3.73v1.15c0,.48-.39.86-.86.86h-.72c-.48,0-.86-.39-.86-.86v-1.29c0-.16-.13-.29-.29-.29h-1.29c-.48,0-.86-.39-.86-.86v-.72c0-.48.39-.86.86-.86h1.15c.27,0,.54-.11.73-.3,0,0,3.19-3.19,3.19-3.19l1.23-1.23c.19-.19.3-.46.3-.73v-1.15c0-.48.39-.86.86-.86h.72c.48,0,.86.39.86.86v1.29c0,.16.13.29.29.29h1.29c.48,0,.86.39.86.86v.72c0,.48-.39.86-.86.86h-1.15c-.27,0-.54.11-.73.3,0,0-1.23,1.23-1.23,1.23Z"/>
</svg>