<?xml version="1.0" encoding="UTF-8"?>
<svg id="Layer_1" data-name="Layer 1" xmlns="http://www.w3.org/2000/svg" viewBox="0 0 12.77 13.91">
  <defs>
    <style>
      .cls-1 {
        fill: none;
        stroke: #000;
        stroke-miterlimit: 10;
      }
    </style>
  </defs>
  <path class="cls-1" d="m11.42,2.94h-1.29c-.16,0-.29-.13-.29-.29v-1.29c0-.48-.38-.86-.86-.86h-.72c-.48,0-.86.38-.86.86v1.15c0,.27-.11.54-.3.73l-1.23,1.23c-.09.09-.06.23.05.29l1.41.68.69,1.42c.06.11.21.13.29.05l1.23-1.23c.19-.19.46-.3.73-.3h1.15c.48,0,.86-.38.86-.86v-.72c0-.48-.38-.86-.86-.86h.01Z"/>
  <path class="cls-1" d="m1.35,10.97h1.29c.16,0,.29.13.29.29v1.29c0,.48.38.86.86.86h.72c.48,0,.86-.38.86-.86v-1.15c0-.27.11-.54.3-.73l1.23-1.23c.09-.09.06-.23-.05-.29l-1.41-.68-.69-1.42c-.06-.11-.21-.13-.29-.05l-1.23,1.23c-.19.19-.46.3-.73.3h-1.15c-.48,0-.86.38-.86.86v.72c0,.48.38.86.86.86h-.01Z"/>
  <g>
    <line class="cls-1" x1="10.24" y1="10.92" x2="11.55" y2="12.23"/>
    <line class="cls-1" x1="10.2" y1="9.12" x2="12.05" y2="9.11"/>
    <line class="cls-1" x1="8.43" y1="10.89" x2="8.43" y2="12.73"/>
  </g>
  <g>
    <line class="cls-1" x1="2.15" y1="2.83" x2=".84" y2="1.53"/>
    <line class="cls-1" x1="2.18" y1="4.64" x2=".34" y2="4.64"/>
    <line class="cls-1" x1="3.95" y1="2.87" x2="3.96" y2="1.02"/>
  </g>
</svg>