<?xml version="1.0" encoding="UTF-8"?>
<svg id="Layer_1" data-name="Layer 1" xmlns="http://www.w3.org/2000/svg" viewBox="0 0 17.97 12.79">
  <defs>
    <style>
      .cls-1 {
        fill: none;
        stroke: #000;
        stroke-miterlimit: 10;
      }
    </style>
  </defs>
  <path class="cls-1" d="m9.72,12.01h0c2.21-1.1,4.81-1.1,7.02,0l.53.26c.09.05.21-.02.21-.13V2.37c0-.43-.24-.82-.63-1.02h0c-2.28-1.14-4.95-1.14-7.23,0l-.63.31-.63-.31c-2.28-1.14-4.95-1.14-7.23,0h0c-.38.19-.63.59-.63,1.02v9.78c0,.11.11.17.21.13l.53-.26c2.21-1.1,4.81-1.1,7.02,0h0c.46.23,1.01.23,1.47,0Z"/>
  <line class="cls-1" x1="8.99" y1="1.67" x2="8.99" y2="12.38"/>
</svg>