<?xml version="1.0" encoding="UTF-8"?>
<svg id="Layer_1" data-name="Layer 1" xmlns="http://www.w3.org/2000/svg" viewBox="0 0 7.7 17.24">
  <defs>
    <style>
      .cls-1 {
        fill: none;
        stroke: #000;
        stroke-miterlimit: 10;
      }
    </style>
  </defs>
  <path class="cls-1" d="m1.76,16.74c-.27,0-.51-.2-.54-.48l-.72-5.74c0-.83.25-1.63.71-2.32l.27-.4c.37-.55.61-1.18.68-1.84L2.76.88c.03-.22.22-.38.45-.38h1.29c.22,0,.41.16.45.38l.59,5.06c.08.66.31,1.29.68,1.84l.27.4c.46.69.71,1.49.71,2.32l-.72,5.76c-.03.27-.27.48-.54.48H1.76Z"/>
  <line class="cls-1" x1="6.77" y1="13.93" x2=".93" y2="13.93"/>
  <line class="cls-1" x1=".5" y1="10.92" x2="7.2" y2="10.92"/>
</svg>