<?xml version="1.0" encoding="UTF-8"?>
<svg id="Layer_1" data-name="Layer 1" xmlns="http://www.w3.org/2000/svg" viewBox="0 0 16.02 14.49">
  <defs>
    <style>
      .cls-1 {
        fill: none;
        stroke: #000;
        stroke-miterlimit: 10;
      }
    </style>
  </defs>
  <path class="cls-1" d="m15.52,3.28h-4.73c-.34,0-.62-.28-.62-.62v-1.64c0-.29-.23-.52-.52-.52h-5c-.33,0-.6.27-.6.6v8.73c0,.33.27.6.6.6h10.26c.33,0,.6-.27.6-.6V1.1c0-.33-.27-.6-.6-.6h-3.15"/>
  <path class="cls-1" d="m11.96,12.45v1.03-.09c0,.33-.27.6-.6.6H1.1c-.33,0-.6-.27-.6-.6V4.66c0-.33.27-.6.6-.6h1.03"/>
</svg>