<?xml version="1.0" encoding="UTF-8"?>
<svg id="Layer_1" data-name="Layer 1" xmlns="http://www.w3.org/2000/svg" viewBox="0 0 16.83 17.74">
  <defs>
    <style>
      .cls-1 {
        fill: none;
        stroke: #000;
        stroke-miterlimit: 10;
      }
    </style>
  </defs>
  <path class="cls-1" d="m13.83,17.74V2.2c0-.94-.76-1.7-1.7-1.7h-7.42c-.94,0-1.7.76-1.7,1.7v15.54"/>
  <path class="cls-1" d="m3.01,8.71v4.58c0,.73.59,1.32,1.32,1.32h8.19c.73,0,1.32-.59,1.32-1.32v-4.58H3.01Z"/>
  <path class="cls-1" d="m.5,7.55v-2.91c0-.29.21-.54.5-.59,2.12-.34,4.42-.59,7.44-.59s5.29.25,7.39.58c.29.05.5.3.5.59v2.91"/>
  <circle class="cls-1" cx="5.95" cy="11.83" r=".17"/>
  <circle class="cls-1" cx="11.05" cy="11.83" r=".17"/>
</svg>