<?xml version="1.0" encoding="UTF-8"?>
<svg id="Layer_1" data-name="Layer 1" xmlns="http://www.w3.org/2000/svg" viewBox="0 0 18.16 16.38">
  <defs>
    <style>
      .cls-1 {
        fill: none;
        stroke: #000;
        stroke-miterlimit: 10;
      }
    </style>
  </defs>
  <path class="cls-1" d="m15.67,6.26c-.84.14-1.42.92-1.42,1.77v.09c0,.86-.69,1.55-1.55,1.55h-.72c-.18,0-.33-.15-.33-.33V3.22c0-1.35-.97-2.58-2.31-2.71-1.54-.15-2.84,1.05-2.84,2.56v2.94c0,.18-.15.33-.33.33h-.72c-.86,0-1.55-.69-1.55-1.55v-.09c0-.85-.58-1.64-1.42-1.77-1.07-.17-1.99.65-1.99,1.68v.18c0,2.65,2.15,4.8,4.8,4.8h.88c.18,0,.33.15.33.33v5.97h5.15v-2.63c0-.18.15-.33.33-.33h.88c2.65,0,4.8-2.15,4.8-4.8v-.18c0-1.03-.92-1.85-1.99-1.68Z"/>
  <line class="cls-1" x1="1.25" y1="15.88" x2="16.91" y2="15.88"/>
</svg>