<?xml version="1.0" encoding="UTF-8"?>
<svg id="Layer_1" data-name="Layer 1" xmlns="http://www.w3.org/2000/svg" viewBox="0 0 14.24 14.21">
  <defs>
    <style>
      .cls-1 {
        fill: none;
        stroke: #000;
      }
    </style>
  </defs>
  <path class="cls-1" d="m3.57,4.11c-.94.71-1.88,1.4-2.82,2.03-.16.11-.25.28-.25.47v6.5c0,.33.27.6.6.6h12.03c.33,0,.6-.27.6-.6v-6.9c0-.31-.08-.62-.25-.89-.49-.77-1.14-1.67-2.01-2.58-.88-.92-1.75-1.61-2.5-2.14-.2-.14-.46-.14-.66,0-.66.45-1.33.93-1.99,1.42"/>
  <circle class="cls-1" cx="4.94" cy="3.06" r="1.73"/>
  <line class="cls-1" x1=".5" y1="7.98" x2="10.55" y2="7.98"/>
  <line class="cls-1" x1=".5" y1="10.91" x2="10.55" y2="10.91"/>
</svg>