<?xml version="1.0" encoding="UTF-8"?>
<svg id="Layer_1" data-name="Layer 1" xmlns="http://www.w3.org/2000/svg" viewBox="0 0 14.14 15.17">
  <defs>
    <style>
      .cls-1 {
        fill: none;
        stroke: #000;
      }
    </style>
  </defs>
  <path class="cls-1" d="m2,6.68h10.14c.83,0,1.5.67,1.5,1.5v6.06c0,.24-.19.43-.43.43H.93c-.24,0-.43-.19-.43-.43v-6.06c0-.83.67-1.5,1.5-1.5Z"/>
  <line class="cls-1" x1="7.16" y1="6.68" x2="7.16" y2="4.65"/>
  <path class="cls-1" d="m.5,9.85c1.31,0,1.31,1.31,2.62,1.31s1.31-1.31,2.63-1.31,1.31,1.31,2.63,1.31,1.32-1.31,2.63-1.31,1.32,1.31,2.63,1.31"/>
  <path class="cls-1" d="m5.62,3.11c0-.63.84-1.87,1.28-2.48.13-.18.39-.18.51,0,.44.6,1.28,1.85,1.28,2.48,0,.85-.69,1.54-1.54,1.54s-1.54-.69-1.54-1.54Z"/>
</svg>