<?xml version="1.0" encoding="UTF-8"?>
<svg id="Layer_1" data-name="Layer 1" xmlns="http://www.w3.org/2000/svg" viewBox="0 0 19.1 16.94">
  <defs>
    <style>
      .cls-1 {
        fill: none;
        stroke: #000;
        stroke-miterlimit: 10;
      }
    </style>
  </defs>
  <path class="cls-1" d="m16.43,14.98c.45-.4.78-.94.9-1.57l1.21-6.34c.37-1.96-1.13-3.77-3.12-3.77h0c-.12,0-.22-.1-.22-.22l-.38-.81c-.5-1.06-1.57-1.73-2.74-1.73h-5.06c-1.17,0-2.24.67-2.74,1.73l-.18.38"/>
  <path class="cls-1" d="m1.73,3.96c-.9.7-1.41,1.88-1.17,3.1l1.21,6.34c.25,1.31,1.39,2.25,2.72,2.25h9.1"/>
  <path class="cls-1" d="m10.65,12.44c-.35.1-.72.15-1.1.15-2.23,0-4.04-1.81-4.04-4.04,0-.5.09-.98.26-1.43"/>
  <path class="cls-1" d="m6.93,5.48c.71-.6,1.62-.97,2.62-.97,2.23,0,4.04,1.81,4.04,4.04,0,1-.36,1.92-.97,2.62"/>
  <line class="cls-1" x1="1.8" y1=".35" x2="18.03" y2="16.58"/>
</svg>