<?xml version="1.0" encoding="UTF-8"?>
<svg id="Layer_1" data-name="Layer 1" xmlns="http://www.w3.org/2000/svg" viewBox="0 0 17.31 16.61">
  <defs>
    <style>
      .cls-1 {
        fill: none;
        stroke: #000;
        stroke-miterlimit: 10;
      }
    </style>
  </defs>
  <path class="cls-1" d="m15.03,14l1.37-7.61c.2-1.09-.52-2.14-1.61-2.35l-1.19-.23-1.41-2.53c-.2-.36-.58-.58-.99-.58h-2.73"/>
  <path class="cls-1" d="m8.47,14.85h3.98"/>
  <path class="cls-1" d="m3.75,3.06l.99-1.78c.2-.36.58-.58.99-.58h2.73"/>
  <path class="cls-1" d="m8.47,14.85H2.92c-.5,0-.93-.36-1.01-.85L.53,6.39c-.17-.95.35-1.88,1.22-2.23"/>
  <path class="cls-1" d="m9.92,11.73c-.44.2-.93.3-1.45.3-1.98,0-3.58-1.6-3.58-3.58,0-.5.1-.98.29-1.41"/>
  <path class="cls-1" d="m6.3,5.6c.6-.46,1.36-.73,2.17-.73,1.98,0,3.58,1.6,3.58,3.58,0,.82-.27,1.57-.73,2.17"/>
  <line class="cls-1" x1="1.05" y1=".35" x2="16.95" y2="16.26"/>
</svg>