<?xml version="1.0" encoding="UTF-8"?><svg id="uuid-d2af32b2-37a4-4952-b93c-a30d0601e689" xmlns="http://www.w3.org/2000/svg" width="19.22" height="16.07" viewBox="0 0 19.22 16.07"><path d="m12.3,1c.85,0,1.64.5,2,1.27l.35.74c.14.53.62.93,1.2.93.71,0,1.38.31,1.83.86.45.55.64,1.26.5,1.96l-1.29,6.73c-.18.92-.98,1.58-1.91,1.58H4.24c-.93,0-1.74-.67-1.91-1.58l-1.29-6.73c-.13-.7.05-1.41.5-1.96.45-.55,1.12-.86,1.83-.86.58,0,1.06-.4,1.2-.93l.35-.74c.37-.77,1.15-1.27,2-1.27h5.37m0-1h-5.37c-1.24,0-2.38.72-2.91,1.84l-.41.86c0,.13-.11.24-.24.24h0C1.26,2.94-.34,4.86.06,6.94l1.29,6.73c.27,1.39,1.48,2.39,2.89,2.39h10.74c1.41,0,2.63-1,2.89-2.39l1.29-6.73c.4-2.08-1.2-4.01-3.31-4.01h0c-.13,0-.24-.11-.24-.24l-.41-.86c-.53-1.12-1.67-1.84-2.91-1.84h0Z" stroke-width="0"/><path d="m9.61,5.22c1.82,0,3.29,1.48,3.29,3.29s-1.48,3.29-3.29,3.29-3.29-1.48-3.29-3.29,1.48-3.29,3.29-3.29m0-1c-2.37,0-4.29,1.92-4.29,4.29s1.92,4.29,4.29,4.29,4.29-1.92,4.29-4.29-1.92-4.29-4.29-4.29h0Z" stroke-width="0"/></svg>