<?xml version="1.0" encoding="UTF-8"?>
<svg id="Layer_1" data-name="Layer 1" xmlns="http://www.w3.org/2000/svg" viewBox="0 0 15.04 14.27">
  <defs>
    <style>
      .cls-1 {
        fill: none;
        stroke: #000;
        stroke-miterlimit: 10;
      }
    </style>
  </defs>
  <path class="cls-1" d="m13.67,14.05c0-1.07.39-2.58.72-3.68.28-.92.18-1.92-.3-2.75-.61-1.09-1.41-2.65-1.66-3.88-.09-.41-.43-.71-.85-.71h-.84"/>
  <path class="cls-1" d="m10.91,10.32v-3.3c0-.18-.14-.32-.32-.32h-.42c-.83,0-1.51.67-1.51,1.51v.91l-.42.67c-.62.97-.68,2.2-.17,3.23l.51,1.03"/>
  <path class="cls-1" d="m4.96,12.76H1.22c-.4,0-.72-.32-.72-.72V1.22c0-.4.32-.72.72-.72h6.97c.4,0,.72.32.72.72v3.56"/>
  <circle class="cls-1" cx="4.96" cy="6.69" r="1.63"/>
</svg>