<?xml version="1.0" encoding="UTF-8"?>
<svg id="Layer_1" data-name="Layer 1" xmlns="http://www.w3.org/2000/svg" viewBox="0 0 12.66 14.1">
  <defs>
    <style>
      .cls-1 {
        fill: none;
        stroke: #000;
        stroke-miterlimit: 10;
      }
    </style>
  </defs>
  <circle class="cls-1" cx="7.05" cy="6.34" r=".16"/>
  <path class="cls-1" d="m.5,13.6C.5,9.4.93.76,6.17.5c.13,0,.25.1.25.24v2.42h1.85c1.11,0,2.01.9,2.01,2.01v1.34h1.72c.09,0,.16.07.16.16v1.72c0,1-.81,1.8-1.8,1.8h-2.81c0,1.49,1,3.41,1,3.41H.5Z"/>
  <path class="cls-1" d="m6.42,1.51c.69-.59,1.53-.96,2.55-1.01.13,0,.25.1.25.24v2.42"/>
</svg>