<?xml version="1.0" encoding="UTF-8"?>
<svg id="Layer_1" data-name="Layer 1" xmlns="http://www.w3.org/2000/svg" viewBox="0 0 15.19 13.84">
  <defs>
    <style>
      .cls-1 {
        fill: none;
        stroke: #000;
      }
    </style>
  </defs>
  <path class="cls-1" d="m5.29.8l6.43,3.22c.37.18.51.63.33,1l-2.31,4.61c-.18.37-.63.52-1,.33,0,0,0,0,0,0l-6.43-3.22c-1.41-.71-1.98-2.42-1.29-3.83l.41-.82C2.14.67,3.87.09,5.29.8Z"/>
  <path class="cls-1" d="m.5,11.41h2.79c.56,0,1.08-.31,1.34-.82l1.07-2.15"/>
  <path class="cls-1" d="m.5,13.84v-4.88"/>
  <path class="cls-1" d="m14.65,6.98l-1.68,3.39c-.14.29-.53.33-.73.08l-1.79-2.22.97-1.95,2.85.08c.32,0,.52.35.38.63Z"/>
</svg>