<?xml version="1.0" encoding="UTF-8"?>
<svg id="Layer_1" data-name="Layer 1" xmlns="http://www.w3.org/2000/svg" viewBox="0 0 16.82 13.89">
  <defs>
    <style>
      .cls-1 {
        fill: none;
        stroke: #000;
        stroke-miterlimit: 10;
      }
    </style>
  </defs>
  <path class="cls-1" d="m3.97.5h5.17c.89,0,1.62.72,1.62,1.62v9.83c0,.8-.65,1.45-1.45,1.45H3.8c-.8,0-1.45-.65-1.45-1.45V2.12c0-.89.72-1.62,1.62-1.62Z"/>
  <line class="cls-1" y1="13.39" x2="13.11" y2="13.39"/>
  <path class="cls-1" d="m10.75,5.67h1.97c.61,0,1.11.5,1.11,1.11v3.26c0,.69.56,1.25,1.25,1.25h0c.69,0,1.25-.56,1.25-1.25V3.67c0-.25-.11-.49-.29-.66l-2.17-1.95"/>
  <g>
    <path class="cls-1" d="m7.29,6.18h-1.52c-.28,0-.43-.33-.24-.54l2.35-2.65"/>
    <path class="cls-1" d="m7.29,6.18c.28,0,.43.33.24.54l-2.35,2.65"/>
  </g>
</svg>