<?xml version="1.0" encoding="UTF-8"?>
<svg id="Layer_1" data-name="Layer 1" xmlns="http://www.w3.org/2000/svg" viewBox="0 0 16.14 18">
  <defs>
    <style>
      .cls-1 {
        fill: none;
        stroke: #000;
        stroke-miterlimit: 10;
      }
    </style>
  </defs>
  <g>
    <path class="cls-1" d="m4.06,12.03h0c-1.17-.34-1.86-1.56-1.53-2.73.96-3.37,2.56-6.67,3-7.54.07-.13.21-.19.36-.15l2.15.62c.14.04.23.17.22.32-.09.97-.48,4.61-1.45,7.98-.34,1.17-1.57,1.84-2.74,1.5Z"/>
    <line class="cls-1" x1="4.2" y1="4.87" x2="7.74" y2="5.89"/>
    <line class="cls-1" x1="4.06" y1="12.03" x2="3.23" y2="14.93"/>
    <line class="cls-1" x1=".98" y1="14.29" x2="5.48" y2="15.57"/>
  </g>
  <g>
    <path class="cls-1" d="m11.41,14.14h0c-1.2.21-2.36-.59-2.56-1.79-.6-3.45-.6-7.12-.58-8.09,0-.15.11-.27.25-.29l2.2-.38c.14-.03.29.05.34.19.34.91,1.57,4.36,2.17,7.82.21,1.2-.61,2.34-1.82,2.55Z"/>
    <line class="cls-1" x1="8.41" y1="7.63" x2="12.05" y2="7.01"/>
    <line class="cls-1" x1="11.41" y1="14.14" x2="11.92" y2="17.11"/>
    <line class="cls-1" x1="9.62" y1="17.51" x2="14.22" y2="16.71"/>
  </g>
  <line class="cls-1" x1=".98" y1=".41" x2="3.23" y2="2.27"/>
  <line class="cls-1" x1=".07" y1="4.68" x2="2.31" y2="4.38"/>
  <line class="cls-1" x1="16.09" y1="3.97" x2="13.19" y2="4.24"/>
  <line class="cls-1" x1="13.73" y1=".3" x2="12.36" y2="2.1"/>
</svg>