<?xml version="1.0" encoding="UTF-8"?>
<svg id="Layer_1" data-name="Layer 1" xmlns="http://www.w3.org/2000/svg" viewBox="0 0 15.83 13.73">
  <defs>
    <style>
      .cls-1 {
        fill: none;
        stroke: #000;
        stroke-miterlimit: 10;
      }
    </style>
  </defs>
  <path class="cls-1" d="m7.66,6.55h7.07c.33,0,.6.27.6.6v1.68c0,.33-.27.6-.6.6h-4.21"/>
  <path class="cls-1" d="m7.22,9.42H1.1c-.33,0-.6-.27-.6-.6v-1.68c0-.33.27-.6.6-.6h3.73"/>
  <line class="cls-1" x1="12" y1="6.55" x2="12" y2="9.42"/>
  <path class="cls-1" d="m8.42,0v1.77c0,.63.51,1.15,1.15,1.15h1.17c.63,0,1.15.51,1.15,1.15v1.1"/>
  <path class="cls-1" d="m11.41.6h.94c1.64,0,2.98,1.33,2.98,2.98v1.72"/>
  <line class="cls-1" x1="1.51" y1=".4" x2="14.48" y2="13.37"/>
</svg>