<?xml version="1.0" encoding="UTF-8"?>
<svg id="Layer_1" data-name="Layer 1" xmlns="http://www.w3.org/2000/svg" viewBox="0 0 18.14 17.23">
  <defs>
    <style>
      .cls-1 {
        fill: none;
        stroke: #000;
        stroke-miterlimit: 10;
      }
    </style>
  </defs>
  <path class="cls-1" d="m3.32,11.82c-.26-.15-.5-.31-.73-.5-1.28-1.03-2.09-2.65-2.09-4.75C.5,2.71,3.22.5,6.57.5c2.86,0,5.26,1.97,5.91,4.63.41-.14.84-.22,1.29-.22,2.14,0,3.87,1.73,3.87,3.86s-1.73,3.87-3.87,3.87"/>
  <line class="cls-1" x1="5.8" y1="7.46" x2="5.8" y2="10.72"/>
  <line class="cls-1" x1="5.8" y1="7.46" x2="5.8" y2="15.76"/>
  <line class="cls-1" x1="11.75" y1="7.46" x2="11.75" y2="10.72"/>
  <line class="cls-1" x1="11.75" y1="7.46" x2="11.75" y2="15.76"/>
  <line class="cls-1" x1="8.81" y1="8.94" x2="8.81" y2="12.19"/>
  <line class="cls-1" x1="8.81" y1="8.94" x2="8.81" y2="17.23"/>
</svg>