<?xml version="1.0" encoding="UTF-8"?>
<svg id="Layer_1" data-name="Layer 1" xmlns="http://www.w3.org/2000/svg" viewBox="0 0 18.14 16.18">
  <defs>
    <style>
      .cls-1, .cls-2 {
        stroke: #000;
        stroke-miterlimit: 10;
      }

      .cls-2 {
        fill: none;
      }
    </style>
  </defs>
  <path class="cls-2" d="m3.32,11.82c-.26-.15-.5-.31-.73-.5-1.28-1.03-2.09-2.65-2.09-4.75C.5,2.71,3.22.5,6.57.5c2.86,0,5.26,1.97,5.91,4.63.41-.14.84-.22,1.29-.22,2.14,0,3.87,1.73,3.87,3.86s-1.73,3.87-3.87,3.87"/>
  <circle class="cls-1" cx="5.8" cy="14.32" r=".21"/>
  <circle class="cls-1" cx="5.8" cy="11.3" r=".21"/>
  <circle class="cls-1" cx="5.8" cy="8.28" r=".21"/>
  <circle class="cls-1" cx="11.75" cy="14.32" r=".21"/>
  <circle class="cls-1" cx="11.75" cy="11.3" r=".21"/>
  <circle class="cls-1" cx="11.75" cy="8.28" r=".21"/>
  <circle class="cls-1" cx="8.81" cy="15.47" r=".21"/>
  <circle class="cls-1" cx="8.81" cy="12.45" r=".21"/>
  <circle class="cls-1" cx="8.81" cy="9.43" r=".21"/>
</svg>