<?xml version="1.0" encoding="UTF-8"?>
<svg id="Layer_1" data-name="Layer 1" xmlns="http://www.w3.org/2000/svg" viewBox="0 0 18.14 17.17">
  <defs>
    <style>
      .cls-1 {
        fill: none;
        stroke: #000;
        stroke-miterlimit: 10;
      }
    </style>
  </defs>
  <path class="cls-1" d="m3.32,11.82c-.26-.15-.5-.31-.73-.5-1.28-1.03-2.09-2.65-2.09-4.75C.5,2.71,3.22.5,6.57.5c2.86,0,5.26,1.97,5.91,4.63.41-.14.84-.22,1.29-.22,2.14,0,3.87,1.73,3.87,3.86,0,2.14-1.73,3.87-3.87,3.87"/>
  <path class="cls-1" d="m8.97,7.46l-3.13,4.38c-.1.14,0,.33.17.33h4.87c.17,0,.27.19.17.33l-3.13,4.38"/>
</svg>