<?xml version="1.0" encoding="UTF-8"?>
<svg id="Layer_1" data-name="Layer 1" xmlns="http://www.w3.org/2000/svg" viewBox="0 0 18.74 15.82">
  <defs>
    <style>
      .cls-1 {
        fill: none;
        stroke: #000;
        stroke-miterlimit: 10;
      }
    </style>
  </defs>
  <path class="cls-1" d="m17.64,11.45c0,2.14-1.73,3.87-3.87,3.87h-7.2c-3.35,0-6.07-2.21-6.07-6.07S3.22,3.18,6.57,3.18c2.86,0,5.26,1.97,5.91,4.63.41-.14.84-.22,1.29-.22,2.14,0,3.87,1.73,3.87,3.86Z"/>
  <path class="cls-1" d="m11,2.61c.63-1.24,1.93-2.11,3.43-2.11.09,0,.15.12.08.19-.61.61-.92,1.54-.63,2.52.24.83.93,1.47,1.77,1.68.93.23,1.81-.08,2.39-.67.07-.07.19-.01.19.08h0c0,1.01-.39,1.94-1.04,2.62"/>
</svg>