<?xml version="1.0" encoding="UTF-8"?>
<svg id="Layer_1" data-name="Layer 1" xmlns="http://www.w3.org/2000/svg" viewBox="0 0 14.56 13.64">
  <defs>
    <style>
      .cls-1 {
        fill: none;
        stroke: #000;
        stroke-miterlimit: 10;
      }
    </style>
  </defs>
  <path class="cls-1" d="m14.06,4.98v3.68c0,.21-.12.4-.32.53l-5.93,3.79c-.31.2-.76.2-1.07,0L.82,9.19c-.2-.13-.32-.33-.32-.53v-3.68c0-.21.12-.4.32-.53L6.75.65c.31-.2.76-.2,1.07,0l5.93,3.79c.2.13.32.33.32.53Z"/>
  <polyline class="cls-1" points=".5 4.65 7.28 8.99 14.06 4.65"/>
  <line class="cls-1" x1="7.28" y1="8.99" x2="7.28" y2="13.33"/>
  <line class="cls-1" x1="7.28" y1=".5" x2="7.28" y2="4.84"/>
  <polyline class="cls-1" points="14.06 8.99 7.28 4.84 .5 8.99"/>
</svg>