<?xml version="1.0" encoding="UTF-8"?>
<svg id="Layer_1" data-name="Layer 1" xmlns="http://www.w3.org/2000/svg" viewBox="0 0 17.03 15.96">
  <defs>
    <style>
      .cls-1 {
        stroke-linejoin: round;
      }

      .cls-1, .cls-2 {
        fill: none;
        stroke: #000;
      }

      .cls-2 {
        stroke-miterlimit: 10;
      }
    </style>
  </defs>
  <g>
    <path class="cls-2" d="m12.44,5.59l-3.34-1.93c-.17-.09-.38-.09-.54,0l-3.34,1.93c-.17.09-.27.28-.27.47v3.86c0,.19.1.37.27.47l3.34,1.93c.17.09.38.09.54,0l3.34-1.93c.17-.09.27-.28.27-.47v-3.86c0-.19-.1-.37-.27-.47h0Z"/>
    <polyline class="cls-2" points="4.95 5.74 8.83 7.98 12.71 5.74"/>
    <line class="cls-2" x1="8.83" y1="7.98" x2="8.83" y2="12.46"/>
  </g>
  <path class="cls-1" d="m.5,5.16v-2.24C.5,1.58,1.58.5,2.91.5h2.05"/>
  <path class="cls-1" d="m11.87.6h2.24c1.34,0,2.42,1.08,2.42,2.41v2.05"/>
  <path class="cls-1" d="m16.53,10.8v2.24c0,1.34-1.08,2.42-2.41,2.42h-2.05"/>
  <path class="cls-1" d="m5.16,15.36h-2.24c-1.34,0-2.42-1.08-2.42-2.41v-2.05"/>
</svg>