<?xml version="1.0" encoding="UTF-8"?>
<svg id="Layer_1" data-name="Layer 1" xmlns="http://www.w3.org/2000/svg" viewBox="0 0 16.32 18.66">
  <defs>
    <style>
      .cls-1 {
        fill: none;
        stroke: #000;
        stroke-miterlimit: 10;
      }
    </style>
  </defs>
  <g>
    <path class="cls-1" d="m10.29,10.41h-5.91c.95,0,1.72-.77,1.72-1.72v-3.01c0-1.16.94-2.1,2.1-2.1h0c.58,0,1.1.23,1.48.62"/>
    <line class="cls-1" x1="4.38" y1="7.33" x2="8.29" y2="7.33"/>
  </g>
  <path class="cls-1" d="m.76,9.19c-.17-.59-.26-1.21-.26-1.86C.5,3.56,3.56.5,7.34.5s6.83,3.06,6.83,6.83c0,1.66-.6,3.19-1.58,4.37"/>
  <g>
    <path class="cls-1" d="m1.47,11.21l5.39,5.39c.16.16.41.16.56,0l3.14-3.14c.16-.16.41-.16.56,0l4.69,4.69"/>
    <polyline class="cls-1" points="15.82 14.18 15.82 18.16 11.85 18.16"/>
  </g>
</svg>