<?xml version="1.0" encoding="UTF-8"?>
<svg id="Layer_1" data-name="Layer 1" xmlns="http://www.w3.org/2000/svg" viewBox="0 0 18.39 18.49">
  <defs>
    <style>
      .cls-1 {
        fill: none;
        stroke: #000;
        stroke-miterlimit: 10;
      }

      .cls-2 {
        opacity: .49;
      }
    </style>
  </defs>
  <path class="cls-1" d="m13.91,9.19c.17-.59.26-1.21.26-1.86,0-3.77-3.06-6.83-6.83-6.83S.5,3.56.5,7.33c0,2.1.95,3.98,2.44,5.23"/>
  <g>
    <path class="cls-1" d="m17.88,11.2l-4.69,4.69c-.15.16-.4.16-.56,0l-3.14-3.14c-.15-.16-.4-.16-.56,0l-5.39,5.39"/>
    <polyline class="cls-1" points="13.92 11.19 17.89 11.19 17.89 15.17"/>
  </g>
  <g>
    <g class="cls-2">
      <line class="cls-1" x1="7.36" y1="3.29" x2="7.36" y2="4.57"/>
      <line class="cls-1" x1="7.36" y1="10.68" x2="7.36" y2="11.95"/>
    </g>
    <path class="cls-1" d="m7.17,3.55l-2.98,3.93c-.07.09-.07.21,0,.3l2.98,3.93c.1.13.29.13.39,0l3.03-3.93c.07-.09.07-.21,0-.3l-3.03-3.93c-.1-.13-.29-.13-.39,0Z"/>
    <polyline class="cls-1" points="4.07 7.62 7.38 8.29 10.7 7.62"/>
  </g>
</svg>