<?xml version="1.0" encoding="UTF-8"?>
<svg id="Layer_1" data-name="Layer 1" xmlns="http://www.w3.org/2000/svg" viewBox="0 0 16.32 18.66">
  <defs>
    <style>
      .cls-1 {
        fill: none;
        stroke: #000;
        stroke-miterlimit: 10;
      }
    </style>
  </defs>
  <path class="cls-1" d="m.76,9.19c-.17-.59-.26-1.21-.26-1.86C.5,3.56,3.56.5,7.34.5s6.83,3.06,6.83,6.83c0,1.66-.6,3.19-1.58,4.37"/>
  <g>
    <path class="cls-1" d="m1.47,11.21l5.39,5.39c.16.16.41.16.56,0l3.14-3.14c.16-.16.41-.16.56,0l4.69,4.69"/>
    <polyline class="cls-1" points="15.82 14.18 15.82 18.16 11.85 18.16"/>
  </g>
  <g>
    <line class="cls-1" x1="4.61" y1="4.33" x2="9.95" y2="4.33"/>
    <line class="cls-1" x1="10.77" y1="6.79" x2="3.77" y2="6.79"/>
    <path class="cls-1" d="m6.74,6.79c0,1.64-1.33,2.96-2.96,2.96h0"/>
    <path class="cls-1" d="m8.3,6.79v2.11c0,.47.38.85.85.85h1.45c.16,0,.29-.13.29-.29v-.69"/>
  </g>
</svg>