<?xml version="1.0" encoding="UTF-8"?>
<svg id="Layer_1" data-name="Layer 1" xmlns="http://www.w3.org/2000/svg" viewBox="0 0 16.32 18.66">
  <defs>
    <style>
      .cls-1 {
        fill: none;
        stroke: #000;
        stroke-miterlimit: 10;
      }
    </style>
  </defs>
  <path class="cls-1" d="m.76,9.19c-.17-.59-.26-1.21-.26-1.86C.5,3.56,3.56.5,7.34.5s6.83,3.06,6.83,6.83c0,1.66-.6,3.19-1.58,4.37"/>
  <g>
    <path class="cls-1" d="m1.47,11.21l5.39,5.39c.16.16.41.16.56,0l3.14-3.14c.16-.16.41-.16.56,0l4.69,4.69"/>
    <polyline class="cls-1" points="15.82 14.18 15.82 18.16 11.85 18.16"/>
  </g>
  <g>
    <polyline class="cls-1" points="4 4.02 7.34 8.05 10.66 4.02"/>
    <line class="cls-1" x1="7.34" y1="11.93" x2="7.34" y2="7.63"/>
    <line class="cls-1" x1="4.58" y1="8.05" x2="10.08" y2="8.05"/>
    <line class="cls-1" x1="4.58" y1="10.37" x2="10.08" y2="10.37"/>
  </g>
</svg>