<?xml version="1.0" encoding="UTF-8"?>
<svg id="Layer_1" data-name="Layer 1" xmlns="http://www.w3.org/2000/svg" viewBox="0 0 16.32 18.66">
  <defs>
    <style>
      .cls-1 {
        fill: none;
        stroke: #000;
        stroke-miterlimit: 10;
      }
    </style>
  </defs>
  <path class="cls-1" d="m.76,9.19c-.17-.59-.26-1.21-.26-1.86C.5,3.56,3.56.5,7.34.5s6.83,3.06,6.83,6.83c0,1.66-.6,3.19-1.58,4.37"/>
  <g>
    <path class="cls-1" d="m1.47,11.21l5.39,5.39c.16.16.41.16.56,0l3.14-3.14c.16-.16.41-.16.56,0l4.69,4.69"/>
    <polyline class="cls-1" points="15.82 14.18 15.82 18.16 11.85 18.16"/>
  </g>
  <path class="cls-1" d="m9.79,4.37h-3.16c-.63,0-1.15.52-1.15,1.15v.64c0,.63.52,1.15,1.15,1.15h2.01c.63,0,1.15.52,1.15,1.15v.64c0,.63-.52,1.15-1.15,1.15h-4"/>
  <line class="cls-1" x1="7.42" y1="2.76" x2="7.42" y2="4.37"/>
  <line class="cls-1" x1="7.42" y1="10.26" x2="7.42" y2="11.87"/>
</svg>