<?xml version="1.0" encoding="UTF-8"?>
<svg id="Layer_1" data-name="Layer 1" xmlns="http://www.w3.org/2000/svg" viewBox="0 0 16.32 18.66">
  <defs>
    <style>
      .cls-1 {
        fill: none;
        stroke: #000;
        stroke-miterlimit: 10;
      }

      .cls-2 {
        opacity: .49;
      }
    </style>
  </defs>
  <path class="cls-1" d="m.76,9.19c-.17-.59-.26-1.21-.26-1.86C.5,3.56,3.56.5,7.34.5s6.83,3.06,6.83,6.83c0,1.66-.6,3.19-1.58,4.37"/>
  <g>
    <path class="cls-1" d="m1.47,11.21l5.39,5.39c.16.16.41.16.56,0l3.14-3.14c.16-.16.41-.16.56,0l4.69,4.69"/>
    <polyline class="cls-1" points="15.82 14.18 15.82 18.16 11.85 18.16"/>
  </g>
  <g>
    <g class="cls-2">
      <line class="cls-1" x1="7.25" y1="3.35" x2="7.25" y2="4.63"/>
      <line class="cls-1" x1="7.25" y1="10.74" x2="7.25" y2="12.01"/>
    </g>
    <path class="cls-1" d="m7.06,3.61l-2.98,3.93c-.07.09-.07.21,0,.3l2.98,3.93c.1.13.29.13.39,0l3.03-3.93c.07-.09.07-.21,0-.3l-3.03-3.93c-.1-.13-.29-.13-.39,0Z"/>
    <polyline class="cls-1" points="3.96 7.68 7.27 8.35 10.59 7.68"/>
  </g>
</svg>