<?xml version="1.0" encoding="UTF-8"?>
<svg id="Layer_1" data-name="Layer 1" xmlns="http://www.w3.org/2000/svg" viewBox="0 0 18.39 18.49">
  <defs>
    <style>
      .cls-1 {
        fill: none;
        stroke: #000;
        stroke-miterlimit: 10;
      }
    </style>
  </defs>
  <path class="cls-1" d="m13.91,9.19c.17-.59.26-1.21.26-1.86,0-3.77-3.06-6.83-6.83-6.83S.5,3.56.5,7.33c0,2.1.95,3.98,2.44,5.23"/>
  <g>
    <path class="cls-1" d="m17.88,11.2l-4.69,4.69c-.15.16-.4.16-.56,0l-3.14-3.14c-.15-.16-.4-.16-.56,0l-5.39,5.39"/>
    <polyline class="cls-1" points="13.92 11.19 17.89 11.19 17.89 15.17"/>
  </g>
  <g>
    <line class="cls-1" x1="4.71" y1="4.33" x2="10.05" y2="4.33"/>
    <line class="cls-1" x1="10.87" y1="6.79" x2="3.87" y2="6.79"/>
    <path class="cls-1" d="m6.84,6.79c0,1.64-1.33,2.96-2.96,2.96h0"/>
    <path class="cls-1" d="m8.4,6.79v2.11c0,.47.38.85.85.85h1.45c.16,0,.29-.13.29-.29v-.69"/>
  </g>
</svg>