<?xml version="1.0" encoding="UTF-8"?>
<svg id="Layer_1" data-name="Layer 1" xmlns="http://www.w3.org/2000/svg" viewBox="0 0 18.39 18.49">
  <defs>
    <style>
      .cls-1 {
        fill: none;
        stroke: #000;
        stroke-miterlimit: 10;
      }
    </style>
  </defs>
  <path class="cls-1" d="m5.89,4.07h2.38c.66,0,1.2.54,1.2,1.2v.58c0,.66-.54,1.2-1.2,1.2h-2.38v-2.97h0Z"/>
  <path class="cls-1" d="m5.89,7.04h2.75c.66,0,1.2.54,1.2,1.2v.58c0,.66-.54,1.2-1.2,1.2h-2.75v-2.97h0Z"/>
  <line class="cls-1" x1="4.48" y1="4.07" x2="5.59" y2="4.07"/>
  <line class="cls-1" x1="4.48" y1="10.01" x2="5.59" y2="10.01"/>
  <line class="cls-1" x1="6.48" y1="2.49" x2="6.48" y2="4.07"/>
  <line class="cls-1" x1="6.48" y1="10.01" x2="6.48" y2="11.59"/>
  <line class="cls-1" x1="8.6" y1="2.49" x2="8.6" y2="4.07"/>
  <line class="cls-1" x1="8.6" y1="10.01" x2="8.6" y2="11.59"/>
  <path class="cls-1" d="m13.91,9.19c.17-.59.26-1.21.26-1.86,0-3.77-3.06-6.83-6.83-6.83S.5,3.56.5,7.33c0,2.1.95,3.98,2.44,5.23"/>
  <g>
    <path class="cls-1" d="m17.88,11.2l-4.69,4.69c-.15.16-.4.16-.56,0l-3.14-3.14c-.15-.16-.4-.16-.56,0l-5.39,5.39"/>
    <polyline class="cls-1" points="13.92 11.19 17.89 11.19 17.89 15.17"/>
  </g>
</svg>