<?xml version="1.0" encoding="UTF-8"?>
<svg id="Layer_1" data-name="Layer 1" xmlns="http://www.w3.org/2000/svg" viewBox="0 0 16.32 18.66">
  <defs>
    <style>
      .cls-1 {
        fill: none;
        stroke: #000;
        stroke-miterlimit: 10;
      }
    </style>
  </defs>
  <path class="cls-1" d="m.76,9.19c-.17-.59-.26-1.21-.26-1.86C.5,3.56,3.56.5,7.34.5s6.83,3.06,6.83,6.83c0,1.66-.6,3.19-1.58,4.37"/>
  <g>
    <path class="cls-1" d="m1.47,11.21l5.39,5.39c.16.16.41.16.56,0l3.14-3.14c.16-.16.41-.16.56,0l4.69,4.69"/>
    <polyline class="cls-1" points="15.82 14.18 15.82 18.16 11.85 18.16"/>
  </g>
  <path class="cls-1" d="m10.13,10.14c-.45.67-1.17,1.07-2.26,1.07-2.22,0-2.9-1.7-2.9-3.79s.67-3.79,2.9-3.79c1.07,0,1.79.39,2.23,1.03"/>
  <line class="cls-1" x1="3.28" y1="6.15" x2="7.39" y2="6.15"/>
  <line class="cls-1" x1="3.28" y1="8.71" x2="7.39" y2="8.71"/>
</svg>