<?xml version="1.0" encoding="UTF-8"?>
<svg id="Layer_1" data-name="Layer 1" xmlns="http://www.w3.org/2000/svg" viewBox="0 0 16.32 18.66">
  <defs>
    <style>
      .cls-1 {
        fill: none;
        stroke: #000;
        stroke-miterlimit: 10;
      }
    </style>
  </defs>
  <path class="cls-1" d="m.76,9.19c-.17-.59-.26-1.21-.26-1.86C.5,3.56,3.56.5,7.34.5s6.83,3.06,6.83,6.83c0,1.66-.6,3.19-1.58,4.37"/>
  <g>
    <path class="cls-1" d="m1.47,11.21l5.39,5.39c.16.16.41.16.56,0l3.14-3.14c.16-.16.41-.16.56,0l4.69,4.69"/>
    <polyline class="cls-1" points="15.82 14.18 15.82 18.16 11.85 18.16"/>
  </g>
  <g>
    <path class="cls-1" d="m10.76,4.43h-6.39,3.21c.85,0,1.55.75,1.55,1.61v1.36c0,.85-.69,1.55-1.55,1.55h-2.17c-.14,0-.21.17-.11.27l3.23,3.32"/>
    <line class="cls-1" x1="4.35" y1="6.72" x2="10.74" y2="6.72"/>
  </g>
</svg>