<?xml version="1.0" encoding="UTF-8"?><svg id="uuid-06d30694-2e13-4f0f-b81f-9d59fa357ecd" xmlns="http://www.w3.org/2000/svg" width="15.94" height="16.05" viewBox="0 0 15.94 16.05"><polyline points="11.38 8.48 7.97 11.9 4.55 8.48" fill="none" stroke="#000" stroke-miterlimit="10"/><line x1="7.97" y1="11.9" x2="7.97" fill="none" stroke="#000" stroke-miterlimit="10"/><path d="m10.87,5.37h.49c.75,0,1.47.23,2.08.66h0c.87.61,1.43,1.56,1.54,2.62l.38,3.77c.4,2.62-.83,3.14-1.98,3.14,0,0-5.42,0-5.42,0H2.55c-1.15,0-2.37-.52-1.98-3.14l.38-3.77c.11-1.06.67-2.01,1.54-2.62h0c.61-.43,1.34-.66,2.08-.66h.49" fill="none" stroke="#000" stroke-miterlimit="10"/></svg>