<?xml version="1.0" encoding="UTF-8"?>
<svg id="Layer_1" data-name="Layer 1" xmlns="http://www.w3.org/2000/svg" viewBox="0 0 16.55 16.55">
  <defs>
    <style>
      .cls-1 {
        fill: none;
        stroke: #000;
        stroke-miterlimit: 10;
      }
    </style>
  </defs>
  <rect class="cls-1" x="6.15" y="6.15" width="4.25" height="4.25" rx=".35" ry=".35"/>
  <line class="cls-1" x1="3.38" y1="3.38" x2="6.15" y2="6.15"/>
  <path class="cls-1" d="m6.94,3.48c-.12-1.66-1.49-2.98-3.19-2.98S.55,1.94.55,3.71s1.3,3.05,2.95,3.18"/>
  <line class="cls-1" x1="13.17" y1="3.38" x2="10.4" y2="6.15"/>
  <path class="cls-1" d="m13.07,6.94c1.66-.12,2.98-1.49,2.98-3.19s-1.44-3.21-3.21-3.21-3.05,1.3-3.18,2.95"/>
  <line class="cls-1" x1="13.16" y1="13.17" x2="10.39" y2="10.4"/>
  <path class="cls-1" d="m9.6,13.06c.12,1.66,1.49,2.98,3.19,2.98s3.21-1.44,3.21-3.21-1.3-3.05-2.95-3.18"/>
  <line class="cls-1" x1="3.38" y1="13.17" x2="6.15" y2="10.4"/>
  <path class="cls-1" d="m3.48,9.61c-1.66.12-2.98,1.49-2.98,3.19s1.44,3.21,3.21,3.21,3.05-1.3,3.18-2.95"/>
</svg>