<?xml version="1.0" encoding="UTF-8"?>
<svg id="Layer_1" data-name="Layer 1" xmlns="http://www.w3.org/2000/svg" viewBox="0 0 17.38 18.92">
  <defs>
    <style>
      .cls-1 {
        fill: none;
        stroke: #000;
        stroke-miterlimit: 10;
      }
    </style>
  </defs>
  <g>
    <path class="cls-1" d="m2.46,14.01C-.29,10.79-.15,5.94,2.9,2.9,6.1-.3,11.29-.3,14.48,2.9s3.19,7.89.44,11.11"/>
    <circle class="cls-1" cx="8.28" cy="5.36" r=".32"/>
    <circle class="cls-1" cx="12.17" cy="9.26" r=".32"/>
  </g>
  <path class="cls-1" d="m5.98,18.42c-.85,0-1.54-.69-1.54-1.54h0c0-.85.69-1.54,1.54-1.54h5.42c.6,0,1.09-.49,1.09-1.09h0c0-.6-.49-1.09-1.09-1.09h-2.21c-.98-.02-2.39-.28-3.54-1.46-1.96-1.99-1.29-4.66-1.25-4.77"/>
</svg>