<?xml version="1.0" encoding="UTF-8"?>
<svg id="Layer_1" data-name="Layer 1" xmlns="http://www.w3.org/2000/svg" viewBox="0 0 17.78 13.67">
  <defs>
    <style>
      .cls-1 {
        fill: none;
        stroke: #000;
        stroke-miterlimit: 10;
      }
    </style>
  </defs>
  <path class="cls-1" d="m3.23,3.13c-1.12.89-2.04,2.04-2.65,3.38-.1.22-.1.49,0,.71,1.49,3.23,4.73,5.32,8.3,5.32,1.08,0,2.12-.19,3.1-.54"/>
  <path class="cls-1" d="m13.41,11.34c1.64-.94,2.98-2.37,3.79-4.15.1-.22.1-.49,0-.71-1.49-3.23-4.73-5.32-8.3-5.32-1.61,0-3.15.42-4.49,1.18"/>
  <path class="cls-1" d="m9.27,9.27c-.12.02-.24.03-.36.03-1.36,0-2.46-1.1-2.46-2.46,0-.12,0-.24.03-.36"/>
  <path class="cls-1" d="m7.17,5.1c.44-.44,1.06-.72,1.74-.72,1.36,0,2.46,1.1,2.46,2.46,0,.68-.27,1.29-.72,1.74"/>
  <line class="cls-1" x1="2.42" y1=".35" x2="15.39" y2="13.32"/>
</svg>