<?xml version="1.0" encoding="UTF-8"?>
<svg id="Layer_1" data-name="Layer 1" xmlns="http://www.w3.org/2000/svg" viewBox="0 0 16 14.34">
  <defs>
    <style>
      .cls-1 {
        fill: none;
        stroke: #000;
      }
    </style>
  </defs>
  <path class="cls-1" d="m1.83.59l-1.2,1.74c-.09.12-.13.27-.13.42v10.66c0,.24.2.44.44.44h2.13c.24,0,.44-.2.44-.44V2.75c0-.15-.05-.3-.13-.42l-1.2-1.74c-.08-.12-.25-.12-.34,0Z"/>
  <path class="cls-1" d="m3.5,4.76h3"/>
  <path class="cls-1" d="m3.5,10.93h3"/>
  <path class="cls-1" d="m7.83.59l-1.2,1.74c-.09.12-.13.27-.13.42v10.66c0,.24.2.44.44.44h2.13c.24,0,.44-.2.44-.44V2.75c0-.15-.05-.3-.13-.42l-1.2-1.74c-.08-.12-.25-.12-.34,0Z"/>
  <path class="cls-1" d="m9.5,4.76h3"/>
  <path class="cls-1" d="m9.5,10.93h3"/>
  <path class="cls-1" d="m13.83.59l-1.2,1.74c-.09.12-.13.27-.13.42v10.66c0,.24.2.44.44.44h2.13c.24,0,.44-.2.44-.44V2.75c0-.15-.05-.3-.13-.42l-1.2-1.74c-.08-.12-.25-.12-.34,0Z"/>
</svg>