<?xml version="1.0" encoding="UTF-8"?>
<svg id="Layer_1" data-name="Layer 1" xmlns="http://www.w3.org/2000/svg" viewBox="0 0 16.37 14.48">
  <defs>
    <style>
      .cls-1 {
        fill: none;
        stroke: #000;
        stroke-miterlimit: 10;
      }
    </style>
  </defs>
  <g>
    <path class="cls-1" d="m14.33,7.91v-2.66c0-.07-.03-.14-.08-.19L9.78.58s-.12-.08-.19-.08H3.31c-.63,0-1.14.51-1.14,1.14v6.27"/>
    <polyline class="cls-1" points="9.54 .5 9.54 5.14 14.34 5.14"/>
  </g>
  <g>
    <path class="cls-1" d="m.5,14.38v-4.8s.03-.07.07-.07h2.28c.76,0,1.37.61,1.37,1.37h0c0,.76-.61,1.37-1.37,1.37H.5"/>
    <path class="cls-1" d="m15.99,9.92c-.39-.4-.96-.64-1.68-.64-1.51,0-2.32,1.04-2.32,2.32s.81,2.32,2.32,2.32c.66,0,1.18-.2,1.57-.53v-1.49c0-.13-.1-.23-.23-.23h-1.23"/>
    <path class="cls-1" d="m9.8,8.98v4.76c0,.25-.33.33-.45.12l-1.25-2.29h0l-1.25-2.29c-.12-.22-.45-.13-.45.12v4.76"/>
  </g>
</svg>