<?xml version="1.0" encoding="UTF-8"?>
<svg id="Layer_1" data-name="Layer 1" xmlns="http://www.w3.org/2000/svg" viewBox="0 0 15.99 14.39">
  <defs>
    <style>
      .cls-1 {
        fill: none;
        stroke: #000;
        stroke-miterlimit: 10;
      }
    </style>
  </defs>
  <g>
    <path class="cls-1" d="m13.82,7.91v-2.66c0-.07-.03-.14-.08-.19L9.27.58s-.12-.08-.19-.08H2.8c-.63,0-1.14.51-1.14,1.14v6.27"/>
    <polyline class="cls-1" points="9.03 .5 9.03 5.14 13.83 5.14"/>
  </g>
  <path class="cls-1" d="m.5,14.38v-4.8s.03-.07.07-.07h2.28c.76,0,1.37.61,1.37,1.37h0c0,.76-.61,1.37-1.37,1.37H.5"/>
  <path class="cls-1" d="m7.8,13.89h-1.09c-.07,0-.12-.06-.12-.12v-4.13c0-.07.06-.12.12-.12h1.09c1.21,0,2.19.98,2.19,2.19h0c0,1.21-.64,2.19-2.19,2.19Z"/>
  <g>
    <path class="cls-1" d="m12.39,14.39v-4.64c0-.13.11-.24.24-.24h3.35"/>
    <line class="cls-1" x1="15.35" y1="11.84" x2="12.39" y2="11.84"/>
  </g>
</svg>