<?xml version="1.0" encoding="UTF-8"?><svg id="uuid-27e9b93e-cb41-4ca0-ada6-538585ca2374" xmlns="http://www.w3.org/2000/svg" width="16.97" height="16.97" viewBox="0 0 16.97 16.97"><path d="m14.55,1c.78,0,1.42.64,1.42,1.42v12.14c0,.78-.64,1.42-1.42,1.42H2.42c-.78,0-1.42-.64-1.42-1.42V2.42c0-.78.64-1.42,1.42-1.42h12.14m0-1H2.42C1.08,0,0,1.08,0,2.42v12.14c0,1.33,1.08,2.42,2.42,2.42h12.14c1.33,0,2.42-1.08,2.42-2.42V2.42c0-1.33-1.08-2.42-2.42-2.42h0Z" stroke-width="0"/><circle cx="4.31" cy="6.5" r=".55" stroke="#000" stroke-miterlimit="10"/><circle cx="12.43" cy="6.5" r=".55" stroke="#000" stroke-miterlimit="10"/><path d="m12.66,11.43c-.97,1.13-2.42,1.91-4.18,1.91h0c-2.04,0-3.2-.78-4.18-1.91" fill="none" stroke="#000" stroke-linejoin="round"/><path d="m9.91.63s-2.78,3.77-2.78,9.16h3.73" fill="none" stroke="#000" stroke-linejoin="round"/></svg>