<?xml version="1.0" encoding="UTF-8"?>
<svg id="Layer_1" data-name="Layer 1" xmlns="http://www.w3.org/2000/svg" viewBox="0 0 17.81 17.14">
  <defs>
    <style>
      .cls-1 {
        fill: none;
        stroke: #000;
        stroke-miterlimit: 10;
      }
    </style>
  </defs>
  <line class="cls-1" x1="8.97" y1="9.34" x2="8.97" y2="1.14"/>
  <path class="cls-1" d="m3.35,3.74c.86.45,2.06,1.2,3.25,2.4,1.12,1.13,1.83,2.27,2.26,3.11"/>
  <path class="cls-1" d="m8.86,9.25c-1.17-.35-2.98-.72-5.18-.54-1.42.12-2.61.44-3.51.75"/>
  <path class="cls-1" d="m3.49,14.21c.3-.69.88-1.79,1.97-2.84,1.33-1.27,2.74-1.8,3.5-2.03"/>
  <path class="cls-1" d="m14.46,3.74c-.86.45-2.06,1.2-3.25,2.4-1.12,1.13-1.83,2.27-2.26,3.11"/>
  <path class="cls-1" d="m8.96,9.25c1.17-.35,2.98-.72,5.18-.54,1.42.12,2.61.44,3.51.75"/>
  <path class="cls-1" d="m14.32,14.21c-.3-.69-.88-1.79-1.97-2.84-1.33-1.27-2.74-1.8-3.5-2.03"/>
  <line class="cls-1" x1="6.83" y1="15.01" x2="11.1" y2="15.01"/>
  <line class="cls-1" x1="8.96" y1="12.88" x2="8.96" y2="17.14"/>
  <circle class="cls-1" cx="13.34" cy=".54" r=".04"/>
  <circle class="cls-1" cx=".75" cy="5.53" r=".04"/>
  <circle class="cls-1" cx="16.08" cy="11.95" r=".04"/>
</svg>