<?xml version="1.0" encoding="UTF-8"?>
<svg id="Layer_1" data-name="Layer 1" xmlns="http://www.w3.org/2000/svg" viewBox="0 0 16.85 16.85">
  <defs>
    <style>
      .cls-1 {
        fill: none;
        stroke: #000;
        stroke-miterlimit: 10;
      }
    </style>
  </defs>
  <path class="cls-1" d="m15.12,4.17c.86,4.03-1.11,7.23-3.29,7.63-1.33.24-3.04-.49-3.88-1.76-1.2-1.81-.22-4.09-.79-4.27-.48-.15-1.58,1.3-2.07,2.86-.44,1.4-.29,2.33-.56,2.37-.38.07-1.28-1.63-1.5-3.58-.27-2.44.58-4.81.19-4.93,0,0,0,0,0,0,0,0-.02,0-.04,0-.02,0-2.67,1.54-2.67,5.93s2.97,7.92,7.92,7.92c4.38,0,7.92-3.55,7.92-7.92S12.77.5,8.42.5"/>
  <path class="cls-1" d="m8.42.5c-1.25,0-2.43.29-3.48.81"/>
</svg>