<?xml version="1.0" encoding="UTF-8"?>
<svg id="Layer_1" data-name="Layer 1" xmlns="http://www.w3.org/2000/svg" viewBox="0 0 17 17">
  <defs>
    <style>
      .cls-1 {
        fill: none;
        stroke: #000;
        stroke-miterlimit: 10;
      }
    </style>
  </defs>
  <path class="cls-1" d="m15.83,5.84h-3.99c-.37,0-.67-.3-.67-.67V1.17c0-.37-.3-.67-.67-.67h-3.98c-.37,0-.67.3-.67.67v3.99c0,.37-.3.67-.67.67H1.17c-.37,0-.67.3-.67.67v3.98c0,.37.3.67.67.67h3.99c.37,0,.67.3.67.67v3.99c0,.37.3.67.67.67h3.98c.37,0,.67-.3.67-.67v-3.99c0-.37.3-.67.67-.67h3.99c.37,0,.67-.3.67-.67v-3.98c0-.37-.3-.67-.67-.67Z"/>
</svg>