<?xml version="1.0" encoding="UTF-8"?>
<svg id="Layer_1" data-name="Layer 1" xmlns="http://www.w3.org/2000/svg" viewBox="0 0 16.05 9.31">
  <defs>
    <style>
      .cls-1 {
        fill: none;
        stroke: #000;
        stroke-miterlimit: 10;
      }
    </style>
  </defs>
  <path class="cls-1" d="m9.15.5c-2.02-.01-3.92.84-5.27,2.27-.18.19-.47.22-.67.06L1.04,1.09c-.22-.17-.54-.02-.54.26v6.62c0,.28.32.43.54.26l2.17-1.73c.2-.16.49-.13.67.06,1.33,1.4,3.19,2.25,5.18,2.26,2.69.02,5.17-1.48,6.42-3.84.1-.19.1-.43,0-.62-1.24-2.34-3.67-3.83-6.33-3.84Z"/>
  <circle class="cls-1" cx="11" cy="4.16" r=".07"/>
</svg>