<?xml version="1.0" encoding="UTF-8"?>
<svg id="Layer_1" data-name="Layer 1" xmlns="http://www.w3.org/2000/svg" viewBox="0 0 13.96 17.37">
  <defs>
    <style>
      .cls-1 {
        fill: none;
        stroke: #000;
        stroke-miterlimit: 10;
      }
    </style>
  </defs>
  <path class="cls-1" d="m6.98,9.24v3.68h-.37c-3.37,0-6.11-2.74-6.11-6.12v-3.68c0-.1.08-.18.18-.18,1.11,0,2.15.28,3.06.79.51.28.99.64,1.4,1.05,1.05,1.05,1.72,2.46,1.82,4.04.02.14.02.28.02.42Z"/>
  <path class="cls-1" d="m13.46,3.12v3.68c0,3.38-2.74,6.12-6.11,6.12h-.37v-3.68c0-.14,0-.28.02-.42.1-1.58.77-2.99,1.82-4.04.41-.41.89-.77,1.4-1.05.91-.51,1.95-.79,3.06-.79.1,0,.18.08.18.18Z"/>
  <path class="cls-1" d="m10.22,3.73c-.51.28-.99.64-1.4,1.05-1.05,1.05-1.72,2.46-1.82,4.04h-.04c-.1-1.58-.77-2.99-1.82-4.04-.41-.41-.89-.77-1.4-1.05,1.03-1.54,2.25-2.61,2.86-3.09.22-.18.54-.18.76,0,.61.48,1.83,1.55,2.86,3.09Z"/>
  <path class="cls-1" d="m11.4,14.9l-4.26,1.94c-.1.05-.22.05-.32,0l-4.26-1.94"/>
  <line class="cls-1" x1="6.98" y1="12.92" x2="6.98" y2="16.87"/>
</svg>