<?xml version="1.0" encoding="UTF-8"?>
<svg id="Layer_1" data-name="Layer 1" xmlns="http://www.w3.org/2000/svg" viewBox="0 0 19.47 14.33">
  <defs>
    <style>
      .cls-1 {
        fill: none;
        stroke: #000;
        stroke-miterlimit: 10;
      }
    </style>
  </defs>
  <path class="cls-1" d="m6.95,9.21c-.25-.75-.4-1.59-.39-2.53.01-.97.19-1.83.46-2.59h0c-1.24-1.11-2.52-1.63-3.26-1.87-.33-.11-.65.08-.73.42-.21.97-.42,2.97.48,5.19.14.37.32.74.54,1.12,1.9,3.31,5.02,4.15,5.61,4.28.02,0,.03-.02.01-.03-.39-.31-2-1.69-2.74-4Z"/>
  <path class="cls-1" d="m16.45,2.64c-.07-.34-.39-.53-.72-.42-.73.23-2.02.75-3.27,1.86h0c.27.77.45,1.63.46,2.6.01.94-.14,1.78-.39,2.53-.75,2.31-2.36,3.69-2.75,4-.01.01,0,.03.01.03.6-.13,3.72-.97,5.61-4.28.22-.38.4-.76.55-1.13.91-2.23.68-4.22.48-5.19Z"/>
  <path class="cls-1" d="m12.93,6.67c.01.94-.14,1.78-.39,2.53-.79,2.44-2.55,3.85-2.8,4.04-.25-.19-2.01-1.6-2.79-4.04-.25-.75-.4-1.59-.39-2.53.01-.97.19-1.83.46-2.59h0c.6-1.66,1.62-2.81,2.24-3.39.28-.26.69-.26.96,0,.62.58,1.64,1.73,2.25,3.38h0c.27.77.45,1.63.46,2.6Z"/>
  <path class="cls-1" d="m15.57,12.6c2.2-1.25,3.08-3.16,3.38-4.05.09-.27-.05-.53-.33-.59-.55-.13-1.5-.28-2.65-.13-.15.37-.33.75-.55,1.13-1.98,3.46-5.31,4.22-5.68,4.29-.37-.07-3.69-.83-5.68-4.29-.22-.38-.4-.75-.54-1.12-1.16-.16-2.11-.01-2.66.12-.28.06-.42.32-.33.59.31.89,1.18,2.8,3.39,4.05,1.13.5,3.18,1.23,5.83,1.23,2.65,0,4.7-.73,5.82-1.23Z"/>
</svg>