<?xml version="1.0" encoding="UTF-8"?>
<svg id="Layer_1" data-name="Layer 1" xmlns="http://www.w3.org/2000/svg" viewBox="0 0 17.34 19.02">
  <defs>
    <style>
      .cls-1 {
        fill: none;
        stroke: #000;
        stroke-miterlimit: 10;
      }
    </style>
  </defs>
  <path class="cls-1" d="m11.42,9.47v.08c-.01.79-.36,1.56-1.02,2.09-.1.08-.21.16-.32.22-.02.02-.05.03-.07.05-.84.47-1.86.46-2.68,0-.03-.02-.05-.03-.08-.04-.26-.17-.5-.38-.71-.63-.4-.5-.6-1.09-.61-1.69v-.08c.01-.78.36-1.55,1.01-2.09.1-.08.21-.16.32-.22.02-.02.05-.03.07-.05.84-.46,1.85-.45,2.67.01.03.01.05.02.08.04.27.16.51.37.72.62.41.5.61,1.09.62,1.69Z"/>
  <path class="cls-1" d="m11.41,3.25c0,.74-.29,1.87-.77,2.85-.12.24-.25.47-.39.68-.08.12-.16.24-.25.34-.82-.46-1.83-.47-2.67-.01-.08-.1-.16-.21-.23-.33-.15-.21-.28-.44-.4-.68-.47-.98-.77-2.11-.77-2.85,0-1.52,1.23-2.75,2.74-2.75s2.74,1.23,2.74,2.75Z"/>
  <path class="cls-1" d="m7.26,7.16c-.11.06-.22.14-.32.22-.65.54-1,1.31-1.01,2.09-.13.02-.27.03-.41.04-.19.01-.38.01-.58,0-1.14-.03-2.38-.37-3.06-.76-1.32-.75-1.77-2.43-1.01-3.74s2.44-1.76,3.75-1.01c.64.37,1.48,1.2,2.08,2.1.12.24.25.47.4.68.06.13.12.26.16.38Z"/>
  <path class="cls-1" d="m7.25,11.87c-.04.12-.09.25-.16.38-.13.19-.25.4-.36.62,0,.01-.01.01-.01.02-.6.91-1.45,1.75-2.1,2.13-1.31.76-2.99.31-3.75-1.01-.76-1.31-.31-2.98,1.01-3.74.68-.39,1.92-.73,3.06-.76.2.01.39.01.58,0,.14.01.28.02.41.04.01.6.21,1.19.61,1.69.21.25.45.46.71.63Z"/>
  <path class="cls-1" d="m11.41,15.78c0,1.51-1.22,2.74-2.74,2.74s-2.74-1.23-2.74-2.74c0-.75.31-1.91.79-2.89,0-.01.01-.01.01-.02.11-.22.23-.43.36-.62.08-.12.16-.23.24-.34.82.46,1.84.47,2.68,0,.08.11.16.22.24.34.13.19.25.4.36.62,0,.01.01.02.01.02.49.98.79,2.14.79,2.89Z"/>
  <path class="cls-1" d="m16.47,14.01c-.76,1.32-2.43,1.77-3.74,1.01-.65-.38-1.51-1.22-2.11-2.13,0,0-.01-.01-.01-.02-.11-.22-.23-.43-.36-.62-.07-.13-.13-.26-.17-.39.11-.06.22-.14.32-.22.66-.53,1.01-1.3,1.02-2.09.13-.02.27-.03.41-.04.18.01.38.01.58,0,1.14.03,2.38.37,3.06.76,1.31.76,1.76,2.43,1,3.74Z"/>
  <path class="cls-1" d="m15.47,8.75c-.68.39-1.92.73-3.06.76-.2.01-.4.01-.58,0-.14-.01-.28-.02-.41-.04-.01-.6-.21-1.19-.62-1.69-.21-.25-.45-.46-.72-.62.04-.12.1-.25.17-.38.14-.21.27-.44.39-.68.6-.9,1.44-1.73,2.09-2.1,1.31-.75,2.98-.3,3.74,1.01s.31,2.99-1,3.74Z"/>
</svg>