<?xml version="1.0" encoding="UTF-8"?><svg id="uuid-7670c62d-dbd3-4b44-b051-68389315319b" xmlns="http://www.w3.org/2000/svg" width="14.48" height="17.61" viewBox="0 0 14.48 17.61"><path d="m12.76,8.45h-4.55c-.68,0-1.22-.55-1.22-1.22v-2.9c0-.68.55-1.22,1.22-1.22h2.6l.47,1.01h1.96c.41,0,.74.33.74.74v2.37c0,.68-.55,1.22-1.22,1.22Z" fill="none" stroke="#000" stroke-linejoin="round"/><path d="m12.76,17.11h-4.55c-.68,0-1.22-.55-1.22-1.22v-2.9c0-.68.55-1.22,1.22-1.22h2.6l.47,1.01h1.96c.41,0,.74.33.74.74v2.37c0,.68-.55,1.22-1.22,1.22Z" fill="none" stroke="#000" stroke-linejoin="round"/><polyline points="4.82 14.44 .5 14.44 .5 0" fill="none" stroke="#000" stroke-linejoin="round"/><line x1="4.82" y1="5.77" x2=".5" y2="5.77" fill="none" stroke="#000" stroke-linejoin="round"/></svg>