<?xml version="1.0" encoding="UTF-8"?>
<svg id="Layer_1" data-name="Layer 1" xmlns="http://www.w3.org/2000/svg" viewBox="0 0 17.98 15.27">
  <defs>
    <style>
      .cls-1 {
        stroke-linejoin: round;
      }

      .cls-1, .cls-2 {
        fill: none;
        stroke: #000;
      }

      .cls-2 {
        stroke-miterlimit: 10;
      }
    </style>
  </defs>
  <path class="cls-1" d="m9.59,13.47H2.3c-.99,0-1.8-.81-1.8-1.8V2.3c0-.99.81-1.8,1.8-1.8h5.55l1.14,2.46h6.69c.99,0,1.8.81,1.8,1.8v.89"/>
  <path class="cls-2" d="m12.35,14.66v-5.89c0-.4.32-.72.72-.72h3.5c.4,0,.72.32.72.72v5.89c0,.09-.09.14-.17.09l-2.3-1.41-2.3,1.41c-.07.04-.17,0-.17-.09Z"/>
</svg>