<?xml version="1.0" encoding="UTF-8"?>
<svg id="Layer_1" data-name="Layer 1" xmlns="http://www.w3.org/2000/svg" viewBox="0 0 14.65 15.23">
  <defs>
    <style>
      .cls-1 {
        fill: none;
        stroke: #000;
        stroke-linecap: round;
        stroke-linejoin: round;
      }
    </style>
  </defs>
  <circle class="cls-1" cx="8.23" cy="5.06" r="1.88"/>
  <path class="cls-1" d="m.61,10.48c.72,2.09,5.54,1.41,8.84-.39,1.06-.58,3.1-1.69,3.55-3.81.24-1.14-.08-2.13-.2-2.5-.15-.45-.7-2.11-2.4-2.9-1.17-.54-2.26-.37-2.79-.28-.45.08-1.88.33-2.97,1.52-1.19,1.29-1.28,2.94-1.19,3.94.04.52-.29.97-.77,1.16-1.14.44-1.95,1.23-2.13,2.17-.05.25-.07.62.07,1.09l.91,2.64c.2.58.62,1.06,1.18,1.28,1.78.7,5.21.26,7.82-1.17,1.06-.58,3.1-1.69,3.55-3.81.24-1.14-.08-2.13-.2-2.5l-1.08-3.14"/>
</svg>