<?xml version="1.0" encoding="UTF-8"?>
<svg id="Layer_1" data-name="Layer 1" xmlns="http://www.w3.org/2000/svg" viewBox="0 0 17.12 15.91">
  <defs>
    <style>
      .cls-1 {
        fill: none;
        stroke: #000;
        stroke-miterlimit: 10;
      }
    </style>
  </defs>
  <path class="cls-1" d="m.76,6.66c-.14,0-.26.12-.26.26v.27c0,2.76,1.42,5.95,4.15,6.67.22.06.39.25.39.48v.81c0,.14.12.26.26.26h6.52c.14,0,.26-.12.26-.26v-.81c0-.23.16-.42.39-.48,2.73-.73,4.15-3.91,4.15-6.67v-.27c0-.14-.12-.26-.26-.26H.76Z"/>
  <path class="cls-1" d="m15.28,6.66c-.24-3.45-2.61-6.16-6.72-6.16S2.08,3.21,1.84,6.66"/>
</svg>