<?xml version="1.0" encoding="UTF-8"?>
<svg id="Layer_1" data-name="Layer 1" xmlns="http://www.w3.org/2000/svg" viewBox="0 0 12.39 17">
  <defs>
    <style>
      .cls-1 {
        fill: none;
        stroke: #000;
      }
    </style>
  </defs>
  <path class="cls-1" d="m2.2,7.82l3.91,8.59c.06.13.24.13.3,0l3.93-8.59"/>
  <path class="cls-1" d="m10.26,4.29c0,.16.14.27.29.3.76.14,1.33.8,1.33,1.6h0c0,.9-.73,1.63-1.63,1.63H2.13c-.9,0-1.63-.73-1.63-1.63h0c0-.8.58-1.47,1.34-1.6.15-.03.28-.13.29-.29.07-.9.57-3.8,4.13-3.8s3.95,2.88,3.99,3.79Z"/>
</svg>