<?xml version="1.0" encoding="UTF-8"?>
<svg id="Layer_1" data-name="Layer 1" xmlns="http://www.w3.org/2000/svg" viewBox="0 0 15.73 15.56">
  <defs>
    <style>
      .cls-1 {
        fill: none;
        stroke: #000;
        stroke-miterlimit: 10;
      }
    </style>
  </defs>
  <path class="cls-1" d="m8.26,14.83L15.17,2.85c.13-.22.05-.5-.18-.62-1.35-.71-3.78-1.77-7.13-1.73-3.18.03-5.75,1.04-7.12,1.73-.23.12-.31.4-.18.62l6.92,11.98c.17.3.61.3.78,0Z"/>
  <path class="cls-1" d="m1.73,4.88c1.41-.61,3.62-1.44,6.14-1.47,2.66-.03,4.67.84,6.14,1.47"/>
  <path class="cls-1" d="m2.94,6.97c.43-.23.91-.37,1.43-.37,1.65,0,2.99,1.34,2.99,2.99,0,1.08-.57,2.03-1.43,2.55"/>
  <path class="cls-1" d="m10.86,10.32c-.8-.56-1.33-1.49-1.33-2.54,0-1.71,1.38-3.09,3.09-3.09.47,0,.92.11,1.32.29"/>
</svg>