<?xml version="1.0" encoding="UTF-8"?>
<svg id="Layer_1" data-name="Layer 1" xmlns="http://www.w3.org/2000/svg" viewBox="0 0 14.85 14.85">
  <defs>
    <style>
      .cls-1 {
        fill: none;
        stroke: #000;
        stroke-linecap: round;
        stroke-linejoin: round;
      }
    </style>
  </defs>
  <path class="cls-1" d="m11.29,11.29c-2.9,2.9-6.12,4.39-9.02,1.49C.24,10.75-.13,8.19,1.61,6.45c.81-.81,2.48-.62,3.36-1.49s.47-2.33,1.5-3.36c1.73-1.73,4.29-1.35,6.31.67,2.9,2.9,1.41,6.12-1.49,9.02Z"/>
  <path class="cls-1" d="m6.68,1.38c.25.15.48.34.7.55,1.5,1.5,1.5,3.94,0,5.44s-3.94,1.5-5.44,0c-.21-.21-.4-.45-.55-.7"/>
</svg>