<?xml version="1.0" encoding="UTF-8"?>
<svg id="Layer_1" data-name="Layer 1" xmlns="http://www.w3.org/2000/svg" viewBox="0 0 16.37 15.63">
  <defs>
    <style>
      .cls-1 {
        fill: none;
        stroke: #000;
        stroke-linecap: round;
        stroke-linejoin: round;
      }
    </style>
  </defs>
  <path class="cls-1" d="m4.83,9.08c1.17-.55,2.53.17,2.77,1.44.07.37.11.72.11,1.02,0,1.99-1.61,3.6-3.6,3.6s-3.6-1.61-3.6-3.6c0-.29.03-.64.1-1,.23-1.26,1.57-1.98,2.74-1.46l.76.34.73-.34Z"/>
  <path class="cls-1" d="m12.09,9.08c1.17-.55,2.53.17,2.77,1.44.07.37.11.72.11,1.02,0,1.99-1.61,3.6-3.6,3.6s-3.6-1.61-3.6-3.6c0-.29.03-.64.1-1,.23-1.26,1.57-1.98,2.74-1.46l.76.34.73-.34Z"/>
  <path class="cls-1" d="m10.1,4.15c.07.15.13.3.19.45.79,1.94,1.01,3.67,1.07,4.81"/>
  <path class="cls-1" d="m4.1,9.42c.78-1.01,1.74-2.48,2.51-4.41.69-1.74,1-3.31,1.15-4.51"/>
  <path class="cls-1" d="m7.76.5c.82,0,2.67.13,4.59,1.31,2.24,1.38,3.19,3.34,3.51,4.08-.57.07-2.97.29-5.24-1.33-2.03-1.45-2.69-3.45-2.86-4.06Z"/>
</svg>