<?xml version="1.0" encoding="UTF-8"?>
<svg id="Layer_1" data-name="Layer 1" xmlns="http://www.w3.org/2000/svg" viewBox="0 0 17.12 16.03">
  <defs>
    <style>
      .cls-1 {
        fill: none;
        stroke: #000;
        stroke-miterlimit: 10;
      }
    </style>
  </defs>
  <path class="cls-1" d="m.76,6.77c-.14,0-.26.12-.26.26v.27c0,2.76,1.42,5.95,4.15,6.67.22.06.39.25.39.48v.81c0,.14.12.26.26.26h6.52c.14,0,.26-.12.26-.26v-.81c0-.23.16-.42.39-.48,2.73-.73,4.15-3.91,4.15-6.67v-.27c0-.14-.12-.26-.26-.26H.76Z"/>
  <path class="cls-1" d="m15.01,6.79c-.04-.58.39-1.23.23-1.76s-.88-.85-1.17-1.33-.24-1.26-.66-1.64-1.17-.25-1.69-.51c-.48-.24-.84-.93-1.42-1.05-.52-.11-1.14.37-1.74.37s-1.21-.47-1.74-.37c-.58.12-.94.81-1.42,1.05-.52.26-1.29.14-1.69.51s-.36,1.16-.66,1.64-1,.78-1.17,1.33.27,1.18.23,1.76"/>
</svg>