<?xml version="1.0" encoding="UTF-8"?>
<svg id="Layer_1" data-name="Layer 1" xmlns="http://www.w3.org/2000/svg" viewBox="0 0 17.21 17.2">
  <defs>
    <style>
      .cls-1 {
        fill: none;
        stroke: #000;
      }
    </style>
  </defs>
  <rect class="cls-1" x="5.5" y="4.2" width="6.2" height="8.8" rx="2.97" ry="2.97" transform="translate(8.6 -3.56) rotate(45)"/>
  <path class="cls-1" d="m11.72,5.27c0,.12.09.22.21.21l4.54-.13c.23-.06.31-.35.14-.52l-1-1c-.06-.06-.09-.13-.09-.21l-.03-1.6c0-.17-.14-.3-.3-.3l-1.6-.03c-.08,0-.16-.03-.21-.09l-1-1c-.17-.17-.46-.09-.52.14l-.13,4.54Z"/>
  <path class="cls-1" d="m5.49,11.93c0-.12-.09-.22-.21-.21l-4.54.13c-.23.06-.31.35-.14.52l1,1c.06.06.09.13.09.21l.03,1.6c0,.17.14.3.3.3l1.6.03c.08,0,.16.03.21.09l1,1c.17.17.46.09.52-.14l.13-4.54Z"/>
  <line class="cls-1" x1="7.7" y1="5.17" x2="12.06" y2="9.53"/>
  <line class="cls-1" x1="9.53" y1="12.06" x2="5.17" y2="7.7"/>
</svg>