<?xml version="1.0" encoding="UTF-8"?>
<svg id="Layer_1" data-name="Layer 1" xmlns="http://www.w3.org/2000/svg" viewBox="0 0 16.83 16.82">
  <defs>
    <style>
      .cls-1 {
        stroke-linejoin: round;
      }

      .cls-1, .cls-2 {
        fill: none;
        stroke: #000;
      }

      .cls-2 {
        stroke-miterlimit: 10;
      }
    </style>
  </defs>
  <path class="cls-2" d="m14.41,7.47c-.91-.91-1.38-2.09-1.43-3.28,0-.2-.16-.35-.36-.36-1.19-.05-2.37-.52-3.28-1.43-.49-.49-.84-1.06-1.07-1.66-.06-.15-.21-.26-.37-.24-2.34.16-4.63,1.34-6.11,3.58C.06,6.69.07,10.18,1.83,12.78c2.89,4.27,8.75,4.68,12.21,1.22,1.41-1.41,2.17-3.23,2.3-5.08.01-.16-.09-.31-.25-.37-.61-.24-1.19-.59-1.68-1.08Z"/>
  <circle class="cls-1" cx="9.66" cy="7.14" r=".4"/>
  <g>
    <circle class="cls-1" cx="5.37" cy="6.53" r=".4"/>
    <circle class="cls-1" cx="10.25" cy="11.41" r=".4"/>
  </g>
  <circle class="cls-1" cx="5.98" cy="10.82" r=".4"/>
</svg>