<?xml version="1.0" encoding="UTF-8"?>
<svg id="Layer_1" data-name="Layer 1" xmlns="http://www.w3.org/2000/svg" viewBox="0 0 15.64 15.64">
  <defs>
    <style>
      .cls-1 {
        fill: none;
        stroke: #000;
      }
    </style>
  </defs>
  <path class="cls-1" d="m9.76,5.87c-1.81-1.81-3.24-1.35-4.68.09C2.97,8.08,1.29,12.77.53,14.68c-.11.27.16.54.43.43,1.91-.76,6.6-2.45,8.72-4.56,1.44-1.44,1.89-2.88.09-4.68Z"/>
  <path class="cls-1" d="m7.74,1.34h1.07c1.57,0,2.84,1.27,2.84,2.84v.78h-1.26c-1.57,0-2.84-1.27-2.84-2.84v-.59c0-.1.09-.19.19-.19Z" transform="translate(5.04 -5.86) rotate(45)"/>
  <path class="cls-1" d="m13.28,4.24h1.26v.78c0,1.57-1.27,2.84-2.84,2.84h-1.07c-.1,0-.19-.09-.19-.19v-.59c0-1.57,1.27-2.84,2.84-2.84Z" transform="translate(17.05 19.15) rotate(-135)"/>
  <line class="cls-1" x1="3.33" y1="8.9" x2="5.04" y2="10.6"/>
  <line class="cls-1" x1="7.42" y1="8.72" x2="9.44" y2="10.74"/>
</svg>