<?xml version="1.0" encoding="UTF-8"?>
<svg id="Layer_1" data-name="Layer 1" xmlns="http://www.w3.org/2000/svg" viewBox="0 0 14.73 14.73">
  <defs>
    <style>
      .cls-1 {
        fill: none;
        stroke: #000;
        stroke-miterlimit: 10;
      }
    </style>
  </defs>
  <g>
    <path class="cls-1" d="m5.93,1.47h1.92c1.38,0,2.5,1.12,2.5,2.5v1.24c0,.11-.09.19-.19.19h-1.92c-1.38,0-2.5-1.12-2.5-2.5v-1.24c0-.11.09-.19.19-.19Z" transform="translate(4.78 -4.68) rotate(45)"/>
    <path class="cls-1" d="m3.15,4.25h1.92c1.38,0,2.5,1.12,2.5,2.5v1.24c0,.11-.09.19-.19.19h-1.92c-1.38,0-2.5-1.12-2.5-2.5v-1.24c0-.11.09-.19.19-.19Z" transform="translate(5.94 -1.9) rotate(45)"/>
    <path class="cls-1" d="m.37,7.03h1.92c1.38,0,2.5,1.12,2.5,2.5v1.24c0,.11-.09.19-.19.19h-1.92c-1.38,0-2.5-1.12-2.5-2.5v-1.24c0-.11.09-.19.19-.19Z" transform="translate(7.09 .88) rotate(45)"/>
    <path class="cls-1" d="m11.49,4.73h1.92c.11,0,.19.09.19.19v1.24c0,1.38-1.12,2.5-2.5,2.5h-1.92c-.11,0-.19-.09-.19-.19v-1.24c0-1.38,1.12-2.5,2.5-2.5Z" transform="translate(14.55 19.41) rotate(-135)"/>
    <path class="cls-1" d="m8.71,7.51h1.92c.11,0,.19.09.19.19v1.24c0,1.38-1.12,2.5-2.5,2.5h-1.92c-.11,0-.19-.09-.19-.19v-1.24c0-1.38,1.12-2.5,2.5-2.5Z" transform="translate(7.84 22.19) rotate(-135)"/>
    <path class="cls-1" d="m5.93,10.28h1.92c.11,0,.19.09.19.19v1.24c0,1.38-1.12,2.5-2.5,2.5h-1.92c-.11,0-.19-.09-.19-.19v-1.24c0-1.38,1.12-2.5,2.5-2.5Z" transform="translate(1.14 24.97) rotate(-135)"/>
  </g>
  <path class="cls-1" d="m10.36.73h1.26c1.31,0,2.38,1.07,2.38,2.38v1.26c0,.15-.12.27-.27.27h-1.26c-1.31,0-2.38-1.07-2.38-2.38v-1.26c0-.15.12-.27.27-.27Z" transform="translate(14.73 -9.35) rotate(90)"/>
  <line class="cls-1" x1="9.93" y1="4.8" x2=".92" y2="13.81"/>
</svg>