<?xml version="1.0" encoding="UTF-8"?>
<svg id="Layer_1" data-name="Layer 1" xmlns="http://www.w3.org/2000/svg" viewBox="0 0 14.98 15.15">
  <defs>
    <style>
      .cls-1 {
        fill: none;
        stroke: #000;
      }
    </style>
  </defs>
  <path class="cls-1" d="m11.29,11.29c-2.9,2.9-6.12,4.39-9.02,1.49C.24,10.75-.13,8.19,1.61,6.45c.79-.79,2.38-.63,3.27-1.41"/>
  <path class="cls-1" d="m5.8,2.77c.13-.41.31-.82.67-1.17,1.73-1.73,4.29-1.35,6.31.67,2.35,2.35,1.82,4.91-.01,7.34"/>
  <path class="cls-1" d="m7.29,7.46c-1.51,1.42-3.88,1.39-5.36-.08-.21-.21-.4-.45-.55-.7"/>
  <path class="cls-1" d="m6.68,1.38c.25.15.48.34.7.55.75.75,1.12,1.73,1.13,2.7"/>
  <line class="cls-1" x1="1.01" y1="1.18" x2="14.62" y2="14.79"/>
</svg>