<?xml version="1.0" encoding="UTF-8"?>
<svg id="Layer_1" data-name="Layer 1" xmlns="http://www.w3.org/2000/svg" viewBox="0 0 15.18 16.88">
  <defs>
    <style>
      .cls-1 {
        fill: none;
        stroke: #000;
      }
    </style>
  </defs>
  <path class="cls-1" d="m9.42,2.61l-2.43,2.43,1.41,4.94c.09.33.51.43.75.19l5.41-5.41c.24-.24.13-.65-.19-.75l-4.94-1.41Z"/>
  <path class="cls-1" d="m9.42,2.61l-2.43,2.43-1.88-1.88c-.31-.31-.31-.81,0-1.11l1.32-1.32c.31-.31.81-.31,1.11,0l1.88,1.88Z"/>
  <path class="cls-1" d="m5.77,3.82l-2.8,2.8c-.25.25-.36.61-.29.96l1.07,5.57"/>
  <path class="cls-1" d="m.5,16.03v-1.27c0-.89.73-1.62,1.62-1.62h3.24c.9,0,1.62.73,1.62,1.62v1.27c0,.19-.16.35-.35.35H.85c-.19,0-.35-.16-.35-.35Z"/>
</svg>