<?xml version="1.0" encoding="UTF-8"?>
<svg id="Layer_1" data-name="Layer 1" xmlns="http://www.w3.org/2000/svg" viewBox="0 0 19.08 14.5">
  <defs>
    <style>
      .cls-1 {
        fill: none;
        stroke: #000;
        stroke-miterlimit: 10;
      }
    </style>
  </defs>
  <g>
    <line class="cls-1" x1="5.81" y1="7.58" x2="5.81" y2="11.43"/>
    <g>
      <path class="cls-1" d="m13.27,7.58c0-1.7,1.6-3.03,3.36-2.57.89.23,1.62.96,1.85,1.86.44,1.69-.75,3.22-2.35,3.35-.12,0-.22.1-.22.22v1.96c0,.88-.71,1.6-1.6,1.6H4.76c-.88,0-1.6-.71-1.6-1.6v-1.96c0-.12-.1-.21-.22-.22-1.6-.13-2.79-1.66-2.35-3.35.23-.89.96-1.62,1.85-1.86,1.76-.46,3.36.86,3.36,2.57"/>
      <line class="cls-1" x1="13.27" y1="7.58" x2="13.27" y2="11.43"/>
    </g>
    <line class="cls-1" x1="5.81" y1="8.49" x2="13.27" y2="8.49"/>
  </g>
  <path class="cls-1" d="m3.5,4.94l-.25-3.23c-.05-.65.47-1.21,1.12-1.21h10.33c.66,0,1.17.56,1.12,1.21l-.25,3.23"/>
</svg>