<?xml version="1.0" encoding="UTF-8"?>
<svg id="Layer_1" data-name="Layer 1" xmlns="http://www.w3.org/2000/svg" viewBox="0 0 19.3 15.75">
  <defs>
    <style>
      .cls-1 {
        fill: none;
        stroke: #000;
        stroke-miterlimit: 10;
      }
    </style>
  </defs>
  <g>
    <path class="cls-1" d="m14.37,15.4v-3.25c0-.89-.57-1.69-1.42-1.94-1.66-.5-3.99-.65-3.99-.65v-4.44c0-.86-.7-1.56-1.56-1.56"/>
    <path class="cls-1" d="m3.97,15.4l-1.89-1.89-1.12-1.12c-.61-.61-.61-1.6,0-2.2"/>
    <path class="cls-1" d="m.96,10.18c.61-.61,1.6-.61,2.2,0l1.63,1.63c.39.39,1.05.11,1.05-.44v-6.25c0-.86.7-1.56,1.56-1.56"/>
  </g>
  <path class="cls-1" d="m3.01,7.21c-.26-.59-.4-1.24-.4-1.92C2.61,2.64,4.75.5,7.4.5s4.79,2.14,4.79,4.79c0,.66-.13,1.29-.38,1.86"/>
  <g>
    <line class="cls-1" x1="14" y1="3.78" x2="18.6" y2="3.78"/>
    <polyline class="cls-1" points="15.77 6.61 18.6 3.78 15.77 .94"/>
  </g>
</svg>