<?xml version="1.0" encoding="UTF-8"?>
<svg id="Layer_1" data-name="Layer 1" xmlns="http://www.w3.org/2000/svg" viewBox="0 0 14.28 17.28">
  <defs>
    <style>
      .cls-1 {
        fill: none;
        stroke: #000;
      }
    </style>
  </defs>
  <path class="cls-1" d="m6.93.5C3.3.61.5,3.78.5,7.42v9.13c0,.2.24.3.39.16l1.94-1.94c.09-.09.23-.09.32,0l1.75,1.75c.09.09.23.09.32,0l1.75-1.75c.09-.09.23-.09.32,0l1.75,1.75c.09.09.23.09.32,0l1.75-1.75c.09-.09.23-.09.32,0l1.94,1.94c.14.14.39.04.39-.16V7.14C13.78,3.4,10.69.39,6.93.5Z"/>
  <circle class="cls-1" cx="4.17" cy="7.24" r=".28"/>
  <circle class="cls-1" cx="10.12" cy="7.24" r=".28"/>
</svg>