<?xml version="1.0" encoding="UTF-8"?>
<svg id="Layer_1" data-name="Layer 1" xmlns="http://www.w3.org/2000/svg" viewBox="0 0 16.51 14.93">
  <defs>
    <style>
      .cls-1 {
        fill: none;
        stroke: #000;
        stroke-miterlimit: 10;
      }
    </style>
  </defs>
  <path class="cls-1" d="m.8,4.13h14.91c.17,0,.3.17.3.38v2.97c0,.21-.14.38-.3.38H.8c-.17,0-.3-.17-.3-.38v-2.97c0-.21.14-.38.3-.38Z"/>
  <line class="cls-1" x1="8.25" y1="3.68" x2="8.25" y2="14.43"/>
  <path class="cls-1" d="m4.62,4.13c-1.14-1.14-1.52-2.62-.84-3.3s2.15-.3,3.3.84c.71.71,1.13,1.56,1.17,2.26"/>
  <path class="cls-1" d="m11.88,4.13c1.14-1.14,1.52-2.62.84-3.3s-2.15-.3-3.3.84c-.71.71-1.13,1.56-1.17,2.26"/>
  <path class="cls-1" d="m2.1,7.86h12.32v5.78c0,.44-.35.79-.79.79H2.89c-.44,0-.79-.35-.79-.79v-5.78h0Z"/>
</svg>