<?xml version="1.0" encoding="UTF-8"?>
<svg id="Layer_1" data-name="Layer 1" xmlns="http://www.w3.org/2000/svg" viewBox="0 0 16.87 16.87">
  <defs>
    <style>
      .cls-1 {
        fill: none;
        stroke: #000;
        stroke-miterlimit: 10;
      }
    </style>
  </defs>
  <circle class="cls-1" cx="8.43" cy="8.43" r="7.93"/>
  <path class="cls-1" d="m1.95,3.66c0,.08.03.08.03.16.09,2.65.79,3.55,1.43,3.87.72.36,1.61.11,2.34.88.46.48.41.89.87,1.13.7.37,1.62-.16,1.97-.32,1.02-.45,2.93-.23,6.9,2.98"/>
  <path class="cls-1" d="m10.81.87c.98,1.95.82,2.74.52,3.11-.85,1.02-3.39-.58-4.82.52-1.05.81-.97,2.67-.76,4.07"/>
  <path class="cls-1" d="m8.7,16.45c.16-.36.33-.9.18-1.46-.24-.88-1.08-1.07-1.55-1.78-.36-.54-.59-1.52.15-3.4"/>
</svg>