<?xml version="1.0" encoding="UTF-8"?>
<svg id="Layer_1" data-name="Layer 1" xmlns="http://www.w3.org/2000/svg" viewBox="0 0 18.02 13.44">
  <defs>
    <style>
      .cls-1 {
        fill: none;
        stroke: #000;
      }
    </style>
  </defs>
  <path class="cls-1" d="m9.3,9.42l7.84-3.82c.5-.24.5-.96,0-1.2L9.3.57c-.18-.09-.4-.09-.59,0L.87,4.39c-.5.24-.5.96,0,1.2l7.84,3.82c.18.09.4.09.59,0Z"/>
  <line class="cls-1" x1="17.52" y1="4.99" x2="17.52" y2="10.04"/>
  <path class="cls-1" d="m14.14,6.89v3.2c0,.4-.11.79-.34,1.11-.52.73-1.78,1.75-4.79,1.75s-4.27-1.03-4.8-1.75c-.23-.32-.35-.72-.35-1.12v-3.19"/>
</svg>