<?xml version="1.0" encoding="UTF-8"?>
<svg id="Layer_1" data-name="Layer 1" xmlns="http://www.w3.org/2000/svg" viewBox="0 0 16.37 16.9">
  <defs>
    <style>
      .cls-1 {
        fill: none;
        stroke: #000;
        stroke-miterlimit: 10;
      }
    </style>
  </defs>
  <path class="cls-1" d="m6.01,8.91c-.21.62-1.02.8-1.54.4l-1.89-1.45c-.5-.39-1.21-.35-1.67.08h0c-.49.46-.54,1.21-.13,1.74l4.72,6.04c.34.43.85.68,1.4.68h6.4c.45,0,.82-.31.92-.75.38-1.58,1.65-3.91,1.65-6.17s-4.23-3.67-5.9-4.07c-.37-.09-.64-.37-.73-.74-.37-1.52-.68-3.09-1.72-3.84-.7-.51-1.48-.37-1.99,0l-.05.03c-.47.35-.61.99-.33,1.52.23.43.42.91.57,1.44.47,1.88.81,3.52.29,5.08h0Z"/>
</svg>