<?xml version="1.0" encoding="UTF-8"?>
<svg id="Layer_1" data-name="Layer 1" xmlns="http://www.w3.org/2000/svg" viewBox="0 0 14.67 16.06">
  <defs>
    <style>
      .cls-1 {
        fill: none;
        stroke: #000;
        stroke-miterlimit: 10;
      }
    </style>
  </defs>
  <path class="cls-1" d="m6.09,7.99L3.95,3.4c-.26-.55-.92-.79-1.48-.54h0c-.55.26-.79.92-.54,1.48l2.14,4.59"/>
  <path class="cls-1" d="m8.11,7.05L5.35,1.14c-.26-.55-.92-.79-1.48-.54h0c-.55.26-.79.92-.54,1.48l2.76,5.91"/>
  <path class="cls-1" d="m8.11,7.05l-2.14-4.59c-.26-.55-.02-1.22.54-1.48h0c.55-.26,1.22-.02,1.48.54l2.65,5.67c.27.57,1.13.39,1.13-.25v-2.19c0-.66.56-1.2,1.23-1.16h0c.61.03,1.09.53,1.1,1.14l.09,4.95c.04,2.28-1.26,4.36-3.33,5.33h0c-2.88,1.34-6.31.1-7.65-2.79L.6,6.7c-.26-.55-.02-1.22.54-1.48h0c.55-.26,1.22-.02,1.48.54l1.48,3.18"/>
  <path class="cls-1" d="m11.22,7.53c-2.87.64-4.17,1.98-4.04,3.98"/>
</svg>