<?xml version="1.0" encoding="UTF-8"?>
<svg id="Layer_1" data-name="Layer 1" xmlns="http://www.w3.org/2000/svg" viewBox="0 0 15.19 14">
  <defs>
    <style>
      .cls-1 {
        fill: none;
        stroke: #000;
        stroke-miterlimit: 10;
      }
    </style>
  </defs>
  <path class="cls-1" d="m5.79,10.35l2.79.73c.58.15,1.18-.2,1.33-.78h0c.15-.58-.2-1.18-.78-1.33l-1.43-.38c-1.16-2.29-3.91-2.3-4.96-.96-.17.21-.43.34-.69.4l-1.18.26c-.23.05-.39.26-.37.49l.17,2.93c.01.21.16.38.36.43l4.07,1.07c1.63.43,3.34.37,4.93-.17l3.85-1.3c.63-.21.96-.9.75-1.52h0c-.21-.62-.89-.95-1.51-.74l-3.3,1.11"/>
  <circle class="cls-1" cx="11.52" cy="3.54" r="3.04"/>
</svg>