<?xml version="1.0" encoding="UTF-8"?>
<svg id="Layer_1" data-name="Layer 1" xmlns="http://www.w3.org/2000/svg" viewBox="0 0 14.14 17">
  <defs>
    <style>
      .cls-1 {
        fill: none;
        stroke: #000;
        stroke-miterlimit: 10;
      }
    </style>
  </defs>
  <path class="cls-1" d="m9.21,8.13V3.07c0-.61.5-1.11,1.11-1.11h0c.61,0,1.11.5,1.11,1.11v5.06"/>
  <path class="cls-1" d="m6.99,8.13V1.61c0-.61.5-1.11,1.11-1.11h0c.61,0,1.11.5,1.11,1.11v6.52"/>
  <path class="cls-1" d="m6.99,8.13V3.07c0-.61-.5-1.11-1.11-1.11h0c-.61,0-1.11.5-1.11,1.11v6.26c0,.63-.86.83-1.13.25l-.93-1.98c-.28-.6-1.01-.85-1.6-.53h0c-.54.29-.76.94-.51,1.5l2.01,4.52c.93,2.08,2.99,3.42,5.27,3.42h0c3.18,0,5.76-2.58,5.76-5.76v-6.11c0-.61-.5-1.11-1.11-1.11h0c-.61,0-1.11.5-1.11,1.11v3.51"/>
</svg>