<?xml version="1.0" encoding="UTF-8"?>
<svg id="Layer_1" data-name="Layer 1" xmlns="http://www.w3.org/2000/svg" viewBox="0 0 16.81 13.89">
  <defs>
    <style>
      .cls-1 {
        fill: none;
        stroke: #000;
        stroke-miterlimit: 10;
      }
    </style>
  </defs>
  <path class="cls-1" d="m10.2,8.85l1.18,1.1c.4.37.42,1,.05,1.39l-.47.5c-.37.39-.98.42-1.38.06l-1.73-1.55,1.62,1.45-1.12,1.26c-.36.41-.99.44-1.39.08l-4.37-3.92-.02-.02h-1.26c-.44,0-.8-.36-.8-.8V2.52c0-.44.36-.8.8-.8h4.37"/>
  <path class="cls-1" d="m10.2,8.85l1.89,1.77c.4.37,1.03.35,1.4-.05l.43-.47c.37-.41.34-1.04-.07-1.41l-3.98-3.53"/>
  <path class="cls-1" d="m16.31,9.51V2.52c0-.44-.36-.8-.8-.8h-1.33c-.59-.42-2.12-1.39-3.96-1.19-.36.04-.9.1-1.46.45-.75.46-.71.92-1.51,1.94-1.07,1.37-1.85,1.46-1.98,2.41-.02.13-.1.76.3,1.19.37.4,1.06.7,1.7.3l3.51-3.05"/>
</svg>