<?xml version="1.0" encoding="UTF-8"?>
<svg id="Layer_1" data-name="Layer 1" xmlns="http://www.w3.org/2000/svg" viewBox="0 0 14.48 18.71">
  <defs>
    <style>
      .cls-1 {
        fill: none;
        stroke: #000;
        stroke-miterlimit: 10;
      }
    </style>
  </defs>
  <path class="cls-1" d="m5.94,11.46l-1.88-4.05c-.23-.49-.87-.68-1.43-.42h0c-.56.26-.83.87-.6,1.36l1.88,4.05"/>
  <path class="cls-1" d="m7.97,10.51l-2.42-5.22c-.23-.49-.87-.68-1.43-.42h0c-.56.26-.83.87-.6,1.36l2.42,5.22"/>
  <path class="cls-1" d="m7.97,10.51l-1.88-4.05c-.23-.49.05-1.1.6-1.36h0c.56-.26,1.2-.07,1.43.42l2.33,5.01"/>
  <path class="cls-1" d="m11.15,12.04l-1.15-2.48c-.23-.49.05-1.1.6-1.36h0c.56-.26,1.2-.07,1.43.42l1.06,2.38c.99,2.19.07,4.98-2.31,6.35-.16.09-.33.18-.51.26h0c-2.91,1.35-6.24.39-7.42-2.16L.58,10.55c-.23-.49.05-1.1.6-1.36h0c.56-.26,1.2-.07,1.43.42l1.3,2.81"/>
  <g>
    <path class="cls-1" d="m6.43,7.2l-1.88-4.05c-.23-.49-.87-.68-1.43-.42h0c-.56.26-.83.87-.6,1.36l1.88,4.05"/>
    <path class="cls-1" d="m8.46,6.25L6.04,1.03c-.23-.49-.87-.68-1.43-.42h0c-.56.26-.83.87-.6,1.36l2.42,5.22"/>
    <path class="cls-1" d="m8.46,6.25l-1.88-4.05c-.23-.49.05-1.1.6-1.36h0c.56-.26,1.2-.07,1.43.42l2.33,5.01"/>
    <path class="cls-1" d="m3.34,11.18L1.07,6.29c-.23-.49.05-1.1.6-1.36h0c.56-.26,1.2-.07,1.43.42l1.3,2.81"/>
    <path class="cls-1" d="m10.49,5.29c-.23-.49.05-1.1.6-1.36h0c.56-.26,1.2-.07,1.43.42l1.06,2.38c.68,1.49.46,3.27-.5,4.68"/>
  </g>
</svg>