<?xml version="1.0" encoding="UTF-8"?>
<svg id="Layer_1" data-name="Layer 1" xmlns="http://www.w3.org/2000/svg" viewBox="0 0 15.22 13.01">
  <defs>
    <style>
      .cls-1 {
        fill: none;
        stroke: #000;
        stroke-miterlimit: 10;
      }
    </style>
  </defs>
  <path class="cls-1" d="m.51,8.07h3.05c.45,0,.81.37.81.82v2.78c0,.45-.36.81-.81.81h-1.53c-.84,0-1.52-.68-1.52-1.52v-2.89h0Z"/>
  <path class="cls-1" d="m13.19,12.5h-1.53c-.45,0-.81-.36-.81-.81v-2.78c0-.45.36-.81.81-.81h3.06v2.89c0,.84-.68,1.52-1.52,1.52h0Z"/>
  <path class="cls-1" d="m.5,7.6h0C.5,3.68,3.49.5,7.62.5h-.02c4.17,0,7.12,3.18,7.12,7.1h0"/>
</svg>