<?xml version="1.0" encoding="UTF-8"?>
<svg id="Layer_1" data-name="Layer 1" xmlns="http://www.w3.org/2000/svg" viewBox="0 0 15.21 16.36">
  <defs>
    <style>
      .cls-1 {
        fill: none;
        stroke: #000;
        stroke-miterlimit: 10;
      }
    </style>
  </defs>
  <path class="cls-1" d="m.5,8.08h3.06c.45,0,.81.36.81.81v2.78c0,.45-.36.81-.81.81h-1.53c-.84,0-1.52-.68-1.52-1.52v-2.89h0Z"/>
  <path class="cls-1" d="m12.36,8.08h1.53c.45,0,.81.36.81.81v2.78c0,.45-.36.81-.81.81h-3.06v-2.89c0-.84.68-1.52,1.52-1.52Z" transform="translate(25.55 20.58) rotate(-180)"/>
  <path class="cls-1" d="m.5,10.97v2.74c0,1.19.96,2.15,2.15,2.15h.72s3.73,0,3.73,0"/>
  <path class="cls-1" d="m.5,7.6h0C.5,3.68,3.47.5,7.6.5h0c4.17,0,7.1,3.18,7.1,7.1h0"/>
</svg>