<?xml version="1.0" encoding="UTF-8"?><svg id="uuid-5ee00e3a-dbd1-4da7-84e2-f84b31f6dc35" xmlns="http://www.w3.org/2000/svg" width="17.97" height="16.1" viewBox="0 0 17.97 16.1"><path d="m11.54,15.6c3.67,0,5.93-1.87,5.93-4.19h0s-3.91,0-3.91,0l-.99,1.53h-7.17s-.99-1.53-.99-1.53H.5s0,0,0,0c0,2.31,2.26,4.19,5.93,4.19h5.12Z" fill="none" stroke="#000" stroke-linejoin="round"/><path d="m2.39,11.41v-7.01c0-1.07.87-1.93,1.93-1.93h1.94" fill="none" stroke="#000" stroke-linejoin="round"/><line x1="15.58" y1="8.6" x2="15.58" y2="11.24" fill="none" stroke="#000" stroke-linejoin="round"/><path d="m8.84,3.65c0,2.96,1.5,3.34,3.34,3.34h-.05c1.85,0,3.34-.38,3.34-3.34" fill="none" stroke="#000" stroke-linejoin="round"/><rect x="11.02" y=".5" width="2.31" height="4.06" rx=".68" ry=".68" fill="none" stroke="#000" stroke-linejoin="round"/><line x1="12.18" y1="6.99" x2="12.18" y2="9.31" fill="none" stroke="#000" stroke-linejoin="round"/></svg>