<?xml version="1.0" encoding="UTF-8"?>
<svg id="Layer_1" data-name="Layer 1" xmlns="http://www.w3.org/2000/svg" viewBox="0 0 15.6 16.21">
  <defs>
    <style>
      .cls-1 {
        fill: none;
        stroke: #000;
      }
    </style>
  </defs>
  <path class="cls-1" d="m12.04,9.78c.78-.94,1.25-2.16,1.25-3.48C13.29,3.06,10.48.48,7.17.86c-1.09.12-2.1.59-2.9,1.28"/>
  <path class="cls-1" d="m3.26,3.26c-.45.67-.76,1.45-.87,2.28-.33,2.47.99,4.66,3,5.66l.44,3.31c.09.69.68,1.2,1.37,1.2h1.23c.69,0,1.28-.51,1.37-1.2l.44-3.31c.21-.11.42-.22.61-.35"/>
  <line class="cls-1" x1="5.67" y1="12.61" x2="9.96" y2="12.61"/>
  <line class="cls-1" x1=".35" y1=".35" x2="15.25" y2="15.25"/>
</svg>