<?xml version="1.0" encoding="UTF-8"?><svg id="uuid-fc9b8949-12af-4274-9a7b-817b6b4b3506" xmlns="http://www.w3.org/2000/svg" width="16.95" height="16.02" viewBox="0 0 16.95 16.02"><path d="m8.41,1c.34,0,.62.28.62.62v4.42l1.09-.1,3.68-.35c.06,0,.12,0,.18,0,1.06,0,1.92.86,1.92,1.92l.04,1v4.59c0,1.06-.86,1.92-1.92,1.92H1v-7.53h3.2l.2-.74,1.43-5.29c.07-.27.32-.46.6-.46h1.98m0-1h-1.98c-.73,0-1.38.49-1.57,1.2l-1.43,5.29H.9c-.5,0-.9.4-.9.9v7.72c0,.5.4.9.9.9h13.13c1.61,0,2.92-1.31,2.92-2.92v-5.59h-.04c0-1.63-1.32-2.92-2.92-2.92-.09,0-.19,0-.28.01l-3.68.35V1.62c0-.9-.73-1.62-1.62-1.62h0Z" stroke-width="0"/><line x1="3.78" y1="7.1" x2="3.78" y2="16.02" fill="none" stroke="#000" stroke-miterlimit="10"/></svg>