<?xml version="1.0" encoding="UTF-8"?>
<svg id="Layer_1" data-name="Layer 1" xmlns="http://www.w3.org/2000/svg" viewBox="0 0 17.69 12.9">
  <defs>
    <style>
      .cls-1 {
        fill: none;
        stroke: #000;
        stroke-miterlimit: 10;
      }
    </style>
  </defs>
  <path class="cls-1" d="m7.69,5.22c-1.11,1.11-1.11,2.92,0,4.04l.75.75c1.11,1.11,2.92,1.11,4.04,0l3.88-3.88c1.11-1.11,1.11-2.92,0-4.04l-.75-.75c-1.11-1.11-2.92-1.11-4.04,0l-.45.45"/>
  <path class="cls-1" d="m10,7.69c1.11-1.11,1.11-2.92,0-4.04l-.75-.75c-1.11-1.11-2.92-1.11-4.04,0l-3.88,3.88c-1.11,1.11-1.11,2.92,0,4.04l.75.75c1.11,1.11,2.92,1.11,4.04,0l.45-.45"/>
</svg>