<?xml version="1.0" encoding="UTF-8"?><svg id="uuid-a60c9afb-072b-4751-90f2-46b5354d989f" xmlns="http://www.w3.org/2000/svg" width="19" height="20.04" viewBox="0 0 19 20.04"><path d="m18.5,7.38h0c0,.88-.44,1.71-1.17,2.2l-7.85,5.3L1.67,9.6c-.73-.49-1.17-1.32-1.17-2.2h0" fill="none" stroke="#000" stroke-linejoin="round"/><path d="m17.05,5.68l.66.47c.5.35.8.93.8,1.54v9.59c0,1.25-1.01,2.27-2.27,2.27H2.76c-1.25,0-2.26-1.01-2.26-2.26V7.71c0-.63.31-1.21.83-1.56l.7-.47" fill="none" stroke="#000" stroke-linejoin="round"/><polyline points="3.68 8.3 3.68 .5 15.32 .5 15.32 8.3" fill="none" stroke="#000" stroke-linejoin="round"/></svg>