<?xml version="1.0" encoding="UTF-8"?>
<svg id="Layer_1" data-name="Layer 1" xmlns="http://www.w3.org/2000/svg" viewBox="0 0 14.95 15.75">
  <defs>
    <style>
      .cls-1 {
        stroke-linejoin: round;
      }

      .cls-1, .cls-2 {
        fill: none;
        stroke: #000;
      }

      .cls-2 {
        stroke-linecap: round;
      }
    </style>
  </defs>
  <path class="cls-1" d="m14.44,5.83h0c0,.68-.34,1.32-.91,1.7l-6.08,4.1L1.41,7.55c-.57-.38-.91-1.02-.91-1.7h0"/>
  <path class="cls-1" d="m13.83,4.87c.39.27.62.72.62,1.19v7.43c0,.97-.78,1.76-1.76,1.76H2.25c-.97,0-1.75-.78-1.75-1.75v-7.42c0-.49.24-.94.64-1.21"/>
  <path class="cls-2" d="m7.46,1.63l-.45-.45h0c-.91-.91-2.39-.91-3.3,0h0c-.91.91-.91,2.39,0,3.3l.45.45s2.32,1.93,3.08,2.89c.12.15.34.15.46,0,.75-.95,3.08-2.89,3.08-2.89l.45-.45c.91-.91.91-2.39,0-3.3h0c-.91-.91-2.39-.91-3.3,0h0l-.45.45Z"/>
</svg>