<?xml version="1.0" encoding="UTF-8"?><svg id="uuid-aa9cd141-1cc6-48ca-bc50-f405300deef2" xmlns="http://www.w3.org/2000/svg" width="19" height="19.59" viewBox="0 0 19 19.59"><path d="m18.5,6.92h0c0,.88-.44,1.71-1.17,2.2l-7.85,5.3L1.67,9.14c-.73-.49-1.17-1.32-1.17-2.2h0" fill="none" stroke="#000" stroke-linejoin="round"/><path d="m17.05,5.22l.66.47c.5.35.8.93.8,1.54v9.59c0,1.25-1.01,2.27-2.27,2.27H2.76c-1.25,0-2.26-1.01-2.26-2.26V7.26c0-.63.31-1.21.83-1.56l.7-.47" fill="none" stroke="#000" stroke-linejoin="round"/><path d="m9.5,1.94l-.57-.57h0c-1.16-1.16-3.04-1.16-4.2,0h0c-1.16,1.16-1.16,3.04,0,4.2l.57.57s2.95,2.46,3.91,3.67c.15.19.43.19.58,0,.95-1.21,3.91-3.67,3.91-3.67l.57-.57c1.16-1.16,1.16-3.04,0-4.2h0c-1.16-1.16-3.04-1.16-4.2,0h0s-.57.57-.57.57Z" fill="none" stroke="#000" stroke-linecap="round"/></svg>