<?xml version="1.0" encoding="UTF-8"?>
<svg id="Layer_1" data-name="Layer 1" xmlns="http://www.w3.org/2000/svg" viewBox="0 0 13.23 14.44">
  <defs>
    <style>
      .cls-1 {
        fill: none;
        stroke: #000;
        stroke-miterlimit: 10;
      }
    </style>
  </defs>
  <path class="cls-1" d="m6.61,1.25c-2.05-.01-3.79-.35-5.1-.72-.49-.14-.98.21-.99.73-.06,3.18-.38,12.68,6.09,12.68S12.77,4.44,12.71,1.26c-.01-.51-.5-.87-.99-.73-1.32.37-3.06.71-5.1.72Z"/>
  <path class="cls-1" d="m2.55,6.39c.09-.1.56-.6,1.34-.63.88-.04,1.44.55,1.52.63"/>
  <path class="cls-1" d="m9.04,9.85c-.16.18-.99,1.06-2.36,1.12-1.56.07-2.54-.97-2.68-1.12"/>
  <path class="cls-1" d="m7.53,6.39c.09-.1.56-.6,1.34-.63.88-.04,1.44.55,1.52.63"/>
</svg>