<?xml version="1.0" encoding="UTF-8"?>
<svg id="Layer_1" data-name="Layer 1" xmlns="http://www.w3.org/2000/svg" viewBox="0 0 16.11 15.83">
  <defs>
    <style>
      .cls-1 {
        fill: none;
        stroke: #000;
        stroke-miterlimit: 10;
      }
    </style>
  </defs>
  <path class="cls-1" d="m12.57.9v10.06c0,.32-.37.52-.63.32-.49-.36-1.24-.79-2.12-.92-3.56-.53-9.33.49-9.33-4.46S6.26,2.01,9.83,1.49c.88-.13,1.63-.56,2.12-.91.26-.19.63,0,.63.32Z"/>
  <line class="cls-1" x1="4.27" y1="1.94" x2="4.27" y2="9.87"/>
  <path class="cls-1" d="m7.11,10.23l1.01,3.97c.09.33-.12.68-.45.76l-1.37.35c-.33.09-.68-.12-.76-.45l-1.28-4.99"/>
  <path class="cls-1" d="m14.1,7.41h1.14c.2,0,.37-.11.37-.23v-2.57c0-.12-.17-.23-.37-.23h-1.14"/>
</svg>