<?xml version="1.0" encoding="UTF-8"?>
<svg id="Layer_1" data-name="Layer 1" xmlns="http://www.w3.org/2000/svg" viewBox="0 0 17.98 17.98">
  <defs>
    <style>
      .cls-1 {
        fill: none;
        stroke: #000;
        stroke-miterlimit: 10;
      }
    </style>
  </defs>
  <g>
    <path class="cls-1" d="m15.18,7.91l.43,3.99,1.85,2.27c.06.04.03.13-.04.13"/>
    <path class="cls-1" d="m3.79,3.81c.79-1.37,2.3-2.73,5.21-2.73.3,0,.58.01.86.04"/>
    <path class="cls-1" d="m11.43,14.29H.57c-.07,0-.1-.09-.04-.13l1.85-2.27.56-5.33"/>
    <path class="cls-1" d="m6.54,15.93v1.14c0,.2.17.37.37.37h4.15c.2,0,.37-.17.37-.37v-1.14"/>
  </g>
  <line class="cls-1" x1=".63" y1=".65" x2="17.6" y2="17.63"/>
  <line class="cls-1" x1="17.41" y1="14.3" x2="14.27" y2="14.29"/>
  <path class="cls-1" d="m17.03,3.3c0,1.29-.87,2.37-2.06,2.69-.23.07-.48.1-.73.1-1.54,0-2.79-1.25-2.79-2.79,0-.59.19-1.15.51-1.6.5-.73,1.34-1.2,2.28-1.2,1.54,0,2.79,1.25,2.79,2.8Z"/>
  <path class="cls-1" d="m6.55,15.93v1.14c0,.2.17.37.37.37h4.15c.2,0,.37-.17.37-.37v-1.14"/>
</svg>