<?xml version="1.0" encoding="UTF-8"?>
<svg id="Layer_1" data-name="Layer 1" xmlns="http://www.w3.org/2000/svg" viewBox="0 0 17.98 17.94">
  <defs>
    <style>
      .cls-1 {
        fill: none;
        stroke: #000;
        stroke-miterlimit: 10;
      }
    </style>
  </defs>
  <path class="cls-1" d="m17.02,3.3c0,1.29-.87,2.37-2.06,2.69-.23.07-.48.1-.73.1-1.54,0-2.79-1.25-2.79-2.79,0-.59.19-1.15.51-1.6.5-.73,1.34-1.2,2.28-1.2,1.54,0,2.79,1.25,2.79,2.8Z"/>
  <path class="cls-1" d="m15.17,7.91l.43,3.99,1.85,2.27s.03.13-.04.13H.57c-.07,0-.09-.09-.04-.13l1.85-2.27.57-5.33s.22-5.49,6.04-5.49c.3,0,.58.01.85.04"/>
  <path class="cls-1" d="m6.54,15.93v1.14c0,.2.17.37.37.37h4.15c.2,0,.37-.17.37-.37v-1.14"/>
</svg>