<?xml version="1.0" encoding="UTF-8"?>
<svg id="Layer_1" data-name="Layer 1" xmlns="http://www.w3.org/2000/svg" viewBox="0 0 17.04 17.2">
  <defs>
    <style>
      .cls-1 {
        fill: none;
        stroke: #000;
        stroke-miterlimit: 10;
      }
    </style>
  </defs>
  <g>
    <path class="cls-1" d="m3.56,3.73c.73-1.31,2.16-2.63,4.94-2.63.29,0,.56.01.82.04"/>
    <path class="cls-1" d="m10.81,13.54H.57c-.07,0-.09-.08-.04-.12l1.74-2.14.53-5.02"/>
    <path class="cls-1" d="m14.31,7.3l.43,3.99,1.74,2.14c.06.04.03.12-.04.12h-.01s-3.05-.01-3.05-.01"/>
    <path class="cls-1" d="m6.06,15.18v1.14c0,.2.17.37.37.37h4.15c.2,0,.37-.17.37-.37v-1.14"/>
  </g>
  <circle class="cls-1" cx="13.46" cy="3.15" r="2.65"/>
  <line class="cls-1" x1=".45" y1=".61" x2="16.68" y2="16.85"/>
</svg>