<?xml version="1.0" encoding="UTF-8"?>
<svg id="Layer_1" data-name="Layer 1" xmlns="http://www.w3.org/2000/svg" viewBox="0 0 17.14 17.15">
  <defs>
    <style>
      .cls-1 {
        fill: none;
        stroke: #000;
        stroke-miterlimit: 10;
      }
    </style>
  </defs>
  <polygon class="cls-1" points="10.4 9.63 10.4 7.52 8.57 6.47 6.74 7.52 6.74 9.63 8.57 10.68 10.4 9.63"/>
  <path class="cls-1" d="m6.74,7.52l4.25-2.45c.43-.25.96-.25,1.39,0l2.11,1.22c1.32.76,2.14,2.17,2.14,3.7h0c0,1.57-1.27,2.84-2.84,2.84h-.29"/>
  <path class="cls-1" d="m6.74,9.63v-4.91c0-.5.27-.96.7-1.2l2.11-1.22c1.32-.76,2.95-.76,4.27,0h0c1.36.78,1.82,2.52,1.04,3.87l-.14.25"/>
  <path class="cls-1" d="m8.57,10.68l-4.25-2.45c-.43-.25-.7-.71-.7-1.2v-2.44c0-1.53.81-2.94,2.14-3.7h0c1.36-.78,3.09-.32,3.87,1.04l.14.25"/>
  <path class="cls-1" d="m10.4,9.63l-4.25,2.45c-.43.25-.96.25-1.39,0l-2.11-1.22c-1.32-.76-2.14-2.17-2.14-3.7h0c0-1.57,1.27-2.84,2.84-2.84h.29"/>
  <path class="cls-1" d="m10.4,7.52v4.91c0,.5-.27.96-.7,1.2l-2.11,1.22c-1.32.76-2.95.76-4.27,0h0c-1.36-.78-1.82-2.52-1.04-3.87l.14-.25"/>
  <path class="cls-1" d="m8.57,6.47l4.25,2.45c.43.25.7.71.7,1.2v2.44c0,1.53-.81,2.94-2.14,3.7h0c-1.36.78-3.09.32-3.87-1.04l-.14-.25"/>
</svg>