<?xml version="1.0" encoding="UTF-8"?>
<svg id="Layer_1" data-name="Layer 1" xmlns="http://www.w3.org/2000/svg" viewBox="0 0 17.41 15.29">
  <defs>
    <style>
      .cls-1 {
        fill: none;
        stroke: #000;
        stroke-miterlimit: 10;
      }
    </style>
  </defs>
  <path class="cls-1" d="m16.91,7.65c0,1.97-.8,3.75-2.09,5.05-1.29,1.29-3.08,2.09-5.05,2.09h0c-1.16,0-2.3-.33-3.28-.96l-2.32-1.47c-.23-.15-.53.02-.53.29v1.39c0,.2-.16.36-.36.36H.86c-.2,0-.36-.16-.36-.36v-3.63c0-1.34,1.09-2.43,2.43-2.43h0c.46,0,.92.13,1.31.38l1.82,1.16c.84.53,1.93-.07,1.93-1.06v-4.37c0-.25-.2-.45-.45-.45h-2.95c-.22,0-.4-.18-.4-.4V.9c0-.22.18-.4.4-.4h5.18c3.94,0,7.14,3.2,7.14,7.15Z"/>
</svg>