<?xml version="1.0" encoding="UTF-8"?>
<svg id="Layer_1" data-name="Layer 1" xmlns="http://www.w3.org/2000/svg" viewBox="0 0 17.47 16.34">
  <defs>
    <style>
      .cls-1 {
        fill: none;
        stroke: #000;
        stroke-miterlimit: 10;
      }
    </style>
  </defs>
  <path class="cls-1" d="m5.86,2.34h-1.68c-.64,0-1.24.29-1.63.8l-1.61,2.07c-.28.36-.44.81-.44,1.27v5.98c0,1.87,1.51,3.38,3.38,3.38h0c1.87,0,3.38-1.51,3.38-3.38v-1.29"/>
  <path class="cls-1" d="m7.26,0v4.2c0,1.11-.9,2.01-2.01,2.01h-1.13"/>
  <path class="cls-1" d="m11.62,2.34h1.68c.64,0,1.24.29,1.63.8l1.61,2.07c.28.36.44.81.44,1.27v5.98c0,1.87-1.51,3.38-3.38,3.38h0c-1.87,0-3.38-1.51-3.38-3.38v-1.29"/>
  <path class="cls-1" d="m10.21,0v4.2c0,1.11.9,2.01,2.01,2.01h1.13"/>
  <path class="cls-1" d="m12.53,9.38s-1.69-.57-2.79-.93c-.6-.2-1.25-.2-1.85,0l-2.79.93"/>
</svg>