<?xml version="1.0" encoding="UTF-8"?>
<svg id="Layer_1" data-name="Layer 1" xmlns="http://www.w3.org/2000/svg" viewBox="0 0 36.06 15.87">
  <defs>
    <style>
      .cls-1 {
        fill: none;
        stroke: #000;
        stroke-miterlimit: 10;
      }
    </style>
  </defs>
  <path class="cls-1" d="m25.61.5h8.77c.09,0,.17.08.17.17v7.69h-9.11V.67c0-.09.08-.17.17-.17Z"/>
  <path class="cls-1" d="m24.43,8.53v2.08c0,.62.5,1.12,1.12,1.12h2.8l-.28,2.91c-.04.39.27.73.66.73h2.51c.39,0,.7-.34.66-.73l-.28-2.91h2.8c.62,0,1.12-.5,1.12-1.12v-2.08c0-.09-.08-.17-.17-.17h-10.79c-.09,0-.17.08-.17.17Z"/>
  <line class="cls-1" x1="28.33" y1=".5" x2="28.33" y2="5.18"/>
  <line class="cls-1" x1="31.72" y1=".5" x2="31.72" y2="3.31"/>
</svg>