<?xml version="1.0" encoding="UTF-8"?>
<svg id="Layer_1" data-name="Layer 1" xmlns="http://www.w3.org/2000/svg" viewBox="0 0 14.99 15.43">
  <defs>
    <style>
      .cls-1 {
        fill: none;
        stroke: #000;
        stroke-miterlimit: 10;
      }
    </style>
  </defs>
  <path class="cls-1" d="m5.66,3.76l5.68,5.68c-.4,1.75-1.28,3.54-3.65,4.93-.29.17-.58.31-.85.44-.56.25-1.21.1-1.59-.38L.61,8.53c-.24-.31-.07-.76.31-.82.62-.1,1.42-.33,2.22-.83,1.68-1.05,2.32-2.59,2.51-3.11h.01Z"/>
  <path class="cls-1" d="m12.5,10.36l1.47-1.47c.44-.44.44-1.15,0-1.58l-1.98-1.98,2.26-1.87c.3-.25.32-.71.05-.98l-1.78-1.78c-.28-.28-.73-.26-.98.05l-1.87,2.26-1.98-1.98c-.44-.44-1.15-.44-1.58,0l-1.47,1.47c-.07.07-.07.18,0,.24l7.63,7.63c.07.07.18.07.24,0h-.01Z"/>
  <line class="cls-1" x1="1.48" y1="9.62" x2="9.4" y2="13.08"/>
</svg>