<?xml version="1.0" encoding="UTF-8"?>
<svg id="Layer_1" data-name="Layer 1" xmlns="http://www.w3.org/2000/svg" viewBox="0 0 12.13 15.87">
  <defs>
    <style>
      .cls-1 {
        fill: none;
        stroke: #000;
        stroke-miterlimit: 10;
      }
    </style>
  </defs>
  <path class="cls-1" d="m1.7.5h8.77c.09,0,.17.08.17.17v7.69H1.53V.67c0-.09.08-.17.17-.17Z"/>
  <path class="cls-1" d="m.52,8.53v2.08c0,.62.5,1.12,1.12,1.12h2.8l-.28,2.91c-.04.39.27.73.66.73h2.51c.39,0,.7-.34.66-.73l-.28-2.91h2.8c.62,0,1.12-.5,1.12-1.12v-2.08c0-.09-.08-.17-.17-.17H.67c-.09,0-.17.08-.17.17h.02Z"/>
  <line class="cls-1" x1="4.42" y1=".5" x2="4.42" y2="5.18"/>
  <line class="cls-1" x1="7.81" y1=".5" x2="7.81" y2="3.31"/>
</svg>