<?xml version="1.0" encoding="UTF-8"?>
<svg id="Layer_1" data-name="Layer 1" xmlns="http://www.w3.org/2000/svg" viewBox="0 0 14.62 14.53">
  <defs>
    <style>
      .cls-1, .cls-2 {
        stroke: #000;
        stroke-miterlimit: 10;
      }

      .cls-2 {
        fill: none;
      }
    </style>
  </defs>
  <path class="cls-1" d="m12.75,3.55l-.5-.23c-.13-.06-.27-.06-.4,0l-.5.23c-.19.08-.38-.11-.29-.29l.23-.5c.06-.13.06-.27,0-.4l-.23-.5c-.08-.19.11-.38.29-.29l.5.23c.13.06.27.06.4,0l.5-.23c.19-.08.38.11.29.29l-.23.5c-.06.13-.06.27,0,.4l.23.5c.08.19-.11.38-.29.29Z"/>
  <circle class="cls-2" cx="13.74" cy="6.49" r=".38"/>
  <rect class="cls-2" x="7.8" y=".5" width=".61" height=".61"/>
  <path class="cls-2" d="m12.31,10.35L.84,14.02c-.2.06-.39-.13-.33-.33L4.18,2.23c.06-.2.32-.26.46-.11l7.77,7.77c.15.15.09.4-.11.46Z"/>
</svg>