<?xml version="1.0" encoding="UTF-8"?>
<svg id="Layer_1" data-name="Layer 1" xmlns="http://www.w3.org/2000/svg" viewBox="0 0 13.35 15.89">
  <defs>
    <style>
      .cls-1 {
        fill: none;
        stroke: #000;
        stroke-miterlimit: 10;
      }
    </style>
  </defs>
  <path class="cls-1" d="m3.45.8c.04-.17.23-.3.4-.3h4.05c2.03,0,3.26,1.53,2.76,3.41h0c-.51,1.89-2.56,3.41-4.59,3.41h-1.08c-.18,0-.36.13-.4.3l-1.11,4.15c-.04.17-.23.3-.4.3H.75c-.18,0-.29-.13-.24-.3L3.45.8Z"/>
  <path class="cls-1" d="m5.53,4.12c.04-.17.23-.3.4-.3h4.05c2.03,0,3.26,1.53,2.76,3.41h0c-.51,1.89-2.56,3.41-4.59,3.41h-1.08c-.18,0-.36.13-.4.3l-1.11,4.15c-.04.17-.23.3-.4.3h-2.32c-.18,0-.29-.13-.24-.3l2.93-10.97Z"/>
</svg>