<?xml version="1.0" encoding="UTF-8"?>
<svg id="Layer_1" data-name="Layer 1" xmlns="http://www.w3.org/2000/svg" viewBox="0 0 16.2 16.22">
  <defs>
    <style>
      .cls-1 {
        fill: none;
        stroke: #000;
        stroke-miterlimit: 10;
      }
    </style>
  </defs>
  <path class="cls-1" d="m13.4,14.81l.93-.93c.59-.59.59-1.55,0-2.15l-1.7-1.7c-.56-.56-1.45-.66-2.13-.24l-1.36.87-.19-.11c-1.4-.85-2.57-2.04-3.38-3.46h0l.87-1.36c.43-.68.34-1.56-.24-2.13l-1.7-1.7c-.59-.59-1.55-.59-2.15,0l-.93.93c-1.07,1.07-1.21,2.75-.34,3.98h0c2.3,3.23,5.12,6.05,8.35,8.35h0c1.23.87,2.91.73,3.98-.34Z"/>
  <g>
    <line class="cls-1" x1="15.85" y1=".35" x2="10.41" y2="5.8"/>
    <polyline class="cls-1" points="10.41 .64 10.41 5.8 15.58 5.8"/>
  </g>
</svg>