<?xml version="1.0" encoding="UTF-8"?>
<svg id="Layer_1" data-name="Layer 1" xmlns="http://www.w3.org/2000/svg" viewBox="0 0 17.96 14.18">
  <defs>
    <style>
      .cls-1 {
        fill: none;
        stroke: #000;
        stroke-miterlimit: 10;
      }
    </style>
  </defs>
  <path class="cls-1" d="m8.27,7.04c1.09-.08,2.18.02,3.24.31h0l.35,1.58c.18.78.86,1.34,1.68,1.34h2.4c.83,0,1.51-.68,1.52-1.52v-1.32c0-1.51-1.09-2.8-2.57-3.05h0c-3.17-.53-6.39-.63-9.58-.3"/>
  <path class="cls-1" d="m2.7,4.46c-1.29.39-2.2,1.58-2.2,2.97h.01s0,1.32,0,1.32c0,.83.68,1.51,1.52,1.52h2.4c.79,0,1.49-.56,1.68-1.34l.24-1.08"/>
  <line class="cls-1" x1="1.59" y1=".35" x2="15.06" y2="13.83"/>
</svg>