<?xml version="1.0" encoding="UTF-8"?><svg id="uuid-34f88c3b-955d-49da-9cf3-b0911f34a1c7" xmlns="http://www.w3.org/2000/svg" width="17.18" height="17.18" viewBox="0 0 17.18 17.18"><path d="m15.12,15.65l1.05-1.05c.67-.67.67-1.76,0-2.44l-1.93-1.93c-.64-.64-1.64-.75-2.41-.27l-1.54.98-.22-.13c-1.59-.96-2.91-2.31-3.83-3.92h0s.98-1.54.98-1.54c.49-.77.38-1.77-.27-2.41l-1.93-1.93c-.67-.67-1.76-.67-2.44,0l-1.05,1.05C.32,3.27.16,5.18,1.15,6.57h0c2.6,3.66,5.8,6.85,9.46,9.46h0c1.39.99,3.3.83,4.51-.38Z" fill="none" stroke="#000" stroke-miterlimit="10"/></svg>