<?xml version="1.0" encoding="UTF-8"?>
<svg id="Layer_1" data-name="Layer 1" xmlns="http://www.w3.org/2000/svg" viewBox="0 0 15.73 11.36">
  <defs>
    <style>
      .cls-1 {
        fill: none;
        stroke: #000;
        stroke-miterlimit: 10;
      }
    </style>
  </defs>
  <path class="cls-1" d="m13.41,4.05h1.26c.31,0,.55.25.55.55v2.39c0,.31-.25.55-.55.55h-1.26l-1.37,3.31h-1.06l-.29-1.08h-4.82l-.31,1.08h-1.04s-2.13-3.04-2.13-5.32c0,0,0-5.04,4.61-5.04h2.47c3.9,0,3.95,3.16,3.95,3.16v.4Z"/>
  <line class="cls-1" x1="8.35" y1=".5" x2="14.18" y2=".5"/>
  <path class="cls-1" d="m.5,2.94c0,1.3,0,2.6,1.88,2.6"/>
  <line class="cls-1" x1="6.44" y1="3.35" x2="10.27" y2="3.35"/>
</svg>