<?xml version="1.0" encoding="UTF-8"?><svg id="uuid-7ccbbab0-b55b-42ce-9b32-aa3467d04b3d" xmlns="http://www.w3.org/2000/svg" width="17.97" height="16.6" viewBox="0 0 17.97 16.6"><path d="m17.47,5.68v5.37c0,1.04-.84,1.87-1.87,1.87h-3.6v-3.97h-6.07v3.97h-3.56c-1.04,0-1.87-.84-1.87-1.87v-5.38c0-1.04.84-1.87,1.87-1.87h13.21c1.04,0,1.88.84,1.88,1.88Z" fill="none" stroke="#000" stroke-miterlimit="10"/><path d="m12,8.96v6.9c0,.13-.11.24-.24.24h-5.59c-.13,0-.24-.11-.24-.24v-6.9h6.07Z" fill="none" stroke="#000" stroke-miterlimit="10"/><path d="m6.12.5h5.67c.11,0,.2.09.2.2v3.11h-6.07V.7c0-.11.09-.2.2-.2Z" fill="none" stroke="#000" stroke-miterlimit="10"/><circle cx="14.48" cy="6.83" r=".31" fill="none" stroke="#000" stroke-miterlimit="10"/></svg>