<?xml version="1.0" encoding="UTF-8"?>
<svg id="Layer_1" data-name="Layer 1" xmlns="http://www.w3.org/2000/svg" viewBox="0 0 16.9 16.9">
  <defs>
    <style>
      .cls-1 {
        fill: none;
        stroke: #000;
      }
    </style>
  </defs>
  <path class="cls-1" d="m2.83,2.83C5.94-.28,10.97-.28,14.07,2.83c.43.43.81.91,1.12,1.41,1.92,3.07,1.55,7.16-1.12,9.83"/>
  <circle class="cls-1" cx="8.61" cy="8.29" r="1.8"/>
  <line class="cls-1" x1="7.33" y1="9.57" x2="4.12" y2="12.78"/>
  <path class="cls-1" d="m.87,10.85C0,8.11.66,5.01,2.83,2.84,5,.67,8.08.02,10.81.87"/>
  <path class="cls-1" d="m16.02,6.06c.86,2.74.21,5.84-1.96,8.01-2.17,2.17-5.25,2.82-7.98,1.97"/>
  <path class="cls-1" d="m2.84,12.26c.99,0,1.8.81,1.8,1.8,0,.99-.81,1.8-1.8,1.8s-1.8-.81-1.8-1.8.81-1.8,1.8-1.8Z"/>
</svg>