<?xml version="1.0" encoding="UTF-8"?>
<svg id="Layer_1" data-name="Layer 1" xmlns="http://www.w3.org/2000/svg" viewBox="0 0 12.53 15.41">
  <defs>
    <style>
      .cls-1 {
        fill: none;
        stroke: #000;
        stroke-miterlimit: 10;
      }
    </style>
  </defs>
  <path class="cls-1" d="m11.74,14.82l-2.58-1.96-2.58,1.95c-.17.13-.41.13-.59,0l-2.61-1.96-2.58,1.96c-.12.09-.29,0-.29-.14V.6c0-.06.05-.1.1-.1h11.32c.06,0,.1.05.1.1v14.07c0,.15-.17.23-.29.14Z"/>
  <path class="cls-1" d="m4.72,3.93h2.38c.66,0,1.2.54,1.2,1.2v.58c0,.66-.54,1.2-1.2,1.2h-2.38v-2.97h0Z"/>
  <path class="cls-1" d="m4.72,6.9h2.75c.66,0,1.2.54,1.2,1.2v.58c0,.66-.54,1.2-1.2,1.2h-2.75v-2.97h0Z"/>
  <line class="cls-1" x1="3.31" y1="3.93" x2="4.42" y2="3.93"/>
  <line class="cls-1" x1="3.31" y1="9.87" x2="4.42" y2="9.87"/>
  <line class="cls-1" x1="5.31" y1="2.35" x2="5.31" y2="3.93"/>
  <line class="cls-1" x1="5.31" y1="9.87" x2="5.31" y2="11.45"/>
  <line class="cls-1" x1="7.43" y1="2.35" x2="7.43" y2="3.93"/>
  <line class="cls-1" x1="7.43" y1="9.87" x2="7.43" y2="11.45"/>
</svg>