<?xml version="1.0" encoding="UTF-8"?>
<svg id="Layer_1" data-name="Layer 1" xmlns="http://www.w3.org/2000/svg" viewBox="0 0 12.53 15.41">
  <defs>
    <style>
      .cls-1 {
        fill: none;
        stroke: #000;
        stroke-miterlimit: 10;
      }
    </style>
  </defs>
  <path class="cls-1" d="m11.74,14.82l-2.58-1.96-2.58,1.95c-.17.13-.41.13-.59,0l-2.61-1.96-2.58,1.96c-.12.09-.29,0-.29-.14V.6c0-.06.05-.1.1-.1h11.32c.06,0,.1.05.1.1v14.07c0,.15-.17.23-.29.14Z"/>
  <path class="cls-1" d="m8.63,4.12h-3.16c-.63,0-1.15.52-1.15,1.15v.64c0,.63.52,1.15,1.15,1.15h2.01c.63,0,1.15.52,1.15,1.15v.64c0,.63-.52,1.15-1.15,1.15h-4"/>
  <line class="cls-1" x1="6.26" y1="2.51" x2="6.26" y2="4.12"/>
  <line class="cls-1" x1="6.26" y1="10.01" x2="6.26" y2="11.62"/>
</svg>