<?xml version="1.0" encoding="UTF-8"?>
<svg id="Layer_1" data-name="Layer 1" xmlns="http://www.w3.org/2000/svg" viewBox="0 0 12.53 15.41">
  <defs>
    <style>
      .cls-1 {
        fill: none;
        stroke: #000;
        stroke-miterlimit: 10;
      }
    </style>
  </defs>
  <path class="cls-1" d="m11.74,14.82l-2.58-1.96-2.58,1.95c-.17.13-.41.13-.59,0l-2.61-1.96-2.58,1.96c-.12.09-.29,0-.29-.14V.6c0-.06.05-.1.1-.1h11.32c.06,0,.1.05.1.1v14.07c0,.15-.17.23-.29.14Z"/>
  <g>
    <path class="cls-1" d="m4.95,11.58V3.2c0-.09.08-.18.18-.18h1.79c1.28,0,2.32,1.04,2.32,2.32v.13c0,1.28-1.04,2.32-2.32,2.32h-3.45"/>
    <line class="cls-1" x1="3.47" y1="10.09" x2="7.26" y2="10.09"/>
  </g>
</svg>