<?xml version="1.0" encoding="UTF-8"?>
<svg id="Layer_1" data-name="Layer 1" xmlns="http://www.w3.org/2000/svg" viewBox="0 0 12.53 15.41">
  <defs>
    <style>
      .cls-1 {
        fill: none;
        stroke: #000;
        stroke-miterlimit: 10;
      }
    </style>
  </defs>
  <path class="cls-1" d="m11.74,14.82l-2.58-1.96-2.58,1.95c-.17.13-.41.13-.59,0l-2.61-1.96-2.58,1.96c-.12.09-.29,0-.29-.14V.6c0-.06.05-.1.1-.1h11.32c.06,0,.1.05.1.1v14.07c0,.15-.17.23-.29.14Z"/>
  <g>
    <path class="cls-1" d="m9.21,10.01H3.3c.95,0,1.72-.77,1.72-1.72v-3.01c0-1.16.94-2.1,2.1-2.1h0c.58,0,1.1.23,1.48.62"/>
    <line class="cls-1" x1="3.3" y1="6.93" x2="7.21" y2="6.93"/>
  </g>
</svg>