<?xml version="1.0" encoding="UTF-8"?>
<svg id="Layer_1" data-name="Layer 1" xmlns="http://www.w3.org/2000/svg" viewBox="0 0 12.53 15.41">
  <defs>
    <style>
      .cls-1 {
        fill: none;
        stroke: #000;
        stroke-miterlimit: 10;
      }
    </style>
  </defs>
  <path class="cls-1" d="m11.74,14.82l-2.58-1.96-2.58,1.95c-.17.13-.41.13-.59,0l-2.61-1.96-2.58,1.96c-.12.09-.29,0-.29-.14V.6c0-.06.05-.1.1-.1h11.32c.06,0,.1.05.1.1v14.07c0,.15-.17.23-.29.14Z"/>
  <g>
    <line class="cls-1" x1="3.52" y1="4.34" x2="8.85" y2="4.34"/>
    <line class="cls-1" x1="9.68" y1="6.8" x2="2.68" y2="6.8"/>
    <path class="cls-1" d="m5.65,6.8c0,1.64-1.33,2.96-2.96,2.96h0"/>
    <path class="cls-1" d="m7.21,6.8v2.11c0,.47.38.85.85.85h1.45c.16,0,.29-.13.29-.29v-.69"/>
  </g>
</svg>