<?xml version="1.0" encoding="UTF-8"?>
<svg id="Layer_1" data-name="Layer 1" xmlns="http://www.w3.org/2000/svg" viewBox="0 0 12.53 15.41">
  <defs>
    <style>
      .cls-1 {
        fill: none;
        stroke: #000;
        stroke-miterlimit: 10;
      }
    </style>
  </defs>
  <path class="cls-1" d="m11.74,14.82l-2.58-1.96-2.58,1.95c-.17.13-.41.13-.59,0l-2.61-1.96-2.58,1.96c-.12.09-.29,0-.29-.14V.6c0-.06.05-.1.1-.1h11.32c.06,0,.1.05.1.1v14.07c0,.15-.17.23-.29.14Z"/>
  <path class="cls-1" d="m8.98,9.78c-.45.67-1.17,1.07-2.26,1.07-2.22,0-2.9-1.7-2.9-3.79s.67-3.79,2.9-3.79c1.07,0,1.79.39,2.23,1.03"/>
  <line class="cls-1" x1="2.13" y1="5.79" x2="6.24" y2="5.79"/>
  <line class="cls-1" x1="2.13" y1="8.35" x2="6.24" y2="8.35"/>
</svg>