<?xml version="1.0" encoding="UTF-8"?>
<svg id="Layer_1" data-name="Layer 1" xmlns="http://www.w3.org/2000/svg" viewBox="0 0 16.21 13.7">
  <defs>
    <style>
      .cls-1 {
        fill: none;
        stroke: #000;
        stroke-miterlimit: 10;
      }
    </style>
  </defs>
  <path class="cls-1" d="m2.1,11.89H.91c-.23,0-.41-.18-.41-.41v-2.77c0-.23.18-.41.41-.41h8.18V3.26c0-.17.14-.31.31-.31h4.09c.13,0,.25.08.29.2l1.94,5.38v2.88c-.01.23-.19.41-.42.41h-1.88"/>
  <line class="cls-1" x1="11.43" y1="6.67" x2="15.07" y2="6.67"/>
  <circle class="cls-1" cx="3.5" cy="11.82" r="1.37"/>
  <circle class="cls-1" cx="12.04" cy="11.82" r="1.37"/>
  <line class="cls-1" x1="4.87" y1="11.82" x2="10.67" y2="11.82"/>
  <path class="cls-1" d="m9.11,5.74L3.82.77c-.16-.18-.39-.27-.63-.27h-.72c-.44,0-.67.53-.36.85l5.57,6.83"/>
  <line class="cls-1" x1="1.96" y1="6.54" x2="1.96" y2=".83"/>
</svg>