<?xml version="1.0" encoding="UTF-8"?>
<svg id="Layer_1" data-name="Layer 1" xmlns="http://www.w3.org/2000/svg" viewBox="0 0 15.42 15.43">
  <defs>
    <style>
      .cls-1 {
        fill: none;
        stroke: #000;
        stroke-miterlimit: 10;
      }
    </style>
  </defs>
  <path class="cls-1" d="m8.68,10.44l-.78.78c-.14.14-.36.14-.5,0l-3.21-3.21c-.14-.14-.14-.36,0-.5l.78-.78c.08-.08.19-.11.3-.09l.73.15c.19.04.38-.08.42-.27l.33-1.46c.02-.09.07-.18.14-.25l3.5-3.5c.88-.88,2.29-1.09,3.33-.4,1.44.95,1.58,2.91.43,4.06l-3.55,3.55c-.07.07-.15.12-.25.14l-1.46.33c-.19.04-.31.23-.27.42l.15.73c.02.11-.01.22-.09.3Z"/>
  <line class="cls-1" x1=".35" y1="15.08" x2="5.81" y2="9.62"/>
  <line class="cls-1" x1="12.7" y1="2.73" x2="8.44" y2="6.99"/>
</svg>