<?xml version="1.0" encoding="UTF-8"?><svg id="uuid-f29be92e-92bc-482f-ba80-6235301ea4b6" xmlns="http://www.w3.org/2000/svg" width="17.6" height="18.1" viewBox="0 0 17.6 18.1"><path d="m8.8,1c.08,0,.23.03.31.2l7.44,15.85h0s-7.49-1.93-7.49-1.93l-.25-.06-.25.06-7.49,1.92h0S8.49,1.2,8.49,1.2c.08-.17.23-.2.31-.2m0-1c-.49,0-.97.26-1.21.77L.09,16.75c-.31.66.2,1.34.85,1.34.12,0,.25-.02.37-.08l7.49-1.92,7.49,1.92c.13.05.25.08.37.08.64,0,1.15-.69.85-1.34L10.01.77c-.24-.51-.73-.77-1.21-.77h0Z" stroke-width="0"/><line x1="8.8" y1="8.95" x2="8.8" y2="15.3" fill="none" stroke="#000" stroke-miterlimit="10"/></svg>