<?xml version="1.0" encoding="UTF-8"?><svg id="uuid-324a0a9e-cd60-44d4-a06f-ab43dcda08a5" xmlns="http://www.w3.org/2000/svg" width="17.19" height="17.97" viewBox="0 0 17.19 17.97"><path d="m14.99,8.07l1.08-.63c.59-.34.8-1.1.45-1.7l-1.16-2.01c-.34-.59-1.1-.8-1.7-.46l-1.09.63-1.58-.91v-1.25c0-.69-.56-1.24-1.24-1.24h-2.32c-.69,0-1.24.56-1.24,1.24v1.25l-1.58.91-1.08-.63c-.59-.34-1.35-.14-1.7.45l-1.16,2.01c-.34.59-.14,1.35.45,1.7l1.08.62v1.83l-1.08.63c-.59.34-.8,1.1-.45,1.7l1.17,2.02c.34.59,1.1.8,1.7.45l1.08-.63,1.58.91v1.25c0,.69.56,1.24,1.24,1.24h2.32c.69,0,1.24-.56,1.24-1.24v-1.26l1.58-.91,1.09.63c.59.34,1.36.14,1.7-.46l1.16-2.02c.34-.59.14-1.35-.46-1.7l-1.08-.63v-1.83Z" fill="none" stroke="#000" stroke-miterlimit="10"/><circle cx="8.6" cy="8.98" r="2.52" fill="none" stroke="#000" stroke-miterlimit="10"/></svg>