<?xml version="1.0" encoding="UTF-8"?>
<svg id="Layer_1" data-name="Layer 1" xmlns="http://www.w3.org/2000/svg" viewBox="0 0 15.51 14.84">
  <defs>
    <style>
      .cls-1 {
        fill: none;
        stroke: #000;
        stroke-miterlimit: 10;
      }
    </style>
  </defs>
  <path class="cls-1" d="m8.1.7l2.04,3.75c.06.1.15.17.27.2l4.29.85c.3.06.42.44.2.66l-3.01,3.03c-.09.09-.13.21-.11.33l.6,4.39c.04.31-.28.54-.56.4l-3.89-1.98c-.11-.06-.24-.06-.35,0l-3.89,1.98c-.28.14-.6-.09-.56-.4l.6-4.39c.02-.12-.02-.24-.11-.33L.61,6.15c-.22-.22-.1-.59.2-.66l4.29-.85c.11-.02.21-.09.27-.2L7.41.7c.15-.27.54-.27.68,0Z"/>
</svg>