<?xml version="1.0" encoding="UTF-8"?>
<svg id="Layer_1" data-name="Layer 1" xmlns="http://www.w3.org/2000/svg" viewBox="0 0 19.78 14.97">
  <defs>
    <style>
      .cls-1 {
        fill: none;
        stroke: #000;
        stroke-miterlimit: 10;
      }
    </style>
  </defs>
  <path class="cls-1" d="m19,2.85l-3.59-1.96c-.47-.26-1-.39-1.53-.39h-1.64c0,2.15-1.05,2.94-2.35,2.94s-2.35-.78-2.35-2.94h-1.64c-.54,0-1.06.13-1.53.39L.78,2.85c-.26.14-.36.47-.22.73l1.89,3.61c.09.18.28.29.48.29h2.15v5.92c0,.59.48,1.07,1.07,1.07h7.47c.59,0,1.07-.48,1.07-1.07v-5.92h2.15c.2,0,.39-.11.48-.29l1.89-3.61c.14-.26.05-.59-.21-.73h0Z"/>
  <line class="cls-1" x1="5.08" y1="7.49" x2="5.08" y2="3.65"/>
  <line class="cls-1" x1="14.7" y1="7.49" x2="14.7" y2="3.65"/>
</svg>