<?xml version="1.0" encoding="UTF-8"?>
<svg id="Layer_1" data-name="Layer 1" xmlns="http://www.w3.org/2000/svg" viewBox="0 0 56.03 16.75">
  <defs>
    <style>
      .cls-1 {
        fill: none;
        stroke: #000;
        stroke-miterlimit: 10;
      }
    </style>
  </defs>
  <path class="cls-1" d="m55.24,4.61l-3.59-1.96c-.47-.26-1-.39-1.53-.39h-1.64c0,2.15-1.05,2.94-2.35,2.94s-2.35-.78-2.35-2.94h-1.64c-.54,0-1.06.13-1.53.39l-3.59,1.96c-.26.14-.36.47-.22.73l1.89,3.61c.09.18.28.29.48.29h2.15v5.92c0,.59.48,1.07,1.07,1.07h7.47c.59,0,1.07-.48,1.07-1.07v-5.92h2.15c.2,0,.39-.11.48-.29l1.89-3.61c.14-.26.04-.59-.22-.73Z"/>
  <path class="cls-1" d="m5.48,2.26h9.61v12.91c0,.59-.48,1.07-1.07,1.07h-7.47c-.59,0-1.07-.48-1.07-1.07V2.26h0Z"/>
  <polyline class="cls-1" points="5.45 2.26 .67 4.87 2.97 9.25 5.45 9.25"/>
  <polyline class="cls-1" points="15.09 2.26 19.87 4.87 17.57 9.25 15.09 9.25"/>
  <path class="cls-1" d="m7.93,2.26c0-1.3,1.05-1.76,2.35-1.76s2.35.47,2.35,1.76-1.05,2.94-2.35,2.94-2.35-1.64-2.35-2.94Z"/>
  <line class="cls-1" x1="41.32" y1="9.25" x2="41.32" y2="5.41"/>
  <line class="cls-1" x1="50.94" y1="9.25" x2="50.94" y2="5.41"/>
</svg>