<?xml version="1.0" encoding="UTF-8"?>
<svg id="Layer_1" data-name="Layer 1" xmlns="http://www.w3.org/2000/svg" viewBox="0 0 15.59 15.99">
  <defs>
    <style>
      .cls-1 {
        fill: none;
        stroke: #000;
        stroke-miterlimit: 10;
      }
    </style>
  </defs>
  <path class="cls-1" d="m6.42,7.79h1.39v5.46c0,1.01-.82,1.82-1.82,1.82h0c-1.01,0-1.82-.82-1.82-1.82v-3.2c0-1.24,1.01-2.25,2.25-2.25Z"/>
  <path class="cls-1" d="m5.97.5h0c1.01,0,1.82.82,1.82,1.82v1.82h-1.82c-1.01,0-1.82-.82-1.82-1.82h0c0-1.01.82-1.82,1.82-1.82Z"/>
  <path class="cls-1" d="m2.32,7.79h1.82v1.82c0,1.01-.82,1.82-1.82,1.82h0c-1.01,0-1.82-.82-1.82-1.82H.5c0-1.01.82-1.82,1.82-1.82Z"/>
  <path class="cls-1" d="m13.26,4.14h0c1.01,0,1.82.82,1.82,1.82h0c0,1.01-.82,1.82-1.82,1.82h-1.82v-1.82c0-1.01.82-1.82,1.82-1.82Z"/>
  <path class="cls-1" d="m7.8,11.43h1.82c1.01,0,1.82.82,1.82,1.82h0c0,1.01-.82,1.82-1.82,1.82h0c-1.01,0-1.82-.82-1.82-1.82v-1.82h0Z"/>
  <path class="cls-1" d="m10.05.54h1.39v5.46c0,1.01-.82,1.82-1.82,1.82h0c-1.01,0-1.82-.82-1.82-1.82v-3.2c0-1.24,1.01-2.25,2.25-2.25Z" transform="translate(19.23 8.35) rotate(180)"/>
  <path class="cls-1" d="m4.6,2.33h1.39v5.46c0,1.01-.82,1.82-1.82,1.82h0c-1.01,0-1.82-.82-1.82-1.82v-3.2c0-1.24,1.01-2.25,2.25-2.25Z" transform="translate(10.13 1.8) rotate(90)"/>
  <path class="cls-1" d="m11.88,5.97h1.39v5.46c0,1.01-.82,1.82-1.82,1.82h0c-1.01,0-1.82-.82-1.82-1.82v-3.2c0-1.24,1.01-2.25,2.25-2.25Z" transform="translate(1.84 21.06) rotate(-90)"/>
</svg>