<?xml version="1.0" encoding="UTF-8"?>
<svg id="Layer_1" data-name="Layer 1" xmlns="http://www.w3.org/2000/svg" viewBox="0 0 16.29 15.99">
  <defs>
    <style>
      .cls-1 {
        fill: none;
        stroke: #000;
        stroke-miterlimit: 10;
      }
    </style>
  </defs>
  <g>
    <path class="cls-1" d="m6.11,0v1.61c0,.86-.57,1.61-1.39,1.85l-2.73.79c-.88.26-1.49,1.06-1.49,1.98v3.84"/>
    <path class="cls-1" d="m3.45,7.65c.35.77.88,2.21.87,4.08-.01,1.81-.52,3.2-.87,3.96"/>
    <path class="cls-1" d="m10.18,0v1.61c0,.86.57,1.61,1.39,1.85l2.73.79c.88.26,1.49,1.06,1.49,1.98v3.84"/>
    <path class="cls-1" d="m12.84,7.65c-.35.77-.88,2.21-.87,4.08.01,1.81.52,3.2.87,3.96"/>
  </g>
  <path class="cls-1" d="m7.88,4.95c-.26.82-.54,2.07-.29,3.52.26,1.51.83,2.12,1.09,3.65.14.84.22,2.09-.24,3.72"/>
</svg>