<?xml version="1.0" encoding="UTF-8"?><svg id="uuid-76cf8d31-ca6d-4b4b-bb5d-bd726e198583" xmlns="http://www.w3.org/2000/svg" width="16.6" height="15.85" viewBox="0 0 16.6 15.85"><path d="m12.96,2.1h1.7c.8,0,1.44.65,1.44,1.44v2.06" fill="none" stroke="#000" stroke-linejoin="round"/><path d="m10.23,2.28l2.42,1.4c.14.08.3-.02.3-.18V.7c0-.16-.17-.25-.3-.18l-2.42,1.4c-.14.08-.14.27,0,.35Z" stroke="#000" stroke-miterlimit="10"/><path d="m3.64,13.74h-1.7c-.8,0-1.44-.65-1.44-1.44v-2.06" fill="none" stroke="#000" stroke-linejoin="round"/><path d="m6.37,13.57l-2.42-1.4c-.14-.08-.3.02-.3.18v2.8c0,.16.17.25.3.18l2.42-1.4c.14-.08.14-.27,0-.35Z" stroke="#000" stroke-miterlimit="10"/><circle cx="12.75" cy="12" r="3.35" fill="none" stroke="#000" stroke-miterlimit="10"/><circle cx="3.85" cy="3.85" r="3.35" fill="none" stroke="#000" stroke-miterlimit="10"/></svg>