<?xml version="1.0" encoding="UTF-8"?>
<svg id="Layer_1" data-name="Layer 1" xmlns="http://www.w3.org/2000/svg" viewBox="0 0 12.19 15.03">
  <defs>
    <style>
      .cls-1 {
        fill: none;
        stroke: #000;
        stroke-miterlimit: 10;
      }
    </style>
  </defs>
  <path class="cls-1" d="m4.23,5.11c.77-.91,1.9-1.31,2.9-1.02,1.12.32,1.57,1.38,1.72,1.72.51,1.18.37,2.8-.6,3.72-.11.11-.87.79-1.99.76-.02,0-.05,0-.09,0-.6-.03-1.42-.31-1.79-.89-.36-.56-.32-1.45.08-1.97,1.05-1.36,5.26-1.05,6.49,1.31.38.73.39,1.51.31,2.11-.08.57-.3,1.1-.64,1.57-.98,1.36-2.5,2.19-4.59,2.13-2.75-.08-4.96-2.27-5.38-4.99C-.07,4.79,1.71.5,6.24.5c3.02,0,4.82,1.9,5.46,4.58"/>
</svg>