<?xml version="1.0" encoding="UTF-8"?><svg id="uuid-1b255b13-353d-4f3f-968b-a25b0ccdbd5f" xmlns="http://www.w3.org/2000/svg" width="16.95" height="16.02" viewBox="0 0 16.95 16.02"><path d="m14.03,1c1.06,0,1.92.86,1.92,1.92v4.59h-.04v1c0,1.06-.86,1.92-1.92,1.92-.06,0-.12,0-.18,0l-3.68-.35-1.09-.1v4.42c0,.34-.28.62-.62.62h-1.98c-.28,0-.53-.19-.6-.46l-1.43-5.29-.2-.74H1V1h13.03m0-1H.9c-.5,0-.9.4-.9.9v7.72c0,.5.4.9.9.9h2.53l1.43,5.29c.19.71.83,1.2,1.57,1.2h1.98c.9,0,1.62-.73,1.62-1.62v-3.32l3.68.35c.09,0,.19.01.28.01,1.59,0,2.92-1.29,2.92-2.92h.04V2.92c0-1.61-1.31-2.92-2.92-2.92h0Z" stroke-width="0"/><line x1="3.78" y1="8.92" x2="3.78" y2="0" fill="none" stroke="#000" stroke-miterlimit="10"/></svg>