<?xml version="1.0" encoding="UTF-8"?>
<svg id="Layer_1" data-name="Layer 1" xmlns="http://www.w3.org/2000/svg" viewBox="0 0 15.03 16.48">
  <defs>
    <style>
      .cls-1 {
        fill: none;
        stroke: #000;
        stroke-miterlimit: 10;
      }
    </style>
  </defs>
  <path class="cls-1" d="m7.51,10.99c1.63,0,2.54,2.76,2.95,4.49.13.55.86.69,1.18.22,1.12-1.61,2.88-4.91,2.88-9.84v-1.79c0-1.97-1.6-3.57-3.57-3.57,0,0-3.44,0-3.44,0h-3.44C2.1.5.5,2.1.5,4.07v1.79c0,4.92,1.76,8.23,2.88,9.84.32.47,1.05.33,1.18-.22.41-1.73,1.33-4.49,2.95-4.49Z"/>
  <line class="cls-1" x1="3.58" y1="3.24" x2="11.72" y2="6.5"/>
  <line class="cls-1" x1="11.72" y1="3.24" x2="3.58" y2="6.5"/>
</svg>