<?xml version="1.0" encoding="UTF-8"?>
<svg id="Layer_1" data-name="Layer 1" xmlns="http://www.w3.org/2000/svg" viewBox="0 0 14.52 15.47">
  <defs>
    <style>
      .cls-1 {
        fill: none;
        stroke: #000;
        stroke-miterlimit: 10;
      }
    </style>
  </defs>
  <path class="cls-1" d="m11.45,3.91c-.18-.07-.31-.21-.35-.4-.43-1.73-1.98-3.01-3.84-3.01s-3.41,1.29-3.84,3.01c-.05.19-.17.33-.35.4-1.65.62-2.78,2.29-2.54,4.21.22,1.71,1.59,3.13,3.29,3.4,1.34.21,2.58-.26,3.44-1.11.85.85,2.09,1.32,3.44,1.11,1.7-.27,3.08-1.69,3.29-3.4.24-1.92-.89-3.59-2.54-4.21Z"/>
  <line class="cls-1" x1="7.25" y1="4.3" x2="7.25" y2="15.47"/>
  <line class="cls-1" x1="4.19" y1="7.29" x2="7.25" y2="8.88"/>
  <line class="cls-1" x1="10.04" y1="5.85" x2="7.25" y2="7.29"/>
</svg>