<?xml version="1.0" encoding="UTF-8"?>
<svg id="Layer_1" data-name="Layer 1" xmlns="http://www.w3.org/2000/svg" viewBox="0 0 17.72 13.66">
  <defs>
    <style>
      .cls-1 {
        fill: none;
        stroke: #000;
        stroke-miterlimit: 10;
      }
    </style>
  </defs>
  <g>
    <path class="cls-1" d="m10.59,8.25V3.22c0-.17.14-.31.31-.31h4.09c.13,0,.25.08.29.2l1.94,5.38v2.88c-.01.23-.19.41-.42.41h-1.88"/>
    <line class="cls-1" x1="12.93" y1="6.63" x2="16.57" y2="6.63"/>
    <circle class="cls-1" cx="5" cy="11.79" r="1.37"/>
    <circle class="cls-1" cx="13.54" cy="11.79" r="1.37"/>
    <line class="cls-1" x1="6.37" y1="11.79" x2="12.17" y2="11.79"/>
    <path class="cls-1" d="m2,4.49v6.96c0,.23.18.41.41.41h1.19"/>
    <path class="cls-1" d="m10.59,11.85V1.3c0-.44-.36-.8-.8-.8h-3.42"/>
  </g>
  <line class="cls-1" x1="5.32" y1=".5" y2=".5"/>
  <line class="cls-1" x1="6.21" y1="2.91" x2=".86" y2="2.91"/>
</svg>