<?xml version="1.0" encoding="UTF-8"?><svg id="uuid-07465b5c-6c1f-459c-b862-a9de8695f3ca" xmlns="http://www.w3.org/2000/svg" width="16.97" height="18.1" viewBox="0 0 16.97 18.1"><path d="m8.49,1c2.1,0,3.81,1.71,3.81,3.81s-1.71,3.81-3.81,3.81-3.81-1.71-3.81-3.81,1.71-3.81,3.81-3.81m0-1C5.83,0,3.68,2.15,3.68,4.81s2.15,4.81,4.81,4.81,4.81-2.15,4.81-4.81S11.14,0,8.49,0h0Z" stroke-width="0"/><path d="m12.45,10.61c1.94,0,3.52,1.58,3.52,3.52v2.97H1v-2.97c0-1.94,1.58-3.52,3.52-3.52h7.93m0-1h-7.93c-2.5,0-4.52,2.02-4.52,4.52v3.1c0,.48.39.86.86.86h15.24c.48,0,.86-.39.86-.86v-3.1c0-2.5-2.02-4.52-4.52-4.52h0Z" stroke-width="0"/></svg>