<?xml version="1.0" encoding="UTF-8"?>
<svg id="Layer_1" data-name="Layer 1" xmlns="http://www.w3.org/2000/svg" viewBox="0 0 18.23 11.82">
  <defs>
    <style>
      .cls-1 {
        fill: none;
        stroke: #000;
        stroke-miterlimit: 10;
      }
    </style>
  </defs>
  <g>
    <path class="cls-1" d="m9.12,9.48c-1.95,0-2.79,1.84-4.54,1.84-2.84,0-2.84-3.02-2.84-4.38h0c0-2.06,1.67-3.73,3.73-3.73h7.3c2.06,0,3.73,1.67,3.73,3.73h0c0,1.36,0,4.38-2.84,4.38-1.74,0-2.59-1.84-4.54-1.84Z"/>
    <path class="cls-1" d="m3.33,3.85C3.33.65,5.92.5,9.12.5s5.79.16,5.79,3.35"/>
  </g>
  <g>
    <line class="cls-1" x1="17.73" y1="5.76" x2="17.73" y2="9.34"/>
    <line class="cls-1" x1=".5" y1="5.76" x2=".5" y2="9.34"/>
  </g>
</svg>