<?xml version="1.0" encoding="UTF-8"?>
<svg id="Layer_1" data-name="Layer 1" xmlns="http://www.w3.org/2000/svg" viewBox="0 0 39.14 11.82">
  <defs>
    <style>
      .cls-1 {
        fill: none;
        stroke: #000;
        stroke-miterlimit: 10;
      }
    </style>
  </defs>
  <g>
    <path class="cls-1" d="m30.02,9.48c-1.95,0-2.79,1.84-4.54,1.84-2.84,0-2.84-3.02-2.84-4.38h0c0-2.06,1.67-3.73,3.73-3.73,0,0,3.65,0,3.65,0h3.65c2.06,0,3.73,1.67,3.73,3.73h0c0,1.36,0,4.38-2.84,4.38-1.74,0-2.59-1.84-4.54-1.84Z"/>
    <path class="cls-1" d="m24.23,3.85c0-3.2,2.59-3.35,5.79-3.35s5.79.16,5.79,3.35"/>
  </g>
  <g>
    <line class="cls-1" x1="38.64" y1="5.76" x2="38.64" y2="9.34"/>
    <line class="cls-1" x1="21.41" y1="5.76" x2="21.41" y2="9.34"/>
  </g>
</svg>