<?xml version="1.0" encoding="UTF-8"?><svg id="uuid-bb424b77-fda8-46ff-bc35-5132f7827949" xmlns="http://www.w3.org/2000/svg" width="16.43" height="17.97" viewBox="0 0 16.43 17.97"><path d="m2.39,2.55c.24-1.17,1.27-2.05,2.51-2.05h7.85c1.41,0,2.56,1.15,2.56,2.56v7.85c0,1.24-.87,2.27-2.04,2.51" fill="none" stroke="#000" stroke-miterlimit="10"/><path d="m6,6.15c.36-1.22,1.49-2.11,2.82-2.11,1.63,0,2.95,1.32,2.95,2.95,0,1.34-.89,2.46-2.11,2.82" fill="none" stroke="#000" stroke-miterlimit="10"/><path d="m3.99,17.47h4.03c.44,0,.79-.35.8-.79v-3.21s-3.93,0-3.93,0c-1.41,0-2.56-1.15-2.56-2.56v-4.71" fill="none" stroke="#000" stroke-miterlimit="10"/><line x1=".35" y1=".5" x2="16.08" y2="16.22" fill="none" stroke="#000" stroke-linejoin="round"/></svg>