<?xml version="1.0" encoding="UTF-8"?><svg id="uuid-1b239b9c-d2bc-4eff-90cb-11eb43a2c421" xmlns="http://www.w3.org/2000/svg" width="13.78" height="18.35" viewBox="0 0 13.78 18.35"><path d="m6.89,3.23c-.75,0-1.36-.61-1.36-1.36s.61-1.36,1.36-1.36,1.36.61,1.36,1.36-.61,1.36-1.36,1.36Z" stroke-width="0"/><path d="m6.89,1c.48,0,.86.39.86.86s-.39.86-.86.86-.86-.39-.86-.86.39-.86.86-.86m0-1c-1.03,0-1.86.83-1.86,1.86s.83,1.86,1.86,1.86,1.86-.83,1.86-1.86-.83-1.86-1.86-1.86h0Z" stroke-width="0"/><path d="m8.3,12.81c-.15-.91-.35-1.56-1.46-1.56s-1.22.69-1.35,1.57c0-2.16.43-7.12,1.41-7.12s1.41,4.96,1.41,7.11Z" stroke="#000" stroke-miterlimit="10"/><path d="m.25,3.73c.87.5,2.59,1.39,4.59,1.77.38.07,1.1.2,2.05.2" fill="none" stroke="#000" stroke-miterlimit="10"/><path d="m13.53,3.73c-.87.5-2.59,1.39-4.59,1.77-.38.07-1.1.2-2.05.2" fill="none" stroke="#000" stroke-miterlimit="10"/><line x1="8.3" y1="12.81" x2="8.75" y2="18.3" fill="none" stroke="#000" stroke-miterlimit="10"/><line x1="5.49" y1="12.82" x2="5.04" y2="18.31" fill="none" stroke="#000" stroke-miterlimit="10"/></svg>