<?xml version="1.0" encoding="UTF-8"?><svg id="uuid-cb97b2c8-43ef-49ce-98aa-82320caba1f5" xmlns="http://www.w3.org/2000/svg" width="1203.42" height="782.34" viewBox="0 0 1203.42 782.34"><polyline points="1196.19 666.67 1196.19 663.27 1191.12 667.02 1185.72 667.02 1185.72 673.72 1191.12 673.72 1196.19 677.46 1196.19 674.07" fill="none" stroke="#000" stroke-linejoin="round"/><circle cx="1199.56" cy="670.37" r="3.37" fill="none" stroke="#000" stroke-linecap="round" stroke-linejoin="round"/><line x1="1197.3" y1="667.88" x2="1202.05" y2="672.63" fill="none" stroke="#000" stroke-linecap="round" stroke-linejoin="round"/><path d="m1086.19,699.03l-.98-.98h0c-1.99-1.99-5.22-1.99-7.21,0h0c-1.99,1.99-1.99,5.22,0,7.21l.98.98s5.07,4.22,6.71,6.29c.26.33.74.33,1,0,1.63-2.07,6.71-6.29,6.71-6.29l.98-.98c1.99-1.99,1.99-5.22,0-7.21h0c-1.99-1.99-5.22-1.99-7.21,0h0s-.98.98-.98.98Z" fill="none" stroke="#000" stroke-linecap="round"/><path d="m1128.66,703.75l1.08-.63c.59-.34.8-1.1.45-1.7l-1.16-2.01c-.34-.59-1.1-.8-1.7-.46l-1.09.63-1.58-.91v-1.25c0-.69-.56-1.24-1.24-1.24h-2.32c-.69,0-1.24.56-1.24,1.24v1.25l-1.58.91-1.08-.63c-.59-.34-1.35-.14-1.7.45l-1.16,2.01c-.34.59-.14,1.35.45,1.7l1.08.62v1.83l-1.08.63c-.59.34-.8,1.1-.45,1.7l1.17,2.02c.34.59,1.1.8,1.7.45l1.08-.63,1.58.91v1.25c0,.69.56,1.24,1.24,1.24h2.32c.69,0,1.24-.56,1.24-1.24v-1.26l1.58-.91,1.09.63c.59.34,1.36.14,1.7-.46l1.16-2.02c.34-.59.14-1.35-.46-1.7l-1.08-.63v-1.83Z" fill="none" stroke="#000" stroke-miterlimit="10"/><circle cx="1122.27" cy="704.67" r="2.52" fill="none" stroke="#000" stroke-miterlimit="10"/><path d="m1150.5,706.39v3.52c0,1.15.93,2.08,2.08,2.08h10.75c1.15,0,2.08-.93,2.08-2.08v-3.52" fill="none" stroke="#000" stroke-miterlimit="10"/><polyline points="1162.29 702.4 1157.96 706.72 1153.64 702.4" fill="none" stroke="#000" stroke-miterlimit="10"/><line x1="1157.96" y1="706.72" x2="1157.96" y2="697.34" fill="none" stroke="#000" stroke-miterlimit="10"/><path d="m1194.32,731.68l7.42,4.88c.28.18.42.5.38.83l-1.07,9.07h-4.46v-4.81h-4.29v4.81h-4.71l-1.07-9.07c-.04-.33.11-.64.38-.83l7.42-4.88m0-1.2l-7.97,5.24c-.59.39-.91,1.08-.83,1.78l1.09,9.24c.05.4.39.71.8.71h5.09c.44,0,.8-.36.8-.8v-4.01h2.29v4.01c0,.44.36.8.8.8h4.84c.41,0,.75-.3.8-.71l1.09-9.24c.08-.7-.24-1.39-.83-1.78l-7.97-5.24h0Z" stroke-width="0"/><path d="m1093.96,774.85c-1.75-1.75-4.72-1.54-6.18.62-.9,1.33-.89,3.12.02,4.44,1.23,1.79,3.49,2.22,5.22,1.3l1.57.6c.41.16.82-.25.66-.66l-.6-1.57c.81-1.52.58-3.44-.7-4.72Z" fill="none" stroke="#000" stroke-miterlimit="10"/><path d="m1093.13,771.87c-.19-1.84-1.02-3.63-2.48-5.01-2.96-2.8-7.73-2.9-10.8-.23-3.17,2.76-3.61,7.34-1.36,10.62l-.73,1.93c-.21.55.33,1.09.88.88l1.93-.73c1.57,1.08,3.43,1.54,5.25,1.38" fill="none" stroke="#000" stroke-miterlimit="10"/><path d="m1160.65,766.23c.85,0,1.64.5,2,1.27l.35.74c.14.53.62.93,1.2.93.71,0,1.38.31,1.83.86.45.55.64,1.26.5,1.96l-1.29,6.73c-.18.92-.98,1.58-1.91,1.58h-10.74c-.93,0-1.74-.67-1.91-1.58l-1.29-6.73c-.13-.7.05-1.41.5-1.96.45-.55,1.12-.86,1.83-.86.58,0,1.06-.4,1.2-.93l.35-.74c.37-.77,1.15-1.27,2-1.27h5.37m0-1h-5.37c-1.24,0-2.38.72-2.91,1.84l-.41.86c0,.13-.11.24-.24.24-2.12,0-3.71,1.93-3.31,4.01l1.29,6.73c.27,1.39,1.48,2.39,2.89,2.39h10.74c1.41,0,2.63-1,2.89-2.39l1.29-6.73c.4-2.08-1.2-4.01-3.31-4.01-.13,0-.24-.11-.24-.24l-.41-.86c-.53-1.12-1.67-1.84-2.91-1.84h0Z" stroke-width="0"/><path d="m1157.96,770.46c1.82,0,3.29,1.48,3.29,3.29s-1.48,3.29-3.29,3.29-3.29-1.48-3.29-3.29,1.48-3.29,3.29-3.29m0-1c-2.37,0-4.29,1.92-4.29,4.29s1.92,4.29,4.29,4.29,4.29-1.92,4.29-4.29-1.92-4.29-4.29-4.29h0Z" stroke-width="0"/><path d="m.5,17.24V3.43C.5,1.81,1.81.5,3.43.5h6.31c1.62,0,2.93,1.31,2.93,2.93v13.81c0,.11-.12.17-.21.11l-5.87-3.83-5.87,3.83c-.09.06-.21,0-.21-.11Z" fill="none" stroke="#000" stroke-miterlimit="10"/></svg>