<?xml version="1.0" encoding="UTF-8"?><svg id="uuid-b2c17861-ecfb-4ce8-973d-bacc6ab59dff" xmlns="http://www.w3.org/2000/svg" width="16.83" height="17.02" viewBox="0 0 16.83 17.02"><path d="m.63,5.19l4.62-.1.48-4.48c.01-.11.15-.16.23-.07l3.02,3.47,3.74-2.33c.1-.06.22.02.2.13l-.76,4.44,4.09,1.55c.11.04.11.19.02.24l-3.88,2.09,2.56,5.68s-.02.06-.05.04l-5.41-3.13-2.6,3.73c-.07.09-.21.07-.24-.05l-1-4.32-4.6.37c-.11,0-.18-.12-.11-.21l2.82-3.56L.54,5.42c-.08-.08-.02-.22.09-.22Z" fill="none" stroke="#000" stroke-miterlimit="10"/></svg>