<?xml version="1.0" encoding="utf-8"?>
<!-- Generator: Adobe Illustrator 28.0.0, SVG Export Plug-In . SVG Version: 6.00 Build 0)  -->
<svg version="1.1" id="Layer_1" xmlns="http://www.w3.org/2000/svg" xmlns:xlink="http://www.w3.org/1999/xlink" x="0px" y="0px"
	 viewBox="0 0 24 24" style="enable-background:new 0 0 24 24;" xml:space="preserve">
<style type="text/css">
	.st0{fill:none;stroke:#000000;stroke-linejoin:round;}
	.st1{fill:none;stroke:#000000;stroke-linecap:round;stroke-linejoin:round;}
	.st2{fill:none;stroke:#000000;stroke-linecap:round;}
</style>
<g>
	<polyline class="st0" points="1201.6,669.7 1201.6,666.3 1196.5,670.1 1191.1,670.1 1191.1,676.8 1196.5,676.8 1201.6,680.5 
		1201.6,677.1 	"/>
	<circle class="st1" cx="1205" cy="673.4" r="3.4"/>
	<line class="st1" x1="1202.7" y1="670.9" x2="1207.5" y2="675.7"/>
</g>
<path class="st2" d="M1091.6,702.1l-1-1l0,0c-2-2-5.2-2-7.2,0l0,0c-2,2-2,5.2,0,7.2l1,1c0,0,5.1,4.2,6.7,6.3c0.3,0.3,0.7,0.3,1,0
	c1.6-2.1,6.7-6.3,6.7-6.3l1-1c2-2,2-5.2,0-7.2l0,0c-2-2-5.2-2-7.2,0l0,0C1092.6,701.1,1091.6,702.1,1091.6,702.1z"/>
<path class="st2" d="M12,6.4l-1-1l0,0c-2-2-5.2-2-7.2,0l0,0c-2,2-2,5.2,0,7.2l1,1c0,0,5.1,4.2,6.7,6.3c0.3,0.3,0.7,0.3,1,0
	c1.6-2.1,6.7-6.3,6.7-6.3l1-1c2-2,2-5.2,0-7.2l0,0c-2-2-5.2-2-7.2,0l0,0C13,5.4,12,6.4,12,6.4z"/>
</svg>
