<?xml version="1.0" encoding="UTF-8"?><svg id="uuid-0aa7fa85-9516-4c85-8698-bfadaa237587" xmlns="http://www.w3.org/2000/svg" width="17.62" height="16.97" viewBox="0 0 17.62 16.97"><path d="m8.81,1.2l7.42,4.88c.28.18.42.5.38.83l-1.07,9.07h-4.46v-4.81h-4.29v4.81H2.08L1.01,6.9c-.04-.33.11-.64.38-.83L8.81,1.2m0-1.2L.84,5.24C.25,5.63-.07,6.32.01,7.02l1.09,9.24c.05.4.39.71.8.71h5.09c.44,0,.8-.36.8-.8v-4.01h2.29v4.01c0,.44.36.8.8.8h4.84c.41,0,.75-.3.8-.71l1.09-9.24c.08-.7-.24-1.39-.83-1.78L8.81,0h0Z" stroke-width="0"/></svg>