<?xml version="1.0" encoding="UTF-8"?><svg id="uuid-bcda9637-f9c4-46e8-899b-cbd32eaaf260" xmlns="http://www.w3.org/2000/svg" width="16.97" height="16.97" viewBox="0 0 16.97 16.97"><path d="m14.55,1c.78,0,1.42.64,1.42,1.42v12.14c0,.78-.64,1.42-1.42,1.42H2.42c-.78,0-1.42-.64-1.42-1.42V2.42c0-.78.64-1.42,1.42-1.42h12.14m0-1H2.42C1.08,0,0,1.08,0,2.42v12.14c0,1.33,1.08,2.42,2.42,2.42h12.14c1.33,0,2.42-1.08,2.42-2.42V2.42c0-1.33-1.08-2.42-2.42-2.42h0Z" stroke-width="0"/><path d="m1.06,15.79L9.56,7.29c.87-.87,2.29-.87,3.17,0l3.73,3.73" fill="none" stroke="#000" stroke-miterlimit="10"/><path d="m5.5,4.6c.46,0,.83.37.83.83s-.37.83-.83.83-.83-.37-.83-.83.37-.83.83-.83m0-1c-1.01,0-1.83.82-1.83,1.83s.82,1.83,1.83,1.83,1.83-.82,1.83-1.83-.82-1.83-1.83-1.83h0Z" stroke-width="0"/></svg>