<?xml version="1.0" encoding="utf-8"?>
<!-- Generator: Adobe Illustrator 28.0.0, SVG Export Plug-In . SVG Version: 6.00 Build 0)  -->
<svg version="1.1" id="Layer_1" xmlns="http://www.w3.org/2000/svg" xmlns:xlink="http://www.w3.org/1999/xlink" x="0px" y="0px"
	 viewBox="0 0 24 24" style="enable-background:new 0 0 24 24;" xml:space="preserve">
<style type="text/css">
	.st0{fill:none;stroke:#000000;stroke-miterlimit:10;}
</style>
<g>
	<g>
		<path d="M18.1,4.5c0.8,0,1.4,0.6,1.4,1.4v12.1c0,0.8-0.6,1.4-1.4,1.4H6c-0.8,0-1.4-0.6-1.4-1.4V5.9c0-0.8,0.6-1.4,1.4-1.4H18.1
			 M18.1,3.5H6c-1.3,0-2.4,1.1-2.4,2.4v12.1c0,1.3,1.1,2.4,2.4,2.4h12.1c1.3,0,2.4-1.1,2.4-2.4V5.9C20.6,4.6,19.5,3.5,18.1,3.5
			L18.1,3.5z"/>
	</g>
	<path class="st0" d="M4.6,19.3l8.5-8.5c0.9-0.9,2.3-0.9,3.2,0l3.7,3.7"/>
	<g>
		<path d="M9.1,8.1c0.5,0,0.8,0.4,0.8,0.8S9.5,9.8,9.1,9.8S8.3,9.4,8.3,9S8.6,8.1,9.1,8.1 M9.1,7.1c-1,0-1.8,0.8-1.8,1.8
			s0.8,1.8,1.8,1.8S10.9,10,10.9,9S10.1,7.1,9.1,7.1L9.1,7.1z"/>
	</g>
</g>
</svg>
