<?xml version="1.0" encoding="UTF-8"?><svg id="uuid-8f288293-2669-4890-9539-11da2f884a4c" xmlns="http://www.w3.org/2000/svg" width="17.97" height="15.11" viewBox="0 0 17.97 15.11"><path d="m11.55,14.61c3.67,0,5.93-1.87,5.93-4.19h0s-3.91,0-3.91,0l-.99,1.53h-7.17s-.99-1.53-.99-1.53H.5s0,0,0,0c0,2.31,2.26,4.19,5.93,4.19h5.12Z" fill="none" stroke="#000" stroke-linejoin="round"/><path d="m2.39,10.43V3.42c0-1.07.87-1.93,1.93-1.93h1.94" fill="none" stroke="#000" stroke-linejoin="round"/><line x1="15.59" y1="7.62" x2="15.59" y2="10.26" fill="none" stroke="#000" stroke-linejoin="round"/><rect x="9.4" y=".52" width="3.88" height="3.88" fill="none" stroke="#000" stroke-linejoin="round"/><path d="m15.89.5s-1.96.84-1.96,1.96,1.96,1.96,1.96,1.96V.5Z" fill="none" stroke="#000" stroke-linejoin="round"/></svg>