<?xml version="1.0" encoding="utf-8"?>
<!-- Generator: Adobe Illustrator 28.0.0, SVG Export Plug-In . SVG Version: 6.00 Build 0)  -->
<svg version="1.1" id="Layer_1" xmlns="http://www.w3.org/2000/svg" xmlns:xlink="http://www.w3.org/1999/xlink" x="0px" y="0px"
	 viewBox="0 0 24 24" style="enable-background:new 0 0 24 24;" xml:space="preserve">
<style type="text/css">
	.st0{fill:none;stroke:#000000;stroke-linejoin:round;}
	.st1{fill:none;stroke:#000000;stroke-linecap:round;stroke-linejoin:round;}
	.st2{fill:none;stroke:#000000;stroke-linecap:round;}
	.st3{fill:none;stroke:#000000;stroke-miterlimit:10;}
</style>
<g>
	<polyline class="st0" points="1201.6,669.7 1201.6,666.3 1196.5,670.1 1191.1,670.1 1191.1,676.8 1196.5,676.8 1201.6,680.5 
		1201.6,677.1 	"/>
	<circle class="st1" cx="1205" cy="673.4" r="3.4"/>
	<line class="st1" x1="1202.7" y1="670.9" x2="1207.5" y2="675.7"/>
</g>
<path class="st2" d="M1091.6,702.1l-1-1l0,0c-2-2-5.2-2-7.2,0l0,0c-2,2-2,5.2,0,7.2l1,1c0,0,5.1,4.2,6.7,6.3c0.3,0.3,0.7,0.3,1,0
	c1.6-2.1,6.7-6.3,6.7-6.3l1-1c2-2,2-5.2,0-7.2l0,0c-2-2-5.2-2-7.2,0l0,0C1092.6,701.1,1091.6,702.1,1091.6,702.1z"/>
<g>
	<g>
		<g>
			<path class="st3" d="M1134.1,706.8l1.1-0.6c0.6-0.3,0.8-1.1,0.5-1.7l-1.2-2c-0.3-0.6-1.1-0.8-1.7-0.5l-1.1,0.6l-1.6-0.9v-1.3
				c0-0.7-0.6-1.2-1.2-1.2h-2.3c-0.7,0-1.2,0.6-1.2,1.2v1.3l-1.6,0.9l-1.1-0.6c-0.6-0.3-1.4-0.1-1.7,0.5l-1.2,2
				c-0.3,0.6-0.1,1.4,0.5,1.7l1.1,0.6v1.8l-1.1,0.6c-0.6,0.3-0.8,1.1-0.5,1.7l1.2,2c0.3,0.6,1.1,0.8,1.7,0.5l1.1-0.6l1.6,0.9v1.3
				c0,0.7,0.6,1.2,1.2,1.2h2.3c0.7,0,1.2-0.6,1.2-1.2v-1.3l1.6-0.9l1.1,0.6c0.6,0.3,1.4,0.1,1.7-0.5l1.2-2c0.3-0.6,0.1-1.4-0.5-1.7
				l-1.1-0.6V706.8z"/>
		</g>
	</g>
	<circle class="st3" cx="1127.7" cy="707.7" r="2.5"/>
</g>
<g>
	<path class="st3" d="M1155.9,709.5v3.5c0,1.2,0.9,2.1,2.1,2.1h10.7c1.2,0,2.1-0.9,2.1-2.1v-3.5"/>
	<polyline class="st3" points="1167.7,705.5 1163.4,709.8 1159.1,705.5 	"/>
	<line class="st3" x1="1163.4" y1="709.8" x2="1163.4" y2="700.4"/>
</g>
<g>
	<path d="M1199.7,734.7l7.4,4.9c0.3,0.2,0.4,0.5,0.4,0.8l-1.1,9.1h-4.5v-3.8v-1h-1h-2.3h-1v1v3.8h-4.7l-1.1-9.1
		c0-0.3,0.1-0.6,0.4-0.8L1199.7,734.7 M1199.7,733.5l-8,5.2c-0.6,0.4-0.9,1.1-0.8,1.8l1.1,9.2c0,0.4,0.4,0.7,0.8,0.7h5.1
		c0.4,0,0.8-0.4,0.8-0.8v-4h2.3v4c0,0.4,0.4,0.8,0.8,0.8h4.8c0.4,0,0.7-0.3,0.8-0.7l1.1-9.2c0.1-0.7-0.2-1.4-0.8-1.8L1199.7,733.5
		L1199.7,733.5z"/>
</g>
<g>
	<path class="st3" d="M1099.4,777.9c-1.8-1.8-4.7-1.5-6.2,0.6c-0.9,1.3-0.9,3.1,0,4.4c1.2,1.8,3.5,2.2,5.2,1.3l1.6,0.6
		c0.4,0.2,0.8-0.2,0.7-0.7l-0.6-1.6C1100.9,781.1,1100.7,779.2,1099.4,777.9z"/>
	<path class="st3" d="M1098.5,774.9c-0.2-1.8-1-3.6-2.5-5c-3-2.8-7.7-2.9-10.8-0.2c-3.2,2.8-3.6,7.3-1.4,10.6l-0.7,1.9
		c-0.2,0.6,0.3,1.1,0.9,0.9l1.9-0.7c1.6,1.1,3.4,1.5,5.3,1.4"/>
</g>
<g>
	<g>
		<path d="M1166.1,769.3c0.9,0,1.6,0.5,2,1.3l0.3,0.7c0.1,0.5,0.6,0.9,1.2,0.9c0.7,0,1.4,0.3,1.8,0.9c0.5,0.5,0.6,1.3,0.5,2
			l-1.3,6.7c-0.2,0.9-1,1.6-1.9,1.6H1158c-0.9,0-1.7-0.7-1.9-1.6l-1.3-6.7c-0.1-0.7,0-1.4,0.5-2c0.5-0.5,1.1-0.9,1.8-0.9
			c0.6,0,1.1-0.4,1.2-0.9l0.4-0.7c0.4-0.8,1.2-1.3,2-1.3H1166.1 M1166.1,768.3h-5.4c-1.2,0-2.4,0.7-2.9,1.8l-0.4,0.9
			c0,0.1-0.1,0.2-0.2,0.2c-2.1,0-3.7,1.9-3.3,4l1.3,6.7c0.3,1.4,1.5,2.4,2.9,2.4h10.7c1.4,0,2.6-1,2.9-2.4l1.3-6.7
			c0.4-2.1-1.2-4-3.3-4c-0.1,0-0.2-0.1-0.2-0.2l-0.4-0.9C1168.4,769,1167.3,768.3,1166.1,768.3L1166.1,768.3z"/>
	</g>
	<g>
		<path d="M1163.4,773.5c1.8,0,3.3,1.5,3.3,3.3c0,1.8-1.5,3.3-3.3,3.3c-1.8,0-3.3-1.5-3.3-3.3C1160.1,775,1161.6,773.5,1163.4,773.5
			 M1163.4,772.5c-2.4,0-4.3,1.9-4.3,4.3s1.9,4.3,4.3,4.3s4.3-1.9,4.3-4.3S1165.7,772.5,1163.4,772.5L1163.4,772.5z"/>
	</g>
</g>
<g>
	<g>
		<path d="M11.9,5c0.3,0,0.6,0.3,0.6,0.6v3.3V10l1.1-0.1l3.7-0.3c0.1,0,0.1,0,0.2,0c1.1,0,1.9,0.9,1.9,1.9l0,1v4.6
			c0,1.1-0.9,1.9-1.9,1.9h-13v-7.5H7h0.8l0.2-0.7l1.4-5.3C9.4,5.2,9.7,5,10,5H11.9 M11.9,4h-2C9.2,4,8.6,4.5,8.4,5.2L7,10.5H4.4
			c-0.5,0-0.9,0.4-0.9,0.9v7.7c0,0.5,0.4,0.9,0.9,0.9h13.1c1.6,0,2.9-1.3,2.9-2.9v-5.6h0c0-1.6-1.3-2.9-2.9-2.9c-0.1,0-0.2,0-0.3,0
			l-3.7,0.3V5.6C13.6,4.7,12.8,4,11.9,4L11.9,4z"/>
	</g>
	<line class="st3" x1="7.3" y1="11.1" x2="7.3" y2="20"/>
</g>
</svg>
