<?xml version="1.0" encoding="utf-8"?>
<!-- Generator: Adobe Illustrator 28.0.0, SVG Export Plug-In . SVG Version: 6.00 Build 0)  -->
<svg version="1.1" id="Layer_1" xmlns="http://www.w3.org/2000/svg" xmlns:xlink="http://www.w3.org/1999/xlink" x="0px" y="0px"
	 viewBox="0 0 24 24" style="enable-background:new 0 0 24 24;" xml:space="preserve">
<style type="text/css">
	.st0{fill:none;stroke:#000000;stroke-linejoin:round;stroke-miterlimit:10;}
</style>
<g>
	<g>
		<path d="M19.2,6.2c0.8,0,1.4,0.6,1.4,1.4v8.9c0,0.8-0.6,1.4-1.4,1.4H4.8c-0.8,0-1.4-0.6-1.4-1.4V7.6c0-0.8,0.6-1.4,1.4-1.4H19.2
			 M19.2,5.2H4.8c-1.3,0-2.4,1.1-2.4,2.4v8.9c0,1.3,1.1,2.4,2.4,2.4h14.4c1.3,0,2.4-1.1,2.4-2.4V7.6C21.6,6.2,20.5,5.2,19.2,5.2
			L19.2,5.2z"/>
	</g>
	<polyline class="st0" points="3.5,6.3 12,12 20.5,6.3 	"/>
</g>
</svg>
