<?xml version="1.0" encoding="UTF-8"?><svg id="uuid-6fc7d07b-e945-48d5-8e4a-3c032d7bac28" xmlns="http://www.w3.org/2000/svg" width="17.23" height="17.25" viewBox="0 0 17.23 17.25"><path d="m4.37,7.19c1.09,0,1.97.88,1.97,1.97s-.88,1.97-1.97,1.97-1.97-.88-1.97-1.97.88-1.97,1.97-1.97m0-1c-1.64,0-2.97,1.33-2.97,2.97s1.33,2.97,2.97,2.97,2.97-1.33,2.97-2.97-1.33-2.97-2.97-2.97h0Z" stroke-width="0"/><path d="m6.23,13.13c.84,0,1.52.68,1.52,1.52v1.6H1v-1.6c0-.84.68-1.52,1.52-1.52h3.71m0-1h-3.71c-1.39,0-2.52,1.13-2.52,2.52v2.11c0,.27.22.48.48.48h7.79c.27,0,.48-.22.48-.48v-2.11c0-1.39-1.13-2.52-2.52-2.52h0Z" stroke-width="0"/><path d="m15.62,7.02c1.67-1.67,1.47-4.49-.59-5.88-1.26-.85-2.97-.84-4.23.02-1.71,1.17-2.12,3.32-1.24,4.97l-.57,1.5c-.15.39.24.78.63.63l1.5-.57c1.44.77,3.28.55,4.5-.67Z" fill="none" stroke="#000" stroke-miterlimit="10"/></svg>