<?xml version="1.0" encoding="UTF-8"?><svg id="uuid-9c0e7f9b-f453-47bb-b8b6-f4b765f046b8" xmlns="http://www.w3.org/2000/svg" width="14.05" height="18.9" viewBox="0 0 14.05 18.9"><line x1="7.03" x2="7.03" y2="1.46" fill="none" stroke="#000"/><line x1="7.03" y1="17.06" x2="7.03" y2="18.9" fill="none" stroke="#000"/><path d="m10.4,2.46c.55,0,1,.45,1,1v7.18c0,.66.41,1.26,1.02,1.5.39.15.64.51.64.93v1.39c0,.55-.45,1-1,1H2c-.55,0-1-.45-1-1v-1.39c0-.41.25-.78.64-.93.61-.23,1.02-.84,1.02-1.5V3.46c0-.55.45-1,1-1h6.75m0-1H3.65c-1.1,0-2,.89-2,2v7.18c0,.25-.15.48-.38.57-.75.29-1.28,1.01-1.28,1.86v1.39c0,1.1.89,2,2,2h10.06c1.1,0,2-.89,2-2v-1.39c0-.85-.53-1.57-1.28-1.86-.23-.09-.38-.32-.38-.57V3.46c0-1.1-.89-2-2-2h0Z" stroke-width="0"/></svg>