<?xml version="1.0" encoding="UTF-8"?><svg id="uuid-3586e3dc-c3e9-4e29-9f20-72d37b57cfd8" xmlns="http://www.w3.org/2000/svg" width="14.66" height="14.55" viewBox="0 0 14.66 14.55"><path d="m4.63,3.02l6.9,6.9L1.07,13.48,4.63,3.02m-.05-1.11c-.35,0-.7.21-.83.59L.05,13.39c-.2.59.26,1.16.82,1.16.09,0,.19-.02.29-.05l10.88-3.7c.61-.21.79-.99.34-1.45L5.19,2.17c-.17-.17-.4-.26-.62-.26h0Z" stroke-width="0"/><path d="m13.34,3.93l-.78-.36c-.2-.09-.42-.09-.62,0l-.78.36c-.29.13-.59-.17-.45-.45l.36-.78c.09-.2.09-.42,0-.62l-.36-.78c-.13-.29.17-.59.45-.45l.78.36c.2.09.42.09.62,0l.78-.36c.29-.13.59.17.45.45l-.36.78c-.09.2-.09.42,0,.62l.36.78c.13.29-.17.59-.45.45Z" stroke-width="0"/><circle cx="13.78" cy="6.49" r=".38" fill="none" stroke="#000" stroke-miterlimit="10"/><rect x="7.84" y=".5" width=".61" height=".61" fill="none" stroke="#000" stroke-miterlimit="10"/></svg>