<?xml version="1.0" encoding="utf-8"?>
<!-- Generator: Adobe Illustrator 28.0.0, SVG Export Plug-In . SVG Version: 6.00 Build 0)  -->
<svg version="1.1" id="Layer_1" xmlns="http://www.w3.org/2000/svg" xmlns:xlink="http://www.w3.org/1999/xlink" x="0px" y="0px"
	 viewBox="0 0 24 24" style="enable-background:new 0 0 24 24;" xml:space="preserve">
<style type="text/css">
	.st0{fill:none;stroke:#000000;stroke-linecap:square;stroke-linejoin:round;}
</style>
<g>
	<line class="st0" x1="17.2" y1="17.2" x2="20.5" y2="20.5"/>
	<g>
		<path d="M11.5,4.5c3.9,0,7,3.2,7,7c0,3.9-3.2,7-7,7c-3.9,0-7-3.2-7-7C4.5,7.6,7.6,4.5,11.5,4.5 M11.5,3.5L11.5,3.5
			c-4.4,0-8,3.6-8,8v0c0,4.4,3.6,8,8,8h0c4.4,0,8-3.6,8-8v0C19.6,7.1,16,3.5,11.5,3.5L11.5,3.5z"/>
	</g>
</g>
</svg>
