<?xml version="1.0" encoding="utf-8"?>
<!-- Generator: Adobe Illustrator 28.0.0, SVG Export Plug-In . SVG Version: 6.00 Build 0)  -->
<svg version="1.1" id="Layer_1" xmlns="http://www.w3.org/2000/svg" xmlns:xlink="http://www.w3.org/1999/xlink" x="0px" y="0px"
	 viewBox="0 0 24 24" style="enable-background:new 0 0 24 24;" xml:space="preserve">
<style type="text/css">
	.st0{fill:none;stroke:#000000;stroke-linejoin:round;}
	.st1{fill:none;stroke:#000000;stroke-linecap:round;stroke-linejoin:round;}
	.st2{fill:none;stroke:#000000;stroke-linecap:round;}
	.st3{fill:none;stroke:#000000;stroke-miterlimit:10;}
</style>
<g>
	<polyline class="st0" points="1201.6,669.7 1201.6,666.3 1196.5,670.1 1191.1,670.1 1191.1,676.8 1196.5,676.8 1201.6,680.5 
		1201.6,677.1 	"/>
	<circle class="st1" cx="1205" cy="673.4" r="3.4"/>
	<line class="st1" x1="1202.7" y1="670.9" x2="1207.5" y2="675.7"/>
</g>
<path class="st2" d="M1091.6,702.1l-1-1l0,0c-2-2-5.2-2-7.2,0l0,0c-2,2-2,5.2,0,7.2l1,1c0,0,5.1,4.2,6.7,6.3c0.3,0.3,0.7,0.3,1,0
	c1.6-2.1,6.7-6.3,6.7-6.3l1-1c2-2,2-5.2,0-7.2l0,0c-2-2-5.2-2-7.2,0l0,0C1092.6,701.1,1091.6,702.1,1091.6,702.1z"/>
<g>
	<g>
		<g>
			<path class="st3" d="M1134.1,706.8l1.1-0.6c0.6-0.3,0.8-1.1,0.5-1.7l-1.2-2c-0.3-0.6-1.1-0.8-1.7-0.5l-1.1,0.6l-1.6-0.9v-1.3
				c0-0.7-0.6-1.2-1.2-1.2h-2.3c-0.7,0-1.2,0.6-1.2,1.2v1.3l-1.6,0.9l-1.1-0.6c-0.6-0.3-1.4-0.1-1.7,0.5l-1.2,2
				c-0.3,0.6-0.1,1.4,0.5,1.7l1.1,0.6v1.8l-1.1,0.6c-0.6,0.3-0.8,1.1-0.5,1.7l1.2,2c0.3,0.6,1.1,0.8,1.7,0.5l1.1-0.6l1.6,0.9v1.3
				c0,0.7,0.6,1.2,1.2,1.2h2.3c0.7,0,1.2-0.6,1.2-1.2v-1.3l1.6-0.9l1.1,0.6c0.6,0.3,1.4,0.1,1.7-0.5l1.2-2c0.3-0.6,0.1-1.4-0.5-1.7
				l-1.1-0.6V706.8z"/>
		</g>
	</g>
	<circle class="st3" cx="1127.7" cy="707.7" r="2.5"/>
</g>
<g>
	<g>
		<g>
			<path class="st3" d="M18.4,11.1l1.1-0.6c0.6-0.3,0.8-1.1,0.5-1.7l-1.2-2c-0.3-0.6-1.1-0.8-1.7-0.5L16,6.9L14.4,6V4.8
				c0-0.7-0.6-1.2-1.2-1.2h-2.3c-0.7,0-1.2,0.6-1.2,1.2V6L8,6.9L6.9,6.3C6.3,6,5.6,6.2,5.2,6.7l-1.2,2c-0.3,0.6-0.1,1.4,0.5,1.7
				l1.1,0.6v1.8l-1.1,0.6c-0.6,0.3-0.8,1.1-0.5,1.7l1.2,2c0.3,0.6,1.1,0.8,1.7,0.5L8,17.1L9.6,18v1.3c0,0.7,0.6,1.2,1.2,1.2h2.3
				c0.7,0,1.2-0.6,1.2-1.2V18l1.6-0.9l1.1,0.6c0.6,0.3,1.4,0.1,1.7-0.5l1.2-2c0.3-0.6,0.1-1.4-0.5-1.7l-1.1-0.6V11.1z"/>
		</g>
	</g>
	<circle class="st3" cx="12" cy="12" r="2.5"/>
</g>
</svg>
